/* XPM */
static char *_029a76726ea40e4ef5d1fc4aea867feQ8rJ5Ld8OwKzmJ3g[] = {
/* columns rows colors chars-per-pixel */
"50 50 106 2 ",
"   c None",
".  c #373D3D",
"X  c #353E43",
"o  c #393E41",
"O  c #353F48",
"+  c #374045",
"@  c #3C4245",
"#  c #344149",
"$  c #3D454B",
"%  c #3D4C53",
"&  c #424446",
"*  c #42474A",
"=  c #454A4D",
"-  c #484E4E",
";  c #454D51",
":  c #494E51",
">  c #475153",
",  c #4C5255",
"<  c #46525A",
"1  c #4E5559",
"2  c #4F595B",
"3  c #51565A",
"4  c #535A5D",
"5  c #5C5D5F",
"6  c #4E5C63",
"7  c #555D61",
"8  c #595E61",
"9  c #576163",
"0  c #5A6265",
"q  c #52636A",
"w  c #5D656A",
"e  c #5F686D",
"r  c #5D6A70",
"t  c #61666C",
"y  c #626A6D",
"u  c #68696B",
"i  c #636C73",
"p  c #6A6F73",
"a  c #657176",
"s  c #6B7275",
"d  c #66727A",
"f  c #6A757B",
"g  c #6D797E",
"h  c #727679",
"j  c #757A7D",
"k  c #687681",
"l  c #6D7B83",
"z  c #727C83",
"x  c #717E88",
"c  c #6F8087",
"v  c #748086",
"b  c #75838B",
"n  c #79868E",
"m  c #77888F",
"M  c #7D888D",
"N  c #798790",
"B  c #778890",
"V  c #7C8B93",
"C  c #7F8D98",
"Z  c #83878A",
"A  c #85898C",
"S  c #808D96",
"D  c #8B8F92",
"F  c #818F98",
"G  c #8B9093",
"H  c #84929B",
"J  c #89969C",
"K  c #969799",
"L  c #999C9C",
"P  c #8596A0",
"I  c #8997A0",
"U  c #8B9BA4",
"Y  c #8E9EA9",
"T  c #939EA4",
"R  c #9E9FA3",
"E  c #919FA8",
"W  c #8FA0AA",
"Q  c #93A0A6",
"!  c #93A3AD",
"~  c #9AA4AC",
"^  c #9CA9AF",
"/  c #96A6B1",
"(  c #99A7B2",
")  c #97A8B1",
"_  c #9BABB5",
"`  c #9DAEB8",
"'  c #9FB0BA",
"]  c #A1A5A6",
"[  c #A2ADB2",
"{  c #A9ADB0",
"}  c #A1AFBA",
"|  c #ABB3B6",
" . c #A3B3BC",
".. c #B1BCBE",
"X. c #A5B6C1",
"o. c #A9B7C0",
"O. c #A7B8C2",
"+. c #ABBBC4",
"@. c #B3BCC1",
"#. c #B8BFC5",
"$. c #B5C0C4",
"%. c #BBC1C4",
"&. c #BEC6C9",
"*. c #BEC9CC",
"=. c #CBD2D8",
"-. c #D0D8DB",
/* pixels */
"                                                                                                    ",
"                                                                                                    ",
"                                                                                                    ",
"                                                                                                    ",
"                                                                                                    ",
"                                                                                                    ",
"                                                  =.                                                ",
"                                            | Q ~ ~ G Q                                             ",
"                                          Q ` ` _ _ ~ V V *.                                        ",
"                                      *.Q ` ` ` _ / / H M M [                                       ",
"                          *.[ ` ^ / ~ _  .` ` _ / ! ! U m m n S @.-.                                ",
"                        [ ^ l q H }  . .` ` _ _ ! W ! U m b b v V M z v s s G %.                    ",
"                      [  .2 # 6 _  .' ' _ _ ! n q r x C J b c x b b l k f d 0 0 y ]                 ",
"                      +.U 6 H  . .' ' ` W H l # # O O 6 V J C V V C V V b f a > @ = s               ",
"                    [  . .' X.X.' ' ` ) _ / I l d 6 < a l C H H V V V V m v r 7 + X - A             ",
"                     .+.$.X.' ' ' ` ' ) ! ! E ! U U J B H H C V V V n b b b s i 4 X X 3             ",
"                  @.X.+.X.X.X.' ' ` ) ! W ! W W U U U H H C C V N B b b b x p t w 2 * :             ",
"                  ( +.X.X.' ` ` ` ) ! ! W W W U U U H H H V V V N b b v x z t t w 7 7 2 h           ",
"                #. .X.X.' ' ` _ _ ) ! ! W Y U U H J H H V V V V n n x x f y t t w 0 7 7 3           ",
"                _ O.X.U ' ` ` ) ) ! ! W Y W U P H H C C V V B M n x d i t t t 0 9 8 7 8 5           ",
"              ] ~ V k H ( ` ( / ! ! W W U U U H J H V V V V b b x i t w w w 0 7 7 7 4 4 4           ",
"            ^ _ b % O E P ( / ! ! W W W U P U H H V F V V m b v a r i t w 2 0 9 9 7 4 3 3           ",
"          #.} C 6 O O d ! ( ! ! ! W U W U J H H V V V m m v b g 7 r r 0 4 4 9 9 7 7 4 4 3           ",
"          ~ X.x X X O H ( ! ! ! W W U C H H C C C V V m b l d e 7 e e 0 > 9 7 7 7 4 1 1 h           ",
"          R X.x O O < / ! ! ! Y U U I J J H F V V V n b f i i t 1 4 7 > 1 9 5 4 4 : o ,             ",
"          ( } P < O d ! ! ! Y U U I P H F H V V V N n g i i t w ; + X ; 2 9 4 4 4 * . :             ",
"          E } ( k d x ! ! Y U U U J H F F V V V n v f i i 8 w * X o X ; 2 4 4 2 3 : = ,             ",
"          T } _ B / Y U Y U U U I H H H C V V n f i i i i w $ O X X o ; 1 2 4 2 3 : , :             ",
"          J ( ( V ! / Y E U I I J H F V V V n z i i t 8 < O O O o O X : , 3 3 , , , : :             ",
"          K Y / P ! Y Y E I I H H F F V B V b g i i 8 7 w O O o O o o 4 3 3 3 3 , : : -             ",
"          | S U / Y Y Y U I J H F F V V V b v f y t t t < X o X o o 3 , 3 , , , : : - -             ",
"            S V V C P I I J H F V V V N b b v a y y t 7 o X X O : 4 , 3 3 , , * * - = =             ",
"            %.M b b b b m V H C V V V N b b x i y t 5 > 2 > 1 2 2 , 4 1 3 : : : - - : =             ",
"              T b b c c l l l V Z V n b v z f y w w 2 0 9 1 1 1 4 1 3 , : : : : = * * &             ",
"                M v v z g g g f l x n x v f e w e 0 0 0 9 7 4 4 3 3 : 1 : : : : = * o @             ",
"                %.v z z g f f f a p a p r e e w 0 0 9 7 7 4 4 4 3 : 1 : : : * * * o o &             ",
"                  M g g g f d d a i i i e e 0 0 9 9 7 7 2 4 1 1 : , : : : = : * X o o u             ",
"                    g g f f d d a i i w w e w 5 7 9 9 4 4 2 2 2 : : : : = = * o . o &               ",
"                    j g f d d i i i y w w 0 > 3 2 9 4 4 1 1 $ $ * $ : = = = & o . o h               ",
"                    { 7 1 d a i i i t y 0 0 = 4 7 4 2 2 1 > . + o : = = = = o . o 8                 ",
"                      j y = > 0 t w t 0 8 0 8 8 4 4 3 3 1 1 * @ * = = = * * . @ t                   ",
"                        s $ X 4 5 t 0 t u L         ] j 4 : : : - - = * * & - K                     ",
"                          j w u t u D                       | Z 8 - & * 5 K                         ",
"                                                                                                    ",
"                                                                                                    ",
"                                                                                                    ",
"                                                                                                    ",
"                                                                                                    ",
"                                                                                                    ",
"                                                                                                    "
};
