/* XPM */
static char *_3e79cca597148c5f942ed8a09be0a11K54OrRbgaeToQ365[] = {
/* columns rows colors chars-per-pixel */
"50 50 174 2 ",
"   c #373D3D",
".  c #353E43",
"X  c #393E41",
"o  c #353F48",
"O  c #374045",
"+  c #3C4245",
"@  c #344149",
"#  c #3D454B",
"$  c #3D4C53",
"%  c #424446",
"&  c #42474A",
"*  c #454A4D",
"=  c #484E4E",
"-  c #454D51",
";  c #494E51",
":  c #475153",
">  c #4C5255",
",  c #46525A",
"<  c #4E5559",
"1  c #4F595B",
"2  c #51565A",
"3  c #535A5D",
"4  c #5C5D5F",
"5  c #4E5C63",
"6  c #555D61",
"7  c #595E61",
"8  c #576163",
"9  c #5A6265",
"0  c #52636A",
"q  c #5D656A",
"w  c #5F686D",
"e  c #5D6A70",
"r  c #61666C",
"t  c #626A6D",
"y  c #68696B",
"u  c #636C73",
"i  c #6A6F73",
"p  c #657176",
"a  c #6B7275",
"s  c #66727A",
"d  c #6A757B",
"f  c #6D797E",
"g  c #727679",
"h  c #757A7D",
"j  c #687681",
"k  c #6D7B83",
"l  c #727C83",
"z  c #717E88",
"x  c #6F8087",
"c  c #748086",
"v  c #75838B",
"b  c #79868E",
"n  c #77888F",
"m  c #7D888D",
"M  c #798790",
"N  c #778890",
"B  c #7C8B93",
"V  c #7F8D98",
"C  c #83878A",
"Z  c #85898C",
"A  c #808D96",
"S  c #8B8F92",
"D  c #818F98",
"F  c #8B9093",
"G  c #84929B",
"H  c #89969C",
"J  c #969799",
"K  c #999B9C",
"L  c #8596A0",
"P  c #8997A0",
"I  c #8B9BA4",
"U  c #8E9EA9",
"Y  c #939EA4",
"T  c #9E9FA3",
"R  c #919FA8",
"E  c #8FA0AA",
"W  c #93A0A6",
"Q  c #9FA3A4",
"!  c #93A3AD",
"~  c #9AA4AC",
"^  c #9CA9AF",
"/  c #96A6B1",
"(  c #99A7B2",
")  c #97A8B1",
"_  c #9BABB5",
"`  c #9DAEB8",
"'  c #9FB0BA",
"]  c #A2A4A6",
"[  c #A5A6A8",
"{  c #A4A8AB",
"}  c #A9AAAC",
"|  c #A2ADB2",
" . c #A9ADB0",
".. c #A1AFBA",
"X. c #ABB3B6",
"o. c #A3B3BC",
"O. c #B1B2B4",
"+. c #B2BBBE",
"@. c #B9BABC",
"#. c #A5B6C1",
"$. c #A9B7C0",
"%. c #A7B8C2",
"&. c #ABBBC4",
"*. c #B3BCC1",
"=. c #BBBEC2",
"-. c #B5C0C4",
";. c #BBC1C4",
":. c #BEC6C9",
">. c #BEC9CC",
",. c #C1C4C6",
"<. c #C6CACD",
"1. c #C9CACC",
"2. c #CECFD2",
"3. c #CDD2D4",
"4. c #CCD5D9",
"5. c #CFDADE",
"6. c #D2D4D6",
"7. c #D0D7DD",
"8. c #D2DADC",
"9. c #D7DEE4",
"0. c #D9DDE1",
"q. c #DFE0E2",
"w. c #DEE6E9",
"e. c #DDE5E8",
"r. c #E2E7EB",
"t. c #E4E7E9",
"y. c #E3E8EB",
"u. c #E0E8EA",
"i. c #E2EAEC",
"p. c #E5EDEF",
"a. c #E4E8EB",
"s. c #EAEBED",
"d. c #EDEFEE",
"f. c #EAEBEC",
"g. c #E6EEF1",
"h. c #E9EEF2",
"j. c #EBEFF2",
"k. c #EAEDF1",
"l. c #E9F1F3",
"z. c #EAF2F5",
"x. c #EDF5F7",
"c. c #EFF4F7",
"v. c #EDF1F3",
"b. c #EDF7F9",
"n. c #F2F3F5",
"m. c #F2F3F4",
"M. c #F6F8F7",
"N. c #F2F7FA",
"B. c #F5F9FA",
"V. c #F6FCFC",
"C. c #F5F9FB",
"Z. c #FBFDFC",
"A. c #FAFEFD",
"S. c #F8FDFF",
"D. c #FBFCFE",
"F. c #F9FFFF",
"G. c #F9FEFF",
"H. c #FBFFFE",
"J. c #FAFEFF",
"K. c #FBFFFF",
"L. c #FDFDFD",
"P. c #FCFEFD",
"I. c #FEFEFC",
"U. c #FFFFFD",
"Y. c #FCFDFF",
"T. c #FDFFFE",
"R. c #FDFEFF",
"E. c #FCFFFF",
"W. c #FEFEFE",
"Q. c #FEFEFF",
"!. c #FFFEFF",
"~. c #FEFFFF",
"^. c white",
"/. c #FFFFFF",
/* pixels */
"^.^.^.^.^.^.^.^.^.^.^.^.^.^.^.H.^.^.^.^.^.^.^.^.^.^.^.^.^.^.^.I.^.^.^.^.^.^.^.^.^.^.^.^.^.^.^.^.^.^.",
"^.^.^.^.^.^.^.^.^.^.^.^.^.^.^.^.^.^.^.^.^.^.^.D.^.^.^.^.^.^.I.^.^.^.^.^.^.^.^.^.^.^.^.^.^.^.^.^.^.^.",
"^.^.^.^.^.^.^.^.^.^.^.^.^.^.^.H.^.^.^.^.^.^.^.^.^.^.^.^.^.^.^.^.^.^.^.D.^.^.D.D.^.^.^.^.^.^.^.^.^.^.",
"^.^.^.^.^.^.^.^.^.^.^.^.^.^.^.^.H.^.^.^.^.^.^.^.^.^.^.^.^.^.^.^.^.^.^.^.^.^.^.^.^.^.^.^.^.^.^.^.^.^.",
"^.^.^.^.^.^.^.^.^.^.^.H.^.^.^.^.^.^.^.^.^.I.^.^.^.^.^.^.^.^.^.^.^.^.^.^.^.^.^.^.^.I.^.^.^.^.^.^.^.^.",
"^.^.^.^.^.^.^.^.^.^.^.^.^.^.^.^.^.^.^.^.^.^.^.^.D.H.^.^.^.^.^.^.^.^.^.^.^.^.^.^.I.^.^.^.^.^.^.^.^.^.",
"^.^.^.^.^.^.^.^.^.^.^.^.^.^.^.^.^.^.^.^.Z.^.H.g.5.3.r.H.D.L.^.^.^.^.^.^.^.^.^.^.^.^.^.^.^.^.^.^.^.^.",
"^.^.^.^.^.^.^.^.^.^.^.^.^.^.^.^.^.^.H.^.H.i.X.Y R ! F W 8.D.^.^.^.^.^.^.^.^.^.^.^.^.^.^.^.^.^.^.^.^.",
"^.^.^.^.^.^.^.^.^.^.^.^.I.I.Z.Z.H.H.H.H.5.W ` ' ..( ! V A :.H.H.^.^.^.^.I.^.^.^.^.^.^.^.^.^.^.^.^.^.",
"^.^.^.^.^.^.^.^.^.^.^.^.I.I.V.p.w.b.z.:.W ` ` _ ( ( / G m n | c.H.^.H.D.^.^.^.^.^.^.^.^.^.^.^.^.^.^.",
"I.^.^.^.^.^.^.^.^.^.^.^.x.>.^ | _ ~ ! _ o.` ' _ ( / ! P n n b A *.8.e.i.k.B.H.D.H.^.^.^.^.^.^.^.^.^.",
"I.^.^.^.^.^.^.^.^.^.H.r.| ^ x 0 G ' o.o.' _ _ ^ ! W R U n n c z n m l c a i F :.n.B.^.^.^.^.^.^.^.^.",
"^.^.^.^.^.^.^.^.^.H.g.| X.5 @ 0 ) o.' ' _ _ ! n 0 e z V G v z z v v k f d s 9 9 y ] v.H.^.^.^.^.^.^.",
"^.^.^.^.^.^.^.^.^.H.+.&.I 5 G o.o.o.' _ E G x @ @ o o 5 B H D B B V B B v d p - + * a s.^.^.^.^.^.^.",
"^.^.^.^.^.^.^.^.V.l.` o.o.' %.o.' ' ' _ ( ( P k s 5 , s k B G G V B B n n c w 6 O O * Z D.^.^.^.^.^.",
"^.^.^.^.^.^.^.^.H.4.o.&.&.o.o.' ' _ ' / ! ! R W U I P M D G D B B B N v v v d u 3 .   2 0.^.^.^.^.^.",
"^.^.^.^.^.^.^.^.D.&.#.&.#.#.o.` ' ` / / ! E ! E I L P G G V V V B b n n z l u u 7 1 * - { D.^.^.^.^.",
"^.^.^.^.^.^.^.^.c.( &.#.#.o.' ` ' ) / E E E E I I L H G G V V B N b c c l l r r q 9 7 < g ^.^.^.^.^.",
"^.^.^.^.^.^.D.^.*.o.%.#.o.` ` _ _ ) E ! E U U I P G G V V V B n b z z l f t r q q 9 6 6 3 t.^.^.^.^.",
"^.^.^.^.^.^.^.2...%.#.L ` ` ` ( ) ! ! E U U I P G G G V B N m n b z s u r r r q 9 6 6 7 3 <.^.^.^.^.",
"^.I.^.^.^.D.9.~ ~ B j G ` ` / / ! ! E E U L P H G D D B B n n v z u u e q q 9 8 6 6 3 3 3 :.^.^.^.^.",
"I.^.^.^.^.j.( | c $ o ! V ` / ! ! E E E I P G G D V V B m n v c p u r q q 1 7 8 8 7 3 2 2 6.^.^.^.^.",
"^.^.^.^.D.=...D 5 o o s ! ( ! ! ! E I E L P G G D B B n n x c f 0 q e q 1 6 8 7 6 6 1 3 2 v.^.^.^.^.",
"^.^.^.^.C.~ #.k o . o D ( ! ! ! E E I V P G G V D B B n v k p u 6 q q 9 : 8 8 7 6 3 < < g ^.^.^.^.^.",
"^.^.^.^.g.Y o.z o . , / / ! ! U Y I I H H D D B B n b b d u u r 1 3 6 : < 8 7 3 3 > X ; Q ^.^.^.^.^.",
"^.^.^.^.9.~ ..P , o s ! U ! U I I I G G D D D B B m b f u u u q -   . - 1 6 3 3 2 %   > @.H.^.I.^.^.",
"^.^.^.H.7.T ..( j s z / ! U I I P G G G G B B B b c d u u 7 7 * . X X - 1 3 3 1 2 - & > @.B.^.^.^.^.",
"^.^.I.^.9.Y ..` N ( U I U I I I P G D D D B B b d u u u u r o o . . O - < 3 1 1 2 > > ; [ ^.^.H.^.^.",
"^.^.I.^.w.H ( ( V ! ! U R I P H P D D D B B n l u u r 7 , # o o X . . , ; 4 2 2 > ; ; ; J ^.^.^.^.^.",
"^.^.^.^.C.H Y / L ! U U I I P P G D D B N N b d u u 7 7 7 o o o . . + 2 2 2 > > > ; ; ; J ^.^.^.^.^.",
"H.^.^.^.H.X.B I / U U I I P P D D A B N N N c a t t r q , . X X X + 3 ; 2 > > > ; ; = * J ^.^.^.^.^.",
"^.^.^.^.H.r.A B M D L I P H G D B A B M v n c p t t r 7 o . . . - 2 < 2 > 2 > * & = * = ] H.^.I.^.^.",
"^.^.H.^.^.H.*.m b v v x N V G V B B B b c c z u t q 3 > 1 : < 1 < > 2 < > > ; ; * * * * } D.^.^.^.^.",
"^.^.^.^.^.H.C.Y v v x c k k z n B M b v c c d t q q 3 9 8 1 < < 2 3 2 < > ; = ; * * & % O.D.D.D.^.^.",
"^.^.^.^.^.^.^.r.m c c z f h d d l c b v c d w q q 9 9 9 8 6 3 3 2 2 ; > ; ; - * * & X % ,.D.^.^.^.^.",
"^.^.^.^.^.^.^.H.;.l l l f d d d p p i u u w w q 9 9 7 8 8 3 2 1 2 ; 2 ; ; ; * * & X X % t.^.^.^.^.^.",
"^.^.^.^.^.^.^.^.N.m k f f d s p p u u u q t q 9 8 8 6 6 1 3 1 < > ; ; ; ; * * & X X   y ^.^.^.^.^.^.",
"^.^.^.^.^.^.^.^.H.+.h f d d s p u u u r t q q 3 6 8 6 3 3 1 1 1 ; - ; ; * * * X . X + =.^.^.^.^.^.^.",
"^.H.^.^.D.^.^.^.^.d.h d d s s p u u t r q 8 : 2 1 8 1 3 1 > # # * X ; - * * % X   X g D.^.^.^.^.^.^.",
"^.^.^.^.^.^.^.^.D.D. .8 , p s u u t r t q 8 * 3 8 3 3 1 1 : . . X ; - * * * X   X 7 s.D.^.^.^.^.^.^.",
"^.^.^.^.^.^.^.^.^.^.n.h t * - 9 r q r 9 7 r 4 3 3 3 2 2 < < * + & * * * & & X   r t.^.^.^.^.^.^.^.^.",
"^.^.^.^.^.^.^.^.^.^.B.6.i & . 6 4 r 9 r y K =.3.2.=.T h 2 ; ; ; = * * & & % * J m.^.^.^.^.^.^.^.^.^.",
"^.^.^.^.^.I.H.^.^.^.^.H.6.g 9 r r r S 1.B.^.^.^.^.^.^.H.C.0. .C 9 * % % 4 K t.I.^.^.^.^.^.^.^.^.^.^.",
"^.^.^.^.I.^.^.^.^.^.^.^.D.M.6.=.2.n.D.D.^.^.I.^.^.^.^.^.^.H.^.D.I.M.f.d.L.L.I.^.I.I.^.^.^.^.^.^.^.^.",
"^.^.^.^.I.I.^.^.^.^.^.^.^.^.^.^.^.^.^.^.^.^.^.^.^.^.^.^.^.H.^.^.^.^.^.^.^.^.^.^.^.^.^.^.^.^.^.^.^.^.",
"^.^.^.^.^.^.^.^.^.^.^.^.^.^.^.^.^.^.^.^.^.^.^.^.^.^.^.^.^.^.^.^.^.^.^.^.I.I.^.^.^.^.^.^.^.^.^.^.^.^.",
"^.^.^.^.^.^.^.^.^.^.^.^.^.^.^.^.^.^.^.^.^.^.^.^.^.^.^.^.^.^.^.^.^.^.^.^.^.^.^.^.^.^.^.^.^.^.^.^.^.^.",
"^.^.^.^.^.^.^.^.^.^.^.^.^.^.^.^.^.^.^.^.^.^.^.^.D.^.^.^.^.^.^.^.^.^.^.^.^.^.^.I.^.^.^.^.^.^.^.^.^.^.",
"^.^.^.^.^.^.^.^.^.^.^.^.^.^.^.^.^.^.^.^.^.^.^.^.^.^.^.^.^.^.^.^.^.^.^.^.^.^.^.^.^.^.^.^.^.^.^.^.^.^.",
"^.^.^.^.^.^.^.^.^.^.^.^.^.^.^.^.^.^.^.^.^.^.^.^.^.^.^.^.^.^.^.^.^.^.^.^.^.^.^.^.^.^.^.^.^.^.^.^.^.^."
};
