/* XPM */
static char *ZW5uZW1pX3Nm[] = {
/* columns rows colors chars-per-pixel */
"50 50 219 2 ",
"   c #082B17",
".  c #214322",
"X  c #4B5F18",
"o  c #516F0D",
"O  c #4F6C10",
"+  c #56721D",
"@  c #5A7B1C",
"#  c #577219",
"$  c #516C15",
"%  c #586E29",
"&  c #5B7522",
"*  c #5E7F23",
"=  c #5C742A",
"-  c #577420",
";  c #4E7630",
":  c #5D7231",
">  c #456A37",
",  c #647D2B",
"<  c #687F2F",
"1  c #687D3A",
"2  c #647838",
"3  c #5D7F4C",
"4  c #6B7B47",
"5  c #717E51",
"6  c #757C5B",
"7  c #516F67",
"8  c #5D8218",
"9  c #628A0F",
"0  c #69940F",
"q  c #63891A",
"w  c #6B9514",
"e  c #6B931D",
"r  c #6F991A",
"t  c #6E9A13",
"y  c #729B17",
"u  c #76A41E",
"i  c #79A51E",
"p  c #5E8021",
"a  c #648324",
"s  c #698527",
"d  c #6A8C24",
"f  c #648229",
"g  c #6C8B2B",
"h  c #678828",
"j  c #6E9325",
"k  c #6D932B",
"l  c #719627",
"z  c #749C23",
"x  c #73952C",
"c  c #759B2B",
"v  c #7A9F2D",
"b  c #6B8333",
"n  c #6E843C",
"m  c #6A8B3A",
"M  c #728D35",
"N  c #728B3B",
"B  c #70863D",
"V  c #749333",
"C  c #759931",
"Z  c #7A9C33",
"A  c #79953B",
"S  c #7B9A3A",
"D  c #77973C",
"F  c #6A9138",
"G  c #79A324",
"H  c #7FA924",
"J  c #7AA12C",
"K  c #76A325",
"L  c #7CA233",
"P  c #77A038",
"I  c #6F8143",
"U  c #678140",
"Y  c #748A43",
"T  c #72834C",
"R  c #788C4C",
"E  c #738747",
"W  c #6B9043",
"Q  c #7B9442",
"!  c #7E9B44",
"~  c #7D934C",
"^  c #799749",
"/  c #758553",
"(  c #798657",
")  c #7B8B54",
"_  c #7A8B59",
"`  c #77835A",
"'  c #7D9251",
"]  c #7F8D62",
"[  c #7C9B75",
"{  c #81AD26",
"}  c #83AC2B",
"|  c #81A72E",
" . c #86B127",
".. c #87B22C",
"X. c #8AB42D",
"o. c #8CB72C",
"O. c #92BC2F",
"+. c #85AD31",
"@. c #86A939",
"#. c #8CB533",
"$. c #8EB932",
"%. c #8BB336",
"&. c #92BC32",
"*. c #92BA3A",
"=. c #90B736",
"-. c #819C4A",
";. c #819848",
":. c #859B55",
">. c #859A59",
",. c #83945A",
"<. c #88A647",
"1. c #8AA254",
"2. c #8CA25B",
"3. c #88A554",
"4. c #92AB5C",
"5. c #93B153",
"6. c #97B65B",
"7. c #828E67",
"8. c #859266",
"9. c #89966A",
"0. c #8D9A6C",
"q. c #879766",
"w. c #8D9774",
"e. c #8EA461",
"r. c #92A466",
"t. c #95AC63",
"y. c #92A26B",
"u. c #99AD6C",
"i. c #96AB6C",
"p. c #98B26A",
"a. c #94A372",
"s. c #9BAC73",
"d. c #96A47B",
"f. c #9DAB7C",
"g. c #99A67B",
"h. c #9DB076",
"j. c #A3BA6C",
"k. c #A0AD7F",
"l. c #A6BA77",
"z. c #A8C66B",
"x. c #ABC17A",
"c. c #AEC776",
"v. c #B1C97B",
"b. c #B6D27B",
"n. c #739384",
"m. c #9EAA81",
"M. c #97A081",
"N. c #92B288",
"B. c #A1AD83",
"V. c #ABBC84",
"C. c #A8B489",
"Z. c #AAB493",
"A. c #ACB894",
"S. c #B1BD95",
"D. c #B0BC98",
"F. c #93AEA5",
"G. c #B5BBA1",
"H. c #A9C482",
"J. c #BACD8B",
"K. c #B3C788",
"L. c #BDD28A",
"P. c #AAC899",
"I. c #BCCB9B",
"U. c #B8C895",
"Y. c #BED193",
"T. c #BDC6A9",
"R. c #BAC2A4",
"E. c #C0CD9F",
"W. c #C1D39E",
"Q. c #C7DC99",
"!. c #C0D68B",
"~. c #CDE29C",
"^. c #C6E28D",
"/. c #C0CDA2",
"(. c #C3CDAD",
"). c #CCDCA3",
"_. c #C9D6AC",
"`. c #C6D7A7",
"'. c #C4CAB4",
"]. c #C7CEBC",
"[. c #C9D2B4",
"{. c #CFD8BC",
"}. c #CBD5B6",
"|. c #D3DEBA",
" X c #D1D9BA",
".X c #CEE1A3",
"XX c #D6E9A9",
"oX c #CFF0AB",
"OX c #D5E2B5",
"+X c #D8E7B8",
"@X c #E1EEBB",
"#X c #E2F4B8",
"$X c #D3DBC4",
"%X c #D5D9C7",
"&X c #C7D8CE",
"*X c #DEECC5",
"=X c #DBE3CA",
"-X c #DDEBDA",
";X c #E1EDC5",
":X c #E2EBCF",
">X c #EAF7CD",
",X c #E9FAC3",
"<X c #F4FFCE",
"1X c #E4E9D5",
"2X c #E7F3D3",
"3X c #EFF7D2",
"4X c #EFFBD3",
"5X c #EDF4DC",
"6X c #F6FFD5",
"7X c #F8FFD3",
"8X c #F5FEDB",
"9X c #FAFFDD",
"0X c #F5FCE3",
"qX c #FAFFE2",
"wX c #FCFFEB",
"eX c #F2F7E1",
"rX c #FEFFF1",
"tX c #E6FAE1",
"yX c None",
/* pixels */
"yXyXyXyXyXyXyXyXyXyXyXyXyXyXyXyXyXyXyXyXyXyXyXyXyXyXyXyXyXyXyXyXyXyXyXyXyXyXyXyXyXyXyXyXyXyXyXyXyXyX",
"yXyXyXyXyXyXyXyXyXyXyXyXyXyXyXyXyXyXyXyXyXyXyXyXyXyXyXyXyXyXyXyXyXyXyXyXyXyXyXyXyXyXyXyXyXyXyXyXyXyX",
"yXyXyXyXyXyXyXyXyXyXyXyXyXyXyXyXyXyXyXyXyXyXyXyXyXyXyXyXyXyXyXyXyXyXyXyXyXyXyXyXyXyXyXyXyXyXyXyXyXyX",
"yXyXyXyXyXyXyXyXyXyXyXyXyXyXyXyXyXyXyXyXyXyXyXyXyXyXyXyXyXyXyXyXyXyXyXyXyXyXyXyXyXyXyXyXyXyXyXyXyXyX",
"yXyXyXyXyXyXyXyXyXyXyXyXyXyXyXyXyXyXyXyXyXyXyXyXyXyXyXyXyXyXyXyXyXyXyXyXyXyXyXyXyXyXyXyXyXyXyXyXyXyX",
"yXyXyXyXyXyXyXyXyXyXyXyXyXyXyXyXyXyXyXyXyXyX5X'.%XyXyXyXyXyXT.{.rXyXyXyXyXyXyXyXyXyXyXyXyXyXyXyXyXyX",
"yXyXyXyXyXyXyXyXyXyXyXyXyXyXyXyXyXyXyXyXyXyX0.( 6 1XyXyXyX:XT ' 8.qXyXyXyXyXyXyXyXyXyXyXyXyXyXyXyXyX",
"yXyXyXyXyXyXyXyXyXyXyXyXyXyXyXyXyX}.(.yXyXyX6Xy.|.yXyXyXyXwXV.~ B.0XyXyXyXyXyXyXyXyXyXyXyXyXyXyXyXyX",
"yXyXyXyXyXyXyXyXyXyXyXyXyXyXyXyXR 1 ' I.yXyXwXC.$XyXyXyXyXwXa./.wXyXyXyXyXyXyXyXyXyXyXyXyXyXyXyXyXyX",
"yXyXyXyXyXyXyXyXyXyXyXyXyXyXyXE o a Q ,XyXyX9XV./.qXwXwXwX2X5 7XyXyXyXyXyXyXyXyXyXyXyXyXyXyXyXyXyXyX",
"yXyXyXyXyXyXyXyXyXyXyXyXyXyX9.N s a ' 7X7X+Xv.-.A 4.4.l.J.l.i.9XyXyXyXyXyXyXS.yXyXyXyXyXyXyXyXyXyXyX",
"yXyXyXyXyXyXyXyXyXyXyXyXyXyX+XV.j.A b v.;.A S v J v J | C M ~ Q.0XyXyXyXyX:X/ a.yXyXyXyXyXyXyXyXyXyX",
"yXyXyXyXyXyXyXyXyXyXyXyXyXyXyXyX<X4.s l J J G { X.#.| { y @.e Z :.+XwXyX0XC.0.` yXyXyXyXyXyXyXyXyXyX",
"yXyXyXyXyXyXyXyXyXyXw.[.yXyXyX0Xu.S q 9 G i { O.O.O.X.X.$.&.{ v Z A W.6Xg.B.0XyXyXyXyXyXyXyXyXyXyXyX",
"yXyXyXyXyXyXyXyXyXd./ E.yXyX8X4.Z c r 9 r z $.&.O.O.O.O.O.&.O.&.+.| c R a.wXyXyXyXyXyXyXyXyXyXyXyXyX",
"yXyXyXyXyXyXyXyXyXA.I.9.A.6Xp.S K u G w w 0 { O.O.O.O.O.O.O.O.O.&.&.} x !.yXyXyXyXyXyXyXyXyXyXyXyXyX",
"yXyXyXyXyXyXyXyXyXyXyXyXf.B C K G ....0 o...o.O.O.O.&.&.&.O.&.&.O.O.&.L V >XyXyXyXyXyX}.yXyXyXyXyXyX",
"yXyXyXyXyXyXyXyXyXyXyXyX,XV G H O.&.&.y o.O.O.O.$.O.&.&.&.&.&.O.O.O.&.#.Z 2.wXyXyXyXyX4 8.yXyXyXyXyX",
"yXyXyXyXyXyX{.yXyXyXyXwXc.v G &.&.&.&.X.O.o.o.&.&.&.&.&.%.{ y y o.O.O.*.K f +XyXyXyXx.b = I.yXyXyXyX",
"yXyXyXyXyXw.( yXyXyXyX8XD J } &.O.O.O.&.H i O.&.&.&.&.} x l G o.&.&.O.&.H x y.|.D._ I b # k.yXyXyXyX",
"yXyXyXyXyX2 b N `.8X9X.XC G H $.&.&.$.$.t H &.&.&.#.J S !.:.| &.&.&.&.&.&.z M ) f.D.U.a.' f.yXyXyXyX",
"yXyXyXyXyX2 b n 4 4 y.:.l r G } =.&.&.H 0 ..$.&.%.L Q XXXXB v &.&.&.O.&.=.J @ XX0XyXyXyX/.;XyXyXyXyX",
"yXyXyXyXyX` 9.yXyX5X_.;.k K e j J ..#.u t H $.L P ^ *XyX)., | &.$.&.&.&.X.z g Y.yXyXyXyXyXyXyXyXyXyX",
"yXyXyXyXyX:XyXyXyXyX9X2.c K J z.t.F P J w K P P ; [ -XwXi.h J {  .O.&.&.{ J b V.wXyXyXyXyXyXyXyXyXyX",
"yXyXyXyXyXyXyXyXyXyX0X1.J G L ! P.. U W 8 k W >   7 &X2X= k K K i i o.&.i G g l.wXyXyXyXyXyXyXyXyXyX",
"yXyXyXyXyXyXyXyXyXyX9X2.J i K g N.n.[ H.p k oXN.n.F.tX_ p J J K c J { $.u J h :.(.%X4X7.].yXyXyXyXyX",
"yXyXyXyXyXyXyXT.f.<X#X1.J u G J h ^ p.p z J M J.I.P.U + j J P -.z.d G X.u J a >.C.m.,./ T.yXyXyXyXyX",
"yXyXyXyXyXyXyXZ.T ) 0.~ v G i G P k 8 l L +.@.g * - @ k J S -.~..X# J G i c , +XqX0X<X( 1XyXyXyXyXyX",
"yXyXyXyXyXyXyX'.7.yXyXOXg G K G K K H %.=.&.*.*.=.v z v S r.@XC.XX+ v i i C 1 qXyXyXyXyXyXyXyXyXyXyX",
"yXyXyXyXyXyXyXyXyXyXyXyXV c J z K J L *.&.&.&.&.=.i { C j.K.6Xw..Xg c G G d r.0XyXyXyXyXyXyXyXyXyXyX",
"yXyXyXyXyXyXyXyXyXyXyX4X-.L L 8 ^.m P J } X.X.X.{ z C N @Xk.>X( Q.S G G l g Y s.;XwXyX:XyXyXyXyXyXyX",
"yXyXyXyXyXyXyXyXyXyX[.] e.N Z o ~.3.v.C x Z v v v C A !.S.w.@XI b.v J z , t.XXC.( g.,.8.yXyXyXyXyXyX",
"yXyXyXyXyXyXyXyXT >.g.=XwX_.f A 1.x.K.r.J.t.B l., XX= !.y.,.J.Q 6.c J g 1 4XyXyX0XB.R s.yXyXyXyXyXyX",
"yXyXyXyXyXyXyXyXR i.0XyXyXqXj.< ~ !.n u.W.>.r.K.: ).X j.;.N z.5.| v d & OXyXyXyXyX'.( ;XyXyXyXyXyXyX",
"yXyXyXyXyXyXyXyX}.'.yXyXyXyX,X1 , -.5.6.;.;.c., :.6.O -.@.Z @.Z C * = `.wXyXyXyXyXyXyXyXyXyXyXyXyXyX",
"yXyXyXyXyXyXyXyXyXyXyXyXR.OX8.U.l., V Z | @.5.<.5.;.| | L J c a + & q.8XyXyXyXyXyXyXyXyXyXyXyXyXyXyX",
"yXyXyXyXyXyXyXyXyXyXyXrX_ E  XyXyXOXM c x L J J | z c c q , - % a.>X0./.yXyXyXyXyXyXyXyXyXyXyXyXyXyX",
"yXyXyXyXyXyXyXyXyXyXyXyX)./ $XyXyX4XE 6.! f d d d s q g + = a.*XwXyX>X7.[.$XyXyXyXyXyXyXyXyXyXyXyXyX",
"yXyXyXyXyXyXyXyXyXyXyXyXyX0XyXyXyXR.9.8XqX4XK.< k.u.1.B |.wXwXyXyXyXyXm._ B.yXyXyXyXyXyXyXyXyXyXyXyX",
"yXyXyXyXyXyXyXyXyXyXyXyXyXyXyXyX9X] {.yXyXyX_.f.qXyXXX4 qXyXyXyXyXyXyXM.C.yXyXyXyXyXyXyXyXyXyXyXyXyX",
"yXyXyXyXyXyXyXyXyXyXyXyXyXyXyX_.V.0.wXyXyXwXS./.yXyXOX4 5XyXyXyXyXyXyXyXyXyXyXyXyXyXyXyXyXyXyXyXyXyX",
"yXyXyXyXyXyXyXyXyXyXyXyXyXyXeX` R y.yXyXyX'.7.OXyXyXQ.E |.yXyXyXyXyXyXyXyXyXyXyXyXyXyXyXyXyXyXyXyXyX",
"yXyXyXyXyXyXyXyXyXyXyXyXyXyXyX$X0.5 yXyXyXw.( ] yXyXx.M h.7XyXyXyXyXyXyXyXyXyXyXyXyXyXyXyXyXyXyXyXyX",
"yXyXyXyXyXyXyXyXyXyXyXyXyXyXyXyXyXwXyXyXyXwX;X;XyX XN s < ) %XyXyXyXyXyXyXyXyXyXyXyXyXyXyXyXyXyXyXyX",
"yXyXyXyXyXyXyXyXyXyXyXyXyXyXyXyXyXyXyXyXyXyXyXyXyX/ b o # R G.yXyXyXyXyXyXyXyXyXyXyXyXyXyXyXyXyXyXyX",
"yXyXyXyXyXyXyXyXyXyXyXyXyXyXyXyXyXyXyXyXyXyXyXyXyXU.e.-.i.W.yXyXyXyXyXyXyXyXyXyXyXyXyXyXyXyXyXyXyXyX",
"yXyXyXyXyXyXyXyXyXyXyXyXyXyXyXyXyXyXyXyXyXyXyXyXyXyXwXyXyXyXyXyXyXyXyXyXyXyXyXyXyXyXyXyXyXyXyXyXyXyX",
"yXyXyXyXyXyXyXyXyXyXyXyXyXyXyXyXyXyXyXyXyXyXyXyXyXyXyXyXyXyXyXyXyXyXyXyXyXyXyXyXyXyXyXyXyXyXyXyXyXyX",
"yXyXyXyXyXyXyXyXyXyXyXyXyXyXyXyXyXyXyXyXyXyXyXyXyXyXyXyXyXyXyXyXyXyXyXyXyXyXyXyXyXyXyXyXyXyXyXyXyXyX",
"yXyXyXyXyXyXyXyXyXyXyXyXyXyXyXyXyXyXyXyXyXyXyXyXyXyXyXyXyXyXyXyXyXyXyXyXyXyXyXyXyXyXyXyXyXyXyXyXyXyX"
};
