/* XPM */
static char *_045bf723ce04888b8ca4b6d86c115b5cS37ze7HMVAXRfXZ[] = {
/* columns rows colors chars-per-pixel */
"50 50 227 2 ",
"   c #010102",
".  c #0B0A0D",
"X  c #09070C",
"o  c #110E13",
"O  c #131114",
"+  c #161319",
"@  c #1A161C",
"#  c #1D191E",
"$  c #0E0B12",
"%  c #1E1A21",
"&  c #231E23",
"*  c #2B252D",
"=  c #27232A",
"-  c #2D2934",
";  c #312C32",
":  c #362E3A",
">  c #3B333C",
",  c #37313F",
"<  c #41363F",
"1  c #3F3741",
"2  c #433946",
"3  c #4A3F50",
"4  c #4D434E",
"5  c #514552",
"6  c #514953",
"7  c #564C5B",
"8  c #61515E",
"9  c #5D5262",
"0  c #635563",
"q  c #655B6D",
"w  c #6C5D6D",
"e  c #61556B",
"r  c #6B5E73",
"t  c #705F71",
"y  c #6D616E",
"u  c #70626F",
"i  c #6C6272",
"p  c #726475",
"a  c #7A6C7E",
"s  c #766978",
"d  c #7E7185",
"f  c #797898",
"g  c #7A698C",
"h  c #836C84",
"j  c #827385",
"k  c #857489",
"l  c #8A7A8C",
"z  c #89778E",
"x  c #8B7B95",
"c  c #897595",
"v  c #967C98",
"b  c #9379A6",
"n  c #8A8497",
"m  c #948396",
"M  c #94849A",
"N  c #9B859C",
"B  c #998A9D",
"V  c #8C8CAA",
"C  c #9887A7",
"Z  c #9E91AC",
"A  c #9898AC",
"S  c #8D8CB5",
"D  c #9E89B1",
"F  c #9B97B8",
"G  c #A38DAD",
"H  c #AA8CAB",
"J  c #A38AA4",
"K  c #A292A5",
"L  c #A494AB",
"P  c #A996AC",
"I  c #A798AB",
"U  c #AC8CB3",
"Y  c #A78AB5",
"T  c #B38CB9",
"R  c #B38BB6",
"E  c #A493B3",
"W  c #AC94B3",
"Q  c #AC9AB3",
"!  c #A496BA",
"~  c #AD94BB",
"^  c #A49ABC",
"/  c #AC9ABA",
"(  c #B295B3",
")  c #B994B7",
"_  c #B39BB4",
"`  c #B395BB",
"'  c #B59BBC",
"]  c #BA9DBB",
"[  c #BB96B8",
"{  c #9FA0B4",
"}  c #ABA4BD",
"|  c #ADABBD",
" . c #A8A5B5",
".. c #B5A3BB",
"X. c #BAA3BD",
"o. c #BCAABD",
"O. c #BBA0B3",
"+. c #C59EBD",
"@. c #C4A3BC",
"#. c #9E9EC0",
"$. c #A39AC2",
"%. c #AC9DC2",
"&. c #B69BC2",
"*. c #BA9DC4",
"=. c #B296C5",
"-. c #ACA3C1",
";. c #ABA0C9",
":. c #A9A5C6",
">. c #B5A4C3",
",. c #BCA3C4",
"<. c #B1ABC6",
"1. c #BDABC3",
"2. c #BDA4CA",
"3. c #B5ABCC",
"4. c #BCACCC",
"5. c #B4A5C8",
"6. c #B3B3C5",
"7. c #BDBCCC",
"8. c #B8B6C8",
"9. c #BDA7D1",
"0. c #BBB3D6",
"q. c #BCBAD0",
"w. c #BBB5D9",
"e. c #BBB9DA",
"r. c #AFB1CA",
"t. c #C19FC2",
"y. c #C2A5C4",
"u. c #C2ACC5",
"i. c #CCABC4",
"p. c #C2A6CC",
"a. c #C4ABCB",
"s. c #CBAECC",
"d. c #C8A4C0",
"f. c #D0AFCE",
"g. c #C4B2C4",
"h. c #C5B3CC",
"j. c #CBB3CD",
"k. c #C3BBCB",
"l. c #CCBDCE",
"z. c #C9B1C7",
"x. c #D4B4CC",
"c. c #DCB8CC",
"v. c #C6ACD1",
"b. c #CBADD5",
"n. c #C4B3D3",
"m. c #CBB3D3",
"M. c #C3BCD2",
"N. c #CCBAD4",
"B. c #CBB3D9",
"V. c #CCBADB",
"C. c #C3B9DA",
"Z. c #D2B5D5",
"A. c #D2BCD4",
"S. c #D3BCDB",
"D. c #DABDDD",
"F. c #D8B7D7",
"G. c #D3BCE3",
"H. c #D9BEE1",
"J. c #C3C2CE",
"K. c #C4C3D4",
"L. c #CDC5D3",
"P. c #CCC4DB",
"I. c #CDCCDB",
"U. c #C6C1DD",
"Y. c #D4C3DC",
"T. c #DAC2DB",
"R. c #D2CEDD",
"E. c #DBCBDD",
"W. c #D4C6D5",
"Q. c #D4D3DD",
"!. c #D1D2D7",
"~. c #E2C1D5",
"^. c #E2C5DE",
"/. c #E5D8DB",
"(. c #CCCAE6",
"). c #C8C6E5",
"_. c #D5C2E4",
"`. c #DCC5E2",
"'. c #D4CCE3",
"]. c #DCCAE3",
"[. c #D4CFEA",
"{. c #DACEEC",
"}. c #D3D2E4",
"|. c #DCD4E4",
" X c #D4D4EC",
".X c #DDD4EB",
"XX c #DBDAEC",
"oX c #DDDAE4",
"OX c #DCC0F0",
"+X c #DEDCF2",
"@X c #DAD6F3",
"#X c #E2C4E3",
"$X c #E2CCE5",
"%X c #E5CAE8",
"&X c #E4D0E6",
"*X c #ECDCE5",
"=X c #E3D3EC",
"-X c #ECD1EC",
";X c #E3DCEC",
":X c #E8D9E5",
">X c #E3DDF5",
",X c #E9DEF3",
"<X c #EADBFD",
"1X c #E5D6F7",
"2X c #F9DDF9",
"3X c #EBCCF3",
"4X c #E7E4EA",
"5X c #F8E9EC",
"6X c #E5E4F4",
"7X c #E9E4F5",
"8X c #ECEBF3",
"9X c #EEEBFC",
"0X c #E8E4FA",
"qX c #F3EEF5",
"wX c #F4E5FE",
"eX c #F3EDFE",
"rX c #FAEDFE",
"tX c #FEE7F7",
"yX c #EFF0FF",
"uX c #F5F5F5",
"iX c #F9F2F6",
"pX c #F5F4F9",
"aX c #F5F5FA",
"sX c #F5F2FF",
"dX c #F4F4FD",
"fX c #F5F4FB",
"gX c #F9F2FB",
/* pixels */
"uXuXuXuXuXuXuXaXuXuXuXuXuXuXuXuXuXuXuXuXuXuXuXuXuXuXuXuXuXuXuXuXuXuXuXuXuXuXuXuXuXuXuXuXuXuXuXuXuXuX",
"uXuXuXuXuXuXaXuXuXuXuXuXuXuXuXuXuXuXuXuXuXuXuXuXuXuXuXuXuXuXuXuXuXuXuXuXuXuXuXuXuXuXuXuXuXuXuXuXuXuX",
"uXuXuXuXuXuXuXuXuXuXuXuXuXuXuXuXuXuXuXuXuXuXuXuXuXuXuXuXuXuXuXuXuXuXuXuXuXuXuXuXuXuXuXuXuXuXuXuXuXuX",
"uXuXuXuXuXuXuXuXuXuXuXuXuXuXuXuXuXuXuXuXuXuXuXuXuXuXaXuXuXuXuXuXuXuXuXuXuXuXuXuXuXuXuXuXuXuXuXuXuXuX",
"uXuXuXuXuXuXuXuXuXuXuXuXuXaXaXaX8XuXuXiXuXuXuX8XaXdXfXdXaXaXuXuXfXuXuXuXuXuXuXuXiXuXuXuXuXuXuX5XuXuX",
"uXuXuXuXuXuXuXuXuXuXuXuXaXaXdX| 4XuXuXuXuXuX9XsX9XQ.I.|.4XsXsXdXdXyXdXdXdXfXfXuXuXuXuXuXuXuXqX8XuXuX",
"uXuXuXuXuXuXuXuXuXuXuXuXaXaXo.4XuX*X4XiXiX4XY.<.^ 4.C.4.5.$.! ^ :.r.U. XdXdXdXaXuXuXuXaXuXuXuXuXuXuX",
"uXuXuXuXuXuXuXuXuXuXaXaXaXJ.;XrX/.5XiX/.k.o.>.3.4.C.9.5.%.$.$.%.w.e.#.f f V I.dXaXuXaXuXuXuXuXuXuXuX",
"uXuXuXuXuXuXuXuXuXuXaXaXQ.oXiX/.5X5XW.z.s.&.N.`.;X;X.X=X}.}..X'.=XXX7XdX}.6.n e.aXuXuXuXuXuXuXuXuXuX",
"uXuXuXuXuXuXuXuXuXaXqXL.Q.iX/.5X*Xg.X.H ' `.=X%XY.Y.A.S.Y.`.&XY.h.J.L.|.0XsXsX}.fXuXuXuXuXuXuXuXuXuX",
"aXuXuXuXuXuXuXuXuXuXJ.I.rX*XtX:Xi.,.Q V._.V.v.*.U T T T ) p.s.D.=XC.V.-.3.C.>XsXaXuXuXuXuXuXuXuXuXuX",
"uXuXuXuXuXuXuXuXaX;XM.;X:X/.E.y._ ,._.B.1.*.&.U T T T T R [ ) ) _ N._.{.M.} -.7.6XdXfXuXuXuXuXuXuXuX",
"uXuXuXuXuXuXuXaXdXK.E.D.&Xj.~ C n.D.n.a.t.` [ F.Z.j.s.y.y.s.) +.i.i.P p.{.>X$.S #.).dXdXuXuXuXuXuXuX",
"uXuXuXuXuXuXuXaXXXM.O.-XD.c ~ 2.V.2.m.*.t.d.f.y.x.D.T.T.A.y.i.d.c.c.x.] G V.sXw.S S r.9XfXuXfXuXuXuX",
"uXuXuXuXuXuXuXaXU.3.y.-XY =.T G.,.S.t.X.@.s.] _ W P W _ ..j.b.j.d.x.~.c.b.G 9.9X).#.F r.6XfXaXaXuXuX",
"uXuXuXuXuXuXuXaX%.E %Xs.b Y G.&.Z.p.y.y._ N v v v l v M L P a.Y.L.@.z.~.D.B.E 3.9X(.e.r.6.6XaXuXuXuX",
"uXuXuXuXuXuXiX;X%.2.-XN ~ B.2.a.v.,.y.J k j j s p u y a k B L / E.L.s.X.T.T.s.E 3.eXC.@X6.;XaXaXuXuX",
"uXuXuXuXuXuXpX|.h.2.H.~ Y G.&.m.] ( v h s w 5 < < > 2 4 7 r k L Q N.A.u.y.T.Z.Z.D C.dX}.6XI.aXuXuXuX",
"uXuXuXuXuXgXiXk.S.m.S.Y 2.2.a.*.U J a t 7 < * & # % = ; < 6 q j L ..M.N.a.,.T.p.9.! '.sXfX8XaXuXuXuX",
"uXuXuXuXuXuXiXW.j.#X2.=.B.~ a.' J h 0 4 ; # O o . . . O # ; 4 w k L 1._.B.1.s.Z.v.D E eXdXuXuXuXuXuX",
"uXuXuXuXuXuXiXL.1.#X=.*.2.2.>.W N w 4 ; + . .         X . @ * 6 s M _ k.`.h.*.a.B.G.b 9.eXsXuXuXuXuX",
"uXuXuXuXuXqXiXu.X.S.*.` b.,.&.C l 8 < # o               X . # > 0 l Q >.Y.m.,.B.a.B.=.g eXsXuXuXuXuX",
"uXuXuXiXiXW.iXg.t.Z.p.=.G.' ' c a 3 * O                   X O * 4 a L ..N.E.,.b.=.*.H.b M.sXaXuXuXuX",
"uXuXuXaXiXL.E.A.a.H.*.p.`.' W c t < & .                   . . & 2 w K ..l.`.p.b.*.Y 3X5.V sXaXuXuXuX",
"uXaXaXaXaXW.g.E.] #Xy.Z.v.*.~ z 0 : # X                     X # < u m o.g.E.m.p.b.U 4.<XV yXaXuXuXuX",
"uXuXuXQ.sXR.E.z.] `.] m.2.&.G x t < @ X                     X # < y B O.1.S.m.p.F.R / sXr.}.fXuXuXuX",
"uXuXaXQ.6X7Xk.S.y.Z.] m.G./ G M t 2 & X X                   . & 4 s N 1.h.A.m.T 3Xv E rX X6.aXuXuXuX",
"uXaXaXqX| sXK./ Z.y.s.m._.E E C t 3 = o                     o * 4 j K g.h.A.Z.U 2Xv C wX9Xk.uXuXuXuX",
"uXuXuXsXA eX.XL S.] m.y.`.a.^ C h 9 : @ X               X . # > 8 l ..l.y.A.f.H tXJ C <XdXQ.uXuXuXuX",
"uXuXuXpXoX<.eXN.( m.b.] T.].E ! b r 3 * + X X           . O * 6 s B o.L.y.f.F.+.tX[ H wXuX8XuXuXuXuX",
"uXuXuXpXsX .9X,XP #Xs.j.] $XV.L Z c e 2 - % $ . . . . O + * 4 y m I Y.u.j.] x.i.tXO.*.rXuXuX8XuXuXuX",
"iXuXuXuXsX8X .rXA.X.T.Z.] y.].4.E Z g e 1 - = % % # # = ; 6 y n K h.]...A.] x.c.:Xi.W rXuXuXuXuXuXuX",
"uXuXuXuXuXdXI.q.wXu.,.%XZ.( j.%Xg.L Z x i 7 2 1 - - 1 4 8 s m Z o./.j.Z.s.i.i.D./.A.k.pXpXqXuXuXuXuX",
"uXuXuXuXuXaX9XM.>.].*.' F.Z.W 1.&XN.Q L B f d s i i i d j I I o.W.E.j.T.( ^.J 2X;XL.|.sXiXuXuXuXuXuX",
"uXuXuXuXuXuXqXK.3.4.a.&.` b.D.' X.D.^.j.o.I B m m B A I X. .u.L.$X1.E.@.@.~._ =XL.9X8XpXuXuXuXuXuXuX",
"uXuXuXuXuXaXaX8X<.0.B.&.*.~ *.b.i.[ z.j.A.A.i.@.1.k.1...,.z.W.$X1.`.s.H i.@.A.,Xk.dXaXuXuXuXuXuXuXuX",
"uXuXuXuXuXuXuXuX9X} 0._.p.>.*.=.p.Z.p.p.' ` ,.v.u.1.h.i.h.].E.u.`.a.J p.#XH '.I.4XaXuXuXuXuXuXuXuXuX",
"uXuXuXuXuXuXuXuXdX;X-.-.B.B.v.B.p.2.2.v.B.&.&.&.*.s.Z.#X$Xl.N.Y.1.Q 4.-X( ,.6X7.dXuXuXuXuXuXuXuXuXuX",
"uXuXuXuXuXuXuXuXaXaX7X7.$.b 9.G.B.D.`.B.n.B.S.Y.`._.D.j.j.E.j.2.V.>.%XY.P &X}.6XfXuXuXuXuXuXuXuXuXuX",
"uXuXuXuXuXuXuXuXuXaXpXsX@XC.! D / >.m.N.n.D.H.Y.h.j.T.a.m.n.N.4.^ {.7X1.Y.9XQ.fXaXuXuXuXuXuXuXuXuXuX",
"uXuXuXuXuXuXuXuXuXuXuXuXfXsX6X'.4.../ &.>.^ ! / 1.B.a.n.2./ / q.@XyXK.q.sXJ.aXuXaXuXuXuXuXuXuXuXuXuX",
"uXuXuXuXuXuXuXuXuXuXqX8X8X!.I.6XsXeX>X<X@X1X<X<X@Xn.^ / >.P.@X0X9X<.K.sX6.fXaXuXuXuXuXuXuXuXuXuXuXuX",
"uXuXuXuXuXuXuXuXuXuX8XuXuXaXfXK.| r.r.3.3.%.;.#.F $.).P.XX@X9X).A }.sX6.8XuXuXuXuXuXuXuXaXuXuXuXuXuX",
"uXuXuXuXuXuXuXuXuXuXuXuXuXuXuXfXsX9X Xe.C.w.;.e.[.[.(.+X7XI.{ 6.yXyX6.8XaXuXuXuXuXuXuXuXuXuXuXuXuXuX",
"uXuXuXuXuXuXuXuXuXuXuXuXuXuXaXpXdXdXdXdXyX+X}.I. X@X+Xq. .K.dXaXaXoXuXfXuXuXuXuXuXuXuXuXuXuXuXuXuXuX",
"uXuXuXuXuXuXuXuXuXuXuXuXuXuXuXuXaX!.7.7.7.}.8XdX9XK.} @XaXaXaXuXuXuXuXuXuXuXuXuXuXuXuXuXuXuXuXuXuXuX",
"uXuXuXuXuXuXuXuXuXuXuXuXuXuXuXuXuXaXaXaXaXfXuXdXdXaXdXaXuXuXuXuXuXuXuXuXuXuXuXuXuXuXuXuXuXuXuXuXuXuX",
"uXuXuXuXuXuXuXuXuXuXuXuXuXuXuXuXuXuXuXuXuXuXuXuXuXuXuXuXuXuXuXuXuXuXuXuXuXuXuXuXuXuXuXuXuXuXuXuXuXuX",
"uXuXuXuXuXuXuXuXuXuXuXuXuXuXuXuXuXuXuXuXuXuXuXuXuXuXuXuXuXuXuXuXuXuXuXuXuXuXuXuXuXuXuXuXuXuXuXuXuXuX",
"uXuXuXuXuXuXuXuXuXuXuXuXuXuXuXuXuXuXuXuXuXuXuXuXuXuXuXuXuXuXuXuXuXuXuXuXuXuXuXuXuXuXuXuXuXuXuXuXuXuX"
};
