/* XPM */
static char *ZXhpdA__[] = {
/* columns rows colors chars-per-pixel */
"50 50 229 2 ",
"   c #010102",
".  c #0B0A0D",
"X  c #09070C",
"o  c #110E13",
"O  c #131114",
"+  c #161319",
"@  c #1A161C",
"#  c #1D191E",
"$  c #0E0B12",
"%  c #1E1A21",
"&  c #231E23",
"*  c #2B252D",
"=  c #27232A",
"-  c #2D2934",
";  c #312C32",
":  c #342E3A",
">  c #3B2F39",
",  c #3B333C",
"<  c #37313F",
"1  c #41363F",
"2  c #3F3741",
"3  c #433946",
"4  c #4A3F50",
"5  c #4D434E",
"6  c #514552",
"7  c #514953",
"8  c #564C5B",
"9  c #61515E",
"0  c #5D5262",
"q  c #635563",
"w  c #655B6D",
"e  c #6C5D6D",
"r  c #61556B",
"t  c #6B5E73",
"y  c #705F71",
"u  c #6D616E",
"i  c #6C6272",
"p  c #726475",
"a  c #7A6C7E",
"s  c #766978",
"d  c #70626F",
"f  c #7E7185",
"g  c #797898",
"h  c #7A698C",
"j  c #836C83",
"k  c #827285",
"l  c #847489",
"z  c #8A7A8C",
"x  c #89778E",
"c  c #8B7B95",
"v  c #897595",
"b  c #9B7C9B",
"n  c #927C95",
"m  c #957AA8",
"M  c #8E79A2",
"N  c #8A8397",
"B  c #948396",
"V  c #94849A",
"C  c #9B859C",
"Z  c #998A9D",
"A  c #8C8CAA",
"S  c #9B83A3",
"D  c #9889A9",
"F  c #9E91AC",
"G  c #9898AC",
"H  c #8D8CB5",
"J  c #9E89B1",
"K  c #9B97B8",
"L  c #A38DAD",
"P  c #AA8CAB",
"I  c #A38AA4",
"U  c #A292A5",
"Y  c #A494AB",
"T  c #A996AC",
"R  c #A798AB",
"E  c #AC8CB3",
"W  c #A78AB5",
"Q  c #B38CB9",
"!  c #B38BB6",
"~  c #A493B3",
"^  c #AC94B3",
"/  c #AC9AB3",
"(  c #A496BA",
")  c #AD94BB",
"_  c #A49ABC",
"`  c #AC9ABA",
"'  c #B295B3",
"]  c #B994B7",
"[  c #B39BB4",
"{  c #B395BB",
"}  c #B59BBC",
"|  c #BA9DBB",
" . c #BB96B8",
".. c #9FA0B4",
"X. c #ABA4BD",
"o. c #ADABBD",
"O. c #A8A4B4",
"+. c #B5A3BB",
"@. c #BAA3BD",
"#. c #BCAABD",
"$. c #BBA0B3",
"%. c #C59EBD",
"&. c #C4A3BC",
"*. c #9E9EC0",
"=. c #A39AC2",
"-. c #AC9DC2",
";. c #B69BC2",
":. c #BA9DC4",
">. c #B296C5",
",. c #ABA0C9",
"<. c #AAA5C5",
"1. c #B5A4C3",
"2. c #BCA3C4",
"3. c #B1ABC6",
"4. c #BDABC3",
"5. c #BDA4CA",
"6. c #B5ABCC",
"7. c #BCACCC",
"8. c #B3A5C8",
"9. c #B1B2C6",
"0. c #B4B3C9",
"q. c #BDBCCC",
"w. c #BBB7C9",
"e. c #BDA7D1",
"r. c #BBB3D6",
"t. c #BCBAD0",
"y. c #BBB5D9",
"u. c #BBB9DA",
"i. c #AFB1CA",
"p. c #C19FC2",
"a. c #C2A5C4",
"s. c #C2ACC5",
"d. c #CBABC4",
"f. c #C2A6CB",
"g. c #C4ABCB",
"h. c #CBAECC",
"j. c #C8A4C0",
"k. c #C4B2C4",
"l. c #C5B3CC",
"z. c #CBB3CD",
"x. c #C3BBCB",
"c. c #CCBDCE",
"v. c #C9B1C7",
"b. c #D4B4CC",
"n. c #DCB8CC",
"m. c #C6ACD1",
"M. c #CBADD5",
"N. c #C4B3D3",
"B. c #CBB3D3",
"V. c #C2BBD3",
"C. c #CCBAD4",
"Z. c #CBB3D9",
"A. c #CCBADA",
"S. c #C3B9DA",
"D. c #D2B5D5",
"F. c #D2BCD4",
"G. c #D3BCDB",
"H. c #DABDDD",
"J. c #D8B7D7",
"K. c #D0AFCE",
"L. c #D3BCE3",
"P. c #D9BEE1",
"I. c #C4C3D4",
"U. c #CDC4D3",
"Y. c #CCC3DB",
"T. c #CDCCDB",
"R. c #C5C2DD",
"E. c #D4C2DC",
"W. c #DAC2DB",
"Q. c #D2CDDD",
"!. c #DBCBDD",
"~. c #D4C4D5",
"^. c #D3D2DD",
"/. c #C1C0CE",
"(. c #E2C1D5",
"). c #E2C5DE",
"_. c #E5D8DB",
"`. c #CCCAE6",
"'. c #C8C6E5",
"]. c #D5C2E4",
"[. c #DCC5E2",
"{. c #D4CCE3",
"}. c #DCCAE3",
"|. c #D4CFEA",
" X c #DACEEC",
".X c #D3D1E4",
"XX c #DBD4E4",
"oX c #D4D4EC",
"OX c #DDD4EB",
"+X c #DCDBED",
"@X c #DEDCF3",
"#X c #DAD6F3",
"$X c #DCC0F0",
"%X c #E2C3E3",
"&X c #E2CCE5",
"*X c #E5CAE8",
"=X c #E4D0E6",
"-X c #ECDCE5",
";X c #E3D3EC",
":X c #ECD1EC",
">X c #E5DBEE",
",X c #EBD7E5",
"<X c #E3DDF5",
"1X c #E9DEF3",
"2X c #EADBFD",
"3X c #E5D6F7",
"4X c #F9DDF9",
"5X c #EBCCF3",
"6X c #E3E3EE",
"7X c #EEE4E4",
"8X c #F8E9EC",
"9X c #E5E4F4",
"0X c #E9E4F5",
"qX c #ECEBF4",
"wX c #EDEBFD",
"eX c #E8E4FA",
"rX c #F4EDF6",
"tX c #F4E5FE",
"yX c #F3EDFE",
"uX c #FAEDFE",
"iX c #FEE7F7",
"pX c #F5F2FF",
"aX c #F4F4FD",
"sX c #F4F3FD",
"dX c #F9F1FB",
"fX c #F8F1F6",
"gX c #EFF0FF",
"hX c None",
"jX c black",
/* pixels */
"hXhXhXhXhXhXhXhXjXjXjXjXjXjXjXjXjXjXjXjXhXhXhXhXhXhXhXhXhXhXhXhXhXhXhXhXhXhXhXhXhXhXhXhXhXhXhXhXhXhX",
"hXhXhXhXhXhXhXhXjXjXjXjXjXjXjXjXjXjXjXjXhXhXhXhXhXhXhXhXhXhXhXhXhXhXhXhXhXhXhXhXhXhXhXhXhXhXhXhXhXhX",
"hXhXhXhXhXhXhXhXjXjXjXjXjXjXjXjXjXjXjXjXhXhXhXhXhXhXhXhXhXhXhXhXhXhXhXhXhXhXhXhXhXhXhXhXhXhXhXhXhXhX",
"hXhXhXhXhXhXhXhXjXjXjXjXjXjXjXjXjXjXjXjXhXhXhXhXhXhXhXhXhXhXhXhXhXhXhXhXhXhXhXhXhXhXhXhXhXhXhXhXhXhX",
"hXhXhXhXhXhXhXhXjXjXjXjXjXjXjXjXjXjXhXhXhXhXhXhXhXhXhXhXhXhXhXhXhXhXhXhXhXhXhXhXhXhXhXhXhXhXhXhXhXhX",
"hXhXhXhXhXhXhXhXjXjXjXjXjXjXjXjXjXjXhXhXhXfXrXsXyX.XQ..X6XsXpXsXsXhXaXaXhXhXhXhXhXhXhXhXhXhXhXhXhXhX",
"hXhXhXhXhXhXhXhXjXjXjXjXjXjXjXjXjX7X7XfXrX9XY.8._ 7.S.7.8.=.( _ <.i.R.#XaXaXaXhXhXhXhXhXhXhXhXhXhXhX",
"hXhXhXhXhXhXhXhXjXjXjXjXjXjXjXdX_.8XfX,Xx.4.1.6.6.S.7.5.-.=.=.-.y.u.*.g g A T.aXhXhXhXhXhXhXhXhXhXhX",
"hXhXhXhXhXhXhXhXhXhXhXhXhXhXfX_.8X8X~.h.g.1.B.[.>X>XOXOX}..XOX{.;XOX0XsXoX9.N u.aXhXhXhXhXhXhXhXhXhX",
"hXhXhXhXhXhXhXhXhXhXhXhXhXuX_.8X-Xk.@.T } [.;X=XE.E.~.G.E.[.=XE.x./.U.XXeXsXsX{.rXhXhXhXhXhXhXhXhXhX",
"hXhXhXhXhXhXhXhXhXhXhXhXrX-XrX,Xd.@.` B.[.A.m.p.E Q Q Q Q f.h.G.;XC.S.X.3.V.<XsXaXhXhXhXhXhXhXhXhXhX",
"hXhXhXhXhXhXhXhXhXhXhX>X-X_.W.g.[ 5.].C.5.;.>.E Q ! Q ! !  .]  .} C.]. XV.<.<.q.0XaXhXhXhXhXhXhXhXhX",
"hXhXhXhXhXhXhXhXhXhX).W.,Xh.^ S N.L.B.g.a.{  .J.D.B.g.a.d.h.] %.d.d.P g. X<X=.A K `.gXjXhXhXhXhXhXhX",
"hXhXhXhXhXhXhXhXhXhX[ :XP.v >.5.G.2.B.:.p.j.K.a.b.H.W.W.F.a.d.j.n.n.b.| ~ A.yXy.H H i.gXaXhXhXhXhXhX",
"hXhXhXhXhXhXhXhXhX8.a.:XW >.W L.5.D.| a.&.z.| ] ^ T ' [ +.z.M.z.&.b.(.n.M.L r.yX'.*.K i.9XaXhXhXhXhX",
"hXhXhXhXhXhXhXhXhX~ =Xh.m W L.:.Z.f.a.a. .C z n n n B n Y / s.E.F.s.d.(.H.C.J 6.wX`.u.y.0.6XhXhXhXhX",
"jXjXjXjXjXjXjXjX-.5.:XS ^ Z.5.g.h.2.a.I k j k s p d u a l Z Y ` Q.F.v.@.~.W.B.E 6.yXR.oX0.6XaXhXhXhX",
"jXjXjXjXjXjXjXjXl.5.].' W L.;.B.} [ n j s e 7 1 1 , 3 5 8 u l Y / C.G.s.a.%XD.B.J V.sX.X9XT.fXhXhXhX",
"jXjXjXjXjXjXjXx.F.B.L.W 5.5.g.:.' C a y 8 1 * = # % = ; 1 7 w f Y +.V.C.s.4.H.f.f.( |.sXhXhXhXhXhXhX",
"jXjXjXjXjXjXjX~.z.*X5.>.Z.) N.` I j q 6 ; # O o . . . O # ; 5 e l T 4.E.B.5.h.D.m.J ~ yXdXhXhXhXhXhX",
"jXjXjXjXhXhXdXU.2.*X>.;.7.5.:.^ b e 5 * @ . .         X . @ * 7 s B } V.].l.:.g.M.L.m e.yXjXhXhXhXhX",
"jXjXjXjXhXhXdXs.@.J.:.) M.2.;.S z 9 1 # o               X . % , q z / +.E.B.5.M.5.L.>.h yXjXhXhXhXhX",
"jXjXjXjXhXhXfXk.a.D.f.>.G.;.{ v a 4 * O                   X O * 6 a Y +.~.E.2.M.>.:.P.m V.aXhXhXhXhX",
"jXjXjXjXhXU.!.F.f.H.:.f.[.} ^ v y 3 & .                   . . & 1 e U +.c.}.f.M.:.W 5X,.A pXhXhXhXhX",
"jXjXjXjXjXQ.k.W. .%Xa.B.m.:.) x q > # X                     X # 1 d Z +.k.!.M.g.M.E g.2XA aXjXjXhXhX",
"jXjXjXjXjX!.!.v.| ).2.M.5.1.~ c y 1 @ X                     X # 1 d Z $.s.F.B.a.J.' _ yX0..XaXjXhXhX",
"jXjXjXjX6X0Xx.E.s.D.| B.G.` L n y 3 & X X                   . & 3 s C #.l.G.B.{ 5Xb ~ uXoX0.jXjXhXhX",
"jXjXjXjXo.aXV.` D.a.g.M.P.( ~ D y 4 = o                     o * 6 k U l.l.F.D.E 4Xb D tXwXq.jXjXhXhX",
"hXhXhXhXG yX;XY C.:.B.a.[.l._ D j 0 : + X               X . # , q z +.c.@.J.J.P iXI m 2XhX^.jXjXhXhX",
"hXhXhXhXjX0.yXC.' M.h.&.E.}.~ ~ m t 4 * + X X           . O * 7 s Z #.c.s.h.J.] iX] P tXhXqXjXjXhXhX",
"hXhXhXhXhXO.qX1XT %Xh.z.| %XA.~ F v r 3 - % $ . . . . O + * 5 u B R E.s.h.| K.b.8X[ 2.uXhXhXhXhXhXhX",
"hXhXhXhXhXqXO.uXF.@.).D.| s.}.7.~ F h r 2 - = % % # # = ; 7 u N U x.}.+.J.| n.n.,Xk.[ uXhXhXhXhXhXhX",
"hXhXhXhXhXhXQ.l.tXs.2.*XJ.' z.*Xk.Y F N t 8 2 2 : : 2 5 9 p B U #.=Xc.F.h.j.d.(.&X~.x.pXhXhXhXhXhXhX",
"hXhXhXhXhXhXwXV.1.}.:.{ J.D.^ a.=XF./ F D l f s i w i f l R R #.~.!.v.W.] (.P 1X>XU.XXaXhXhXhXhXhXhX",
"hXhXhXhXhXhXhXI.6.7.g.;.{ Z.J.} | H.).z.#.R Z B B Z G U @.O.#.~.&X4.W.&.%.(.[ >XU.wXqXhXhXhXhXhXhXhX",
"hXhXhXhXhXhXhXhX3.y.S.;.5.) :.M.h.[ v.b.F.F.k.&.4.x.4.+.4.v.E.=X4.[.z.P d.&.F.1Xx.aXhXhXhXhXhXhXhXhX",
"hXhXhXhXhXhXhXhXwXX.N.].f.5.:.>.f.M.f.f.{ { 2.B.g.a.l.s.z.%XW.4.!.g.D g.%XP {.T.6XaXhXhXhXhXhXhXhXhX",
"hXhXhXhXhXhXhXhXhX+Xo.<.N.M.m.Z.f.f.f.m.Z.8.{ ;.:.l.B.*X*Xc.C.].5.[ g.:X' &.9Xq.aXhXhXhXhXhXhXhXhXhX",
"hXhXhXhXhXhXhXhXhXhX0Xt.( D e.L.Z.G.[.C.B.Z.A.].[.W.H.z.l.}.z.4.A.1.&XE.T ;X.X9XhXhXhXhXhXhXhXhXhXhX",
"hXhXhXhXhXhXhXhXhXhXhXyX#Xy.( J ` 1.B.B.N.E.G.E.l.z.W.g.B.l.C.7._ |.0X4.Y.tX^.hXhXhXhXhXhXhXhXhXhXhX",
"hXhXhXhXhXhXhXhXhXhXhXhXsXsX<X{.t.+.` -.1.( ( ` 7.N.g.B.1.` _ V.@XsXI.q.sX/.hXhXhXhXhXhXhXhXhXhXhXhX",
"hXhXhXhXhXhXhXhXhXhXhXhXhX^.T.0XsXwX3X2X3X3X2X2X3XN.( ` 1.E.#XeXwX<.I.gXw.hXhXhXhXhXhXhXhXhXhXhXhXhX",
"hXhXhXhXhXhXhXhXhXhXhXhXhXhXaXI.o.9.6.6.6.-.,.=.K _ `.R.OX@XwX`.G .XsX0.hXhXhXhXhXhXhXhXhXhXhXhXhXhX",
"hXhXhXhXhXhXhXhXhXhXhXhXhXhXhXhXgXwX|.R.u.r.6.y.`.|.`.@X9XT.G 9.wXgXw.hXhXhXhXhXhXhXhXhXhXhXhXhXhXhX",
"hXhXhXhXhXhXhXhXhXhXhXhXhXhXhXhXjXaXaXaXwX@X.X.XoX#X@Xt.O.I.aXaXhXhXhXhXhXhXhXhXhXhXhXhXhXhXhXhXhXhX",
"hXhXhXhXhXhXhXhXhXhXhXhXhXhXhXhXjXjX/.q./..XqXaXwXI.o.#XaXaXhXhXhXhXhXhXhXhXhXhXhXhXhXhXhXhXhXhXhXhX",
"hXhXhXhXhXhXhXhXhXhXhXhXhXhXhXhXjXjXjXjXaXfXjXjXjXaXgXjXhXhXhXhXhXhXhXhXhXhXhXhXhXhXhXhXhXhXhXhXhXhX",
"hXhXhXhXhXhXhXhXhXhXhXhXhXhXhXhXjXjXjXjXjXjXjXjXjXjXjXjXhXhXhXhXhXhXhXhXhXhXhXhXhXhXhXhXhXhXhXhXhXhX",
"hXhXhXhXhXhXhXhXhXhXhXhXhXhXhXhXhXhXhXhXhXhXhXhXhXhXhXhXhXhXhXhXhXhXhXhXhXhXhXhXhXhXhXhXhXhXhXhXhXhX",
"hXhXhXhXhXhXhXhXhXhXhXhXhXhXhXhXhXhXhXhXhXhXhXhXhXhXhXhXhXhXhXhXhXhXhXhXhXhXhXhXhXhXhXhXhXhXhXhXhXhX"
};
