/* XPM */
static char *ZnVzZWU_[] = {
/* columns rows colors chars-per-pixel */
"30 50 215 2 ",
"   c #1A1C24",
".  c #1C1F28",
"X  c #1E2128",
"o  c #25262D",
"O  c #2A2C34",
"+  c #2D3038",
"@  c #32343D",
"#  c #3E393F",
"$  c #6E2C18",
"%  c #74271C",
"&  c #72281E",
"*  c #762818",
"=  c #68321A",
"-  c #5E2F29",
";  c #40363E",
":  c #5D322E",
">  c #652C25",
",  c #6B2B22",
"<  c #602F2A",
"1  c #732C21",
"2  c #66332D",
"3  c #673732",
"4  c #7A382C",
"5  c #7A5E0D",
"6  c #724D18",
"7  c #775D14",
"8  c #724409",
"9  c #5B5E3F",
"0  c #6E5F26",
"q  c #6F4C34",
"w  c #70692F",
"e  c #393B42",
"r  c #153F65",
"t  c #443D44",
"y  c #3E4149",
"u  c #15466B",
"i  c #144971",
"p  c #064A7D",
"a  c #2A5071",
"s  c #3F6A7D",
"d  c #43434B",
"f  c #474A53",
"g  c #484B53",
"h  c #4D5056",
"j  c #524E55",
"k  c #754A47",
"l  c #7C5755",
"z  c #50665A",
"x  c #746A46",
"c  c #6F6E54",
"v  c #5C5D64",
"b  c #405E68",
"n  c #605B61",
"m  c #4C6A68",
"M  c #666969",
"N  c #7D7377",
"B  c #842F1C",
"V  c #8A3224",
"C  c #8E3A2C",
"Z  c #A43E2C",
"A  c #AA3C28",
"S  c #AE3B26",
"D  c #B53921",
"F  c #BA3D26",
"G  c #AC3E19",
"H  c #9E5914",
"J  c #895315",
"K  c #A34819",
"L  c #9A7A1F",
"P  c #9C4228",
"I  c #9D4031",
"U  c #93453A",
"Y  c #8B483F",
"T  c #A04030",
"R  c #927B2E",
"E  c #C8462F",
"W  c #F35E3C",
"Q  c #FE593A",
"!  c #DB6B3C",
"~  c #D67629",
"^  c #EC623C",
"/  c #E6653B",
"(  c #EB6A2D",
")  c #885C56",
"_  c #8C4E46",
"`  c #8C7354",
"'  c #B86857",
"]  c #B26C54",
"[  c #946D6A",
"{  c #877577",
"}  c #977272",
"|  c #8E6967",
" . c #AC7E74",
".. c #B9756B",
"X. c #B95848",
"o. c #D45E48",
"O. c #EC5E45",
"+. c #F45D41",
"@. c #C6634E",
"#. c #DB6946",
"$. c #D6654C",
"%. c #C76A57",
"&. c #D26A53",
"*. c #C5765B",
"=. c #D4744C",
"-. c #E76447",
";. c #ED7453",
":. c #C47767",
">. c #CE7162",
",. c #6A816D",
"<. c #AE8D1D",
"1. c #AD8C23",
"2. c #AC8B2B",
"3. c #B58826",
"4. c #B38436",
"5. c #DF893C",
"6. c #EC922B",
"7. c #F4B235",
"8. c #FDCC3A",
"9. c #FFC33E",
"0. c #F6D13C",
"q. c #9C8A42",
"w. c #B7B555",
"e. c #949267",
"r. c #AC8977",
"t. c #9CA16B",
"y. c #A89A5C",
"u. c #D58247",
"i. c #CD845C",
"p. c #D5915F",
"a. c #F98B55",
"s. c #D78972",
"d. c #FB9A67",
"f. c #FA8C69",
"g. c #CAAC65",
"h. c #F7A577",
"j. c #F5CF47",
"k. c #FACB52",
"l. c #EDD158",
"z. c #F2D251",
"x. c #FFE556",
"c. c #E7D366",
"v. c #FFED68",
"b. c #FFF573",
"n. c #D0C573",
"m. c #0D568D",
"M. c #1C669B",
"N. c #3B718C",
"B. c #397DAB",
"V. c #3777A3",
"C. c #367EB3",
"Z. c #2A71A3",
"A. c #496C80",
"S. c #457999",
"D. c #4A778D",
"F. c #717E88",
"G. c #427BA1",
"H. c #897E84",
"J. c #2B84B9",
"K. c #2984B9",
"L. c #3281B3",
"P. c #3680AF",
"I. c #4C9097",
"U. c #5D93B6",
"Y. c #5EA1BC",
"T. c #61A2B6",
"R. c #7A9CB5",
"E. c #3796CA",
"W. c #2D92C8",
"Q. c #679EC3",
"!. c #75ACD1",
"~. c #53BDEF",
"^. c #56B6E9",
"/. c #53BCF1",
"(. c #4BAEE5",
"). c #958889",
"_. c #959294",
"`. c #AD8885",
"'. c #B58A85",
"]. c #A9978B",
"[. c #B69286",
"{. c #A58E92",
"}. c #A29393",
"|. c #A89698",
" X c #B59695",
".X c #89A4BA",
"XX c #A8B3B7",
"oX c #C39A97",
"OX c #D39583",
"+X c #FEBA87",
"@X c #D3B6B2",
"#X c #D5A78D",
"$X c #FFCB95",
"%X c #FFD19D",
"&X c #FFF987",
"*X c #FFDDA2",
"=X c #FFDAB5",
"-X c #E9CBAF",
";X c #FFE3A5",
":X c #FFEAA6",
">X c #FFEEA8",
",X c #FFE6AD",
"<X c #FFF0AC",
"1X c #FFEDB8",
"2X c #8DB8D5",
"3X c #A2BED3",
"4X c #9FCBE6",
"5X c #A9CDE9",
"6X c #B0C9DD",
"7X c #FFFDD9",
"8X c #CFEEFF",
"9X c #FFFEEE",
"0X c #E9EEF5",
"qX c #FAFBFF",
"wX c None",
/* pixels */
"wXwXwXwXwXwXwXwXwXwXwXwXwXwXwXwXwXwXwXwXwXwXwXwXwXwXwXwXwXwX",
"wXwXwXwXwXwXwXwXwXwXwXwXwXwX:.' wXwXwXwXwXwXwXwXwXwXwXwXwXwX",
"wXwXwXwXwXwXwXwXwXwXwXwXwX>.&.o._ wXwXwXwXwXwXwXwXwXwXwXwXwX",
"wXwXwXwXwXwXwXwXwXwXwXwXs.;.+.O.Z r.wXwXwXwXwXwXwXwXwXwXwXwX",
"wXwXwXwXwXwXwXwXwXwXwXwX$.-.Q +.F C wXwXwXwXwXwXwXwXwXwXwXwX",
"wXwXwXwXwXwXwXwXwXwXwX:.f.+.Q +.F I _ wXwXwXwXwXwXwXwXwXwXwX",
"wXwXwXwXwXwXwXwXwXwXwX&.f.W Q +.F Z 4 oXwXwXwXwXwXwXwXwXwXwX",
"wXwXwXwXwXwXwXwXwXwX@.+X;.W Q +.E Z C 4 wXwXwXwXwXwXwXwXwXwX",
"wXwXwXwXwXwXwXwXwXwX*.$X^ Q Q +.E A P & '.wXwXwXwXwXwXwXwXwX",
"wXwXwXwXwXwXwXwXwX] h.+X-.Q Q +.E D T V 2 wXwXwXwXwXwXwXwXwX",
"wXwXwXwXwXwXwXwXwX&.%Xd.+.Q +.O.E T Z V & `.wXwXwXwXwXwXwXwX",
"wXwXwXwXwXwXwXwX' f.,Xi.$.$.o.&.@.T I I & 2 wXwXwXwXwXwXwXwX",
"wXwXwXwXwXwXwXwX=.+X,X[ r.'.].`.`.} _ _ , >  XwXwXwXwXwXwXwX",
"wXwXwXwXwXwXwX..*.=X[.].N d e e f {  X[ 4 < k wXwXwXwXwXwXwX",
"wXwXwXwXwXwXwX%.s.[.).d o @ y @ o   t {.{ : 2 @XwXwXwXwXwXwX",
"wXwXwXwXwXwXwX%.r.}.; @ j v g g g @   # |.l 2 [ wXwXwXwXwXwX",
"wXwXwXwXwXwX@.%.'.v O h 0XqXM g g g O   v H.3 3 wXwXwXwXwXwX",
"wXwXwXwXwXwX%.@.{.+ d h 0XqXM g g g t   e |._ : @XwXwXwXwXwX",
"wXwXwXwXwXwX*.:.H.o g _.j v g g g g f   . H.| < { wXwXwXwXwX",
"wXwXwXwXwX' >...}   j F.g g g g g g f     H.| < : wXwXwXwXwX",
"wXwXwXwXwX%.:.OX).  y f g g g g g g e   . ).| < : -XwXwXwXwX",
"wXwXwXwXwX&.p.#X}.+ o f g g g g g g o   e }.) , > '.wXwXwXwX",
"wXwXwXwX>.-.h.-X].v   + t g g f f O     v |.3 , , ) wXwXwXwX",
"wXwXwXwXo.-.c.1X]._.#   . O e O .     t _.[ 2 , 1 3 wXwXwXwX",
"wXwXwXwX$.-.$X<X,X].).y X X       . t {.H._ 1 % 1 > wXwXwXwX",
"wXwXwXwX-.-.;X<X1Xr.`.|.N d ; t t H.|.H.U C 1 1 , > @XwXwXwX",
"wXwXwXwX#.;.:X>X,Xi.%.' r.oX X{.oXoX..U T T % % & >  XwXwXwX",
"wXwXwXOX#.;.:X>X;X=.-.-.&.' ....' @.T T Z F % % & , H.wXwXwX",
"wXwXwXs.#.a.;X>X;X=./ W O.O.O.O.O.O.S Z A Z B % & , [ wXwXwX",
"wXwXwX:.#.d.:X>X%X$.W Q +.Q Q Q +.+.D S A A B % & , ) wXwXwX",
"wXwXwX*.#.d.:X>X*X! Q Q Q Q Q Q Q +.D S A Z V % % $ k wXwXwX",
"wXwXwX*.! h.;X:X$X/ W Q Q Q Q Q Q +.D Z S A V % & > _ wXwXwX",
"wXwXwX] ! a.c.$X+X-.Q Q Q Q Q Q Q W D S S A V * * = q wXwXwX",
"wXwXwXp.5.( ~ ~ ~ ( ( ( ( W ^ W ^ / K K K P B $ * = q wXwXwX",
"wXwXwXg.k.j.7.7.7.6.6.6.5.u.*.*.=.u.H H H H J 8 6 6 x 9XwXwX",
"wXwXx g.z.x.x.x.j.8.8.j.g.` c c x g.2.5.3.4.L J 5 0 x M XX0X",
"5XwXwXt.l.b.&X&Xv.0.0.c.z T.T.I.I.z q.1.<.<.L 5 5 0 c h A.2X",
"2XwXz t.c.b.&X&Xv.0.0.w.I.~./.E.K.s w 1.<.<.L 5 7 0 z s I.Q.",
"wXwXm e.c.x.v.v.x.0.j.w.I.~./.E.K.I.w <.<.<.L 5 7 0 z s S.U.",
"wXwXN.,.n.l.l.l.j.0.x.w.I././.W.K.m ,.2.2.2.q.7 0 x s N.G.Q.",
"wXwXV.u z wXwXwXwXwXwXwXI.~.~.K.K.wXwXwXwXwXq.r.c b i Z.G.Q.",
"wXwXB.p wXwXwXwXwXwXwXwXwX^.(.K.K.wXwXwXwXwX7X9XF.u p C.G.2X",
"wXwXC.m.u wXwXwXwXwXwXwXwXE.W.K.C.N.wXwXwXwXwXwX2Xr m.C.V.4X",
"wXwXC.M.i wXwXwXwXwXwXwXwXL.K.K.B.U.wXwXwXwXwXwX4Xr m.C.N.8X",
"wXwXC.M.r wXwXwXwXwXwXwXwXwXJ.L.B.wXwXwXwXwXwXwXwXr M.C.S.0X",
"wXwXC.Z.a wXwXwXwXwXwXwXwXwXJ.L.G.wXwXwXwXwXwXwXwXa Z.B..XwX",
"wXwXV.B.wXwXwXwXwXwXwXwXwXwXL.L.S.wXwXwXwXwXwXwXwXD.B.V.6XwX",
"wXwXwXG.wXwXwXwXwXwXwXwXwXwXwXwXwXwXwXwXwXwXwXwXwX.XS.S.wXwX",
"wXwXwXA.wXwXwXwXwXwXwXwXwXwXwXwXwXwXwXwXwXwXwXwXwXwXA.3XwXwX",
"wXwXwXwXwXwXwXwXwXwXwXwXwXwXwXwXwXwXwXwXwXwXwXwXwXwXwXwXwXwX"
};
