/* XPM */
static char *_ff469acd22b41d7d8ec3237099605b2exPknLluivRYLNdH[] = {
/* columns rows colors chars-per-pixel */
"30 50 224 2 ",
"   c #1A1C24",
".  c #1C1F28",
"X  c #1E2128",
"o  c #25262D",
"O  c #2A2D34",
"+  c #2D3038",
"@  c #32343D",
"#  c #3E393F",
"$  c #74271C",
"%  c #72281E",
"&  c #762818",
"*  c #6C2E19",
"=  c #5E2F29",
"-  c #4E3436",
";  c #6B2B22",
":  c #652D25",
">  c #66332D",
",  c #673732",
"<  c #773226",
"1  c #7A5E0D",
"2  c #734D18",
"3  c #775D14",
"4  c #724409",
"5  c #5B5E3F",
"6  c #6F522F",
"7  c #70692F",
"8  c #393B43",
"9  c #153F65",
"0  c #443D44",
"q  c #3E4149",
"w  c #164569",
"e  c #0D4977",
"r  c #3F6A7D",
"t  c #2A5071",
"y  c #43434B",
"u  c #474A53",
"i  c #484B53",
"p  c #505153",
"a  c #784F4D",
"s  c #50665A",
"d  c #716D4F",
"f  c #5C5D64",
"g  c #405E68",
"h  c #605B61",
"j  c #4C6B6B",
"k  c #666969",
"l  c #7D7377",
"z  c #842F1C",
"x  c #8A3224",
"c  c #8E3A2C",
"v  c #A43E2C",
"b  c #AA3C28",
"n  c #AE3B26",
"m  c #B73A23",
"M  c #AC3E19",
"N  c #9E5914",
"B  c #895315",
"V  c #A34819",
"C  c #9A7A1F",
"Z  c #9A4234",
"A  c #964430",
"S  c #A04030",
"D  c #927B2E",
"F  c #C8462F",
"G  c #F35E3C",
"H  c #FE593A",
"J  c #DB6B3C",
"K  c #D67629",
"L  c #EA633C",
"P  c #EB6A2D",
"I  c #8B524A",
"U  c #897652",
"Y  c #B86857",
"T  c #B26C54",
"R  c #946D6A",
"E  c #977372",
"W  c #8A6F6F",
"Q  c #B5786E",
"!  c #B95848",
"~  c #D45E48",
"^  c #F45D41",
"/  c #EC5E45",
"(  c #C6634E",
")  c #DB6946",
"_  c #D6654C",
"`  c #C76A57",
"'  c #D26A53",
"]  c #C5765B",
"[  c #D4744C",
"{  c #E76447",
"}  c #ED7453",
"|  c #C57767",
" . c #CE7162",
".. c #6A816D",
"X. c #AE8D1D",
"o. c #AD8C25",
"O. c #B58826",
"+. c #A28436",
"@. c #B38436",
"#. c #DF893C",
"$. c #EC922B",
"%. c #F4B235",
"&. c #FDCA3B",
"*. c #F6D13C",
"=. c #92874E",
"-. c #B7B555",
";. c #959267",
":. c #AC8977",
">. c #B6B26F",
",. c #9F955C",
"<. c #D58247",
"1. c #CD845C",
"2. c #D5915F",
"3. c #F98B55",
"4. c #DAB858",
"5. c #D58773",
"6. c #FB9A67",
"7. c #FA8C69",
"8. c #CAAC65",
"9. c #F7A577",
"0. c #E7C858",
"q. c #FACB52",
"w. c #EDD158",
"e. c #F9D349",
"r. c #FFE656",
"t. c #D4C378",
"y. c #E7D366",
"u. c #FFED68",
"i. c #FFF573",
"p. c #0D568D",
"a. c #1D669B",
"s. c #3A6D8C",
"d. c #397587",
"f. c #3D7596",
"g. c #3A7DAB",
"h. c #3979A3",
"j. c #367EB3",
"k. c #2A71A3",
"l. c #496C80",
"z. c #47778B",
"x. c #467A99",
"c. c #507691",
"v. c #707D85",
"b. c #427BA2",
"n. c #897E84",
"m. c #2A84B9",
"M. c #3281B3",
"N. c #3680AF",
"B. c #4C9097",
"V. c #5A91B3",
"C. c #779AB3",
"Z. c #5EA1BC",
"A. c #61A2B6",
"S. c #3796CA",
"D. c #2D92C8",
"F. c #679EC3",
"G. c #76ABCF",
"H. c #53BDEF",
"J. c #56B6E9",
"K. c #53BCF1",
"L. c #4BAEE5",
"P. c #958889",
"I. c #959294",
"U. c #AD8885",
"Y. c #B58A85",
"T. c #A9978B",
"R. c #B69286",
"E. c #A58E92",
"W. c #A59596",
"Q. c #B59695",
"!. c #8AA4B9",
"~. c #A8B3B2",
"^. c #C39A97",
"/. c #D49785",
"(. c #EB9683",
"). c #D9A792",
"_. c #FEBA87",
"`. c #E6A595",
"'. c #D3B6B2",
"]. c #FAB9AC",
"[. c #E7B2AA",
"{. c #FFCB95",
"}. c #FFD19D",
"|. c #EED594",
" X c #FFF987",
".X c #FFE59E",
"XX c #C6CAA3",
"oX c #FFDDA2",
"OX c #E8C4BD",
"+X c #FFDAB5",
"@X c #F0CDAE",
"#X c #FFEAA6",
"$X c #FFEEA8",
"%X c #FEE4A8",
"&X c #FFF0AC",
"*X c #FFEDB8",
"=X c #FFF4B4",
"-X c #8DB8D6",
";X c #A2BED3",
":X c #80BAE0",
">X c #B4CADB",
",X c #98C8E8",
"<X c #AACEEA",
"1X c #FAD7CE",
"2X c #FFF9C9",
"3X c #FFE6DC",
"4X c #FFE4D6",
"5X c #FFF7D6",
"6X c #CFE1EF",
"7X c #D9EDFB",
"8X c #D7F5FF",
"9X c #C7EBFF",
"0X c #EBEBEC",
"qX c #FFEBE5",
"wX c #FFF4ED",
"eX c #FFFEED",
"rX c #FFFCE5",
"tX c #E8EEF5",
"yX c #E7FEFF",
"uX c #FFF6F2",
"iX c #FFFAF4",
"pX c #F4FFFF",
"aX c #FFFFFE",
"sX c #C0CDD6",
/* pixels */
"aXaXaXaXaXaXaXaXaXaXaXaXiXiX3X4XuXaXaXaXaXaXaXaXaXaXaXaXaX0X",
"aXaXaXaXaXaXaXaXaXaXaXaXuX1X| Y OXaXaXaXaXaXaXaXaXaXaXaXaX0X",
"aXaXaXaXaXaXaXaXaXaXaXiX4X .} ( I qXiXaXaXaXaXaXaXaXaXaXaX0X",
"aXaXaXaXaXaXaXaXaXaXaXuX5.{ / / v Q uXaXaXaXaXaXaXaXaXaXaX0X",
"aXaXaXaXaXaXaXaXaXaXiX@X_ { H ^ m c 1XtXaXaXaXaXaXaXaXaXaX0X",
"aXaXaXaXaXaXaXaXaXiXqX] 7.^ H ^ m Z I uXiXaXaXaXaXaXaXaXaX0X",
"aXaXaXaXaXaXaXaXaXiX`.' 7.G H ^ m v < ).iXaXaXaXaXaXaXaXaX0X",
"aXaXaXaXaXaXaXaXiX3X( _.} G H ^ F v c < qXaXaXaXaXaXaXaXaX0X",
"aXaXaXaXaXaXaXaXwX/.1.{./ H H ^ F b v % U.aXaXaXaXaXaXaXaX0X",
"aXaXaXaXaXaXaXiX1XT 9._.G H H ^ F n v x > 3XiXaXaXaXaXaXaX0X",
"aXaXaXaXaXaXaXuX5.' }.6.^ ^ ^ ^ F n v c % U.aXaXaXaXaXaXaX0X",
"aXaXaXaXaXaXiXqX` 7.+X1._ _ _ ( ! S v c $ > qXaXaXaXaXaXaX0X",
"aXaXaXaXaXaXiX).[ {.+XU :.U.E.U.U.E I I < ; Q.iXaXaXaXaXaX0X",
"aXaXaXaXaXiXwXY ] @XR.T.l u 8 8 i W Q.E , > a wXaXaXaXaXaX0X",
"aXaXaXaXaXiX].` /.:.E.q o 8 8 8 o   0 E.E - > '.iXaXaXaXaX0X",
"aXaXaXaXaXwX5.' :.T.- 8 p f i i u @   8 W.a > R iXaXaXaXaX0X",
"aXaXaXaXaXqX( ` U.f + i tXpXk i u i O   f n., , qXuXaXaXaX0X",
"aXaXaXaXuX[.' Y E.8 0 p tXpXk i i i 0   8 W.I = '.aXaXaXaX0X",
"aXaXaXiXwX| `  .n.o i I.h f i i i u i .   n.W = W uXaXaXaX0X",
"aXaXaXaXqXY ] | E   i v.i 0 i u i u u     n.R = = wXaXaXaX0X",
"aXaXaXiX@X' ] /.P.. 8 i u u u u i i 8   . P.W > = OXuXaXaX0X",
"aXaXaXuX(.[ 5.).E.+ O i u u u u i i o   8 W.I ; : Y.aXaXaX0X",
"aXaXaXwX .) 9.@XW.f   O u u u u u O     f W., ; ; I uXaXaX0X",
"aXaXaXwX( J 9.=XT.I.8   . O 8 O .     0 I.R : ; ; , uXaXaX0X",
"aXaXaX1X~ L {.=X@XT.I.u X           0 I.n.I ; % % : 3XaXaX0X",
"aXaXiX].{ { %X$X=X:.:.W.W i - # 0 n.W.U.Z c $ $ % : '.iXaX0X",
"aXaXuX`.) ) %X$X%X1.` ` Y.^.Q.Q.^.Y.Q Z S S $ $ % : Q.aXaX0X",
"aXiXuX/.) 3.#X$X%X[ _ { ` Y Y Q Y ` S S n S z $ % ; n.aXaX0X",
"aXiXwX5.) 3.#X$XoX[ L G ^ / / / / / b v b v z $ % : R iXiX0X",
"aXaXwX| ) 7.#X$XoXJ G H H H ^ H ^ ^ n n n v z $ % : I iXaX0X",
"aXiXwX] ) 6.#X$XoXJ H H H H H H ^ ^ m n b v x $ % ; a iXiX0X",
"aXiXrXY ) 6.#X#X{.~ G H H H H H H ^ m n b b x $ % ; , uXaX0X",
"aXiX5XT J 3.y.{.{.L H H H H H H H G m n b v x & & * 6 uXaX0X",
"aXiX2X2.#.K P K K P P P P G L L L { V M b V z * * * 6 uXaX0X",
"aXeX2X4.q.&.%.%.$.$.$.$.<.<.] 1.[ K N N N N B 4 2 2 a eXaXtX",
"pX~.d 8.w.r.r.r.e.&.&.e.8.U d d U 8.@.O.O.O.D B 3 3 d k ~.tX",
"<Xj s -.y.i. X Xu.*.*.y.k A.A.B.z.s =.X.X.o.C 1 3 7 d g l.;X",
"G.B.s ;.y.i. Xi.u.*.*.-.B.H.H.S.m.d.=.X.X.o.C 1 1 7 s r x.F.",
"G.b.j ;.y.r.u.u.r.*.*.-.B.H.H.S.m.d.7 o.X.o.C 1 1 7 s r B.V.",
"G.b.s.l t.0.w.w.e.*.e.>.B.H.K.D.D.d.=.O.o.o.+.3 3 p g d.b.F.",
":Xh.f.w s =.t.4.4.0.q.>.B.H.H.m.m.d.d +.+.+.=.,.k g w k.h.G.",
",Xg.j.p.w v.rX2X=X.X|.XXr L.L.m.j.d.XX|.%X2X5XeXv.9 p.j.b.-X",
"<Xb.j.p.w !.aXeXrXrXrXpXB.S.D.m.M.f.pXeXeXiXiXaX!.w p.j.x.,X",
"8Xf.j.p.9 <XpXaXpXaXaXpXV.m.m.m.g.V.pXaXaXaXaXpX,Xe p.j.s.9X",
"yXx.j.a.w 7XaXaXaXaXaXpXF.N.m.M.g.G.pXaXaXaXaXpX7X9 a.g.c.7X",
"pXC.N.k.t pXaXaXaXaXaXpX<Xf.M.M.f.<XpXaXaXaXaXpXpXt k.g.C.7X",
"pX>Xg.g.c.aXaXaXaXaXaXpXyXs.M.M.s.yXaXaXaXaXaXaXpXc.h.h.>XtX",
"aXpXx.b.!.pXaXaXaXaXaXaXpXC.g.g.C.pXaXaXaXaXaXaXpX!.x.x.yX0X",
"aXpX;Xl.>XaXaXaXaXaXaXaXaX7Xz.z.7XaXaXaXaXaXaXaXaX>Xj ;XaX0X",
"aXaXpX6XaXaXaXaXaXaXaXaXaXpX8X7XpXaXaXaXaXaXaXaXaXpX6XpXaX0X"
};
