/* XPM */
static char *_4e67d81ee034a4ebb1ebc0b2e94d75fISF1JF6pVxlul3mL[] = {
/* columns rows colors chars-per-pixel */
"50 50 158 2 ",
"   c #010001",
".  c #0B0200",
"X  c #04000A",
"o  c #120500",
"O  c #160A00",
"+  c #1A0B01",
"@  c #1D1102",
"#  c #220F01",
"$  c #231302",
"%  c #291603",
"&  c #271803",
"*  c #2C1B04",
"=  c #2F1C09",
"-  c #321F05",
";  c #362306",
":  c #36240B",
">  c #3A230A",
",  c #3E2A0A",
"<  c #442D0A",
"1  c #483505",
"2  c #4C350C",
"3  c #4E3B0D",
"4  c #4D3512",
"5  c #493910",
"6  c #523713",
"7  c #523C11",
"8  c #593F1A",
"9  c #524011",
"0  c #5F4419",
"q  c #68550E",
"w  c #6F5A0F",
"e  c #654316",
"r  c #675110",
"t  c #6A5516",
"y  c #7F5717",
"u  c #785D18",
"i  c #7E641A",
"p  c #7C5822",
"a  c #895D15",
"s  c #806716",
"d  c #866C17",
"f  c #81671D",
"g  c #846B1A",
"h  c #8D731A",
"j  c #917311",
"k  c #997013",
"l  c #937B16",
"z  c #93761C",
"x  c #825F21",
"c  c #846224",
"v  c #886F21",
"b  c #8E7024",
"n  c #9C7C28",
"m  c #9E8316",
"M  c #B7880C",
"N  c #BC900E",
"B  c #BE990C",
"V  c #AE8619",
"C  c #A48918",
"Z  c #B18A19",
"A  c #9E8326",
"S  c #A08525",
"D  c #A68E27",
"F  c #A58B2C",
"G  c #AD9127",
"H  c #AF962A",
"J  c #B29226",
"K  c #B5992C",
"L  c #BE992A",
"P  c #BBA030",
"I  c #C59912",
"U  c #D6AC09",
"Y  c #DAAE0C",
"T  c #D2A311",
"R  c #E2AF09",
"E  c #E5B701",
"W  c #E8B601",
"Q  c #E5B801",
"!  c #EBBB01",
"~  c #E4B60A",
"^  c #E3B90B",
"/  c #EAB809",
"(  c #F1BF02",
")  c #E5BC13",
"_  c #EABE14",
"`  c #C3A12D",
"'  c #CAAD2E",
"]  c #DEBB2D",
"[  c #C2A831",
"{  c #CAA933",
"}  c #CAAB3A",
"|  c #D2B432",
" . c #DDBE34",
".. c #E1BD2D",
"X. c #E4BF35",
"o. c #E4BC3A",
"O. c #EEC201",
"+. c #F3C303",
"@. c #FAC702",
"#. c #F4C903",
"$. c #FECC02",
"%. c #F6C60A",
"&. c #FAC70A",
"*. c #F6CC0C",
"=. c #FBCC0C",
"-. c #FDD005",
";. c #FDD00D",
":. c #E7C316",
">. c #ECC115",
",. c #ECC31C",
"<. c #EECA1F",
"1. c #F6CD13",
"2. c #FACC12",
"3. c #F4CB1B",
"4. c #FACD1A",
"5. c #F7D113",
"6. c #FBD116",
"7. c #F6D01B",
"8. c #FCD11C",
"9. c #EEC521",
"0. c #EEC924",
"q. c #E6C12D",
"w. c #EBC62C",
"e. c #EECA2B",
"r. c #F1C723",
"t. c #F3CB24",
"y. c #FCCF21",
"u. c #F3CB2C",
"i. c #F9CC2F",
"p. c #FDD224",
"a. c #F6D02F",
"s. c #FDD42A",
"d. c #FED82D",
"f. c #E4C233",
"g. c #EAC132",
"h. c #E5C831",
"j. c #F4CD3C",
"k. c #F6D030",
"l. c #FDD534",
"z. c #FFDA34",
"x. c #FDD63B",
"c. c #FED93A",
"v. c #FFDB3B",
"b. c #FFDA3C",
"n. c #FFD93E",
"m. c #FFDB3E",
"M. c #FFD747",
"N. c #FFDB40",
"B. c #FFDA42",
"V. c #FEDC41",
"C. c #FFDC43",
"Z. c #FEDA44",
"A. c #FFDB45",
"S. c #FFDA47",
"D. c #FEDD45",
"F. c #FFD848",
"G. c #FFDD4A",
"H. c #FFD94C",
/* pixels */
"                              . . # 6 p l I Y R @.$.&.R T Z x 8 & .                                 ",
"                          . + 5 G  .w.t.0.3.4.2.=.&.&.2.1.3.t.w...C 3 + .                           ",
"    X                 . O w { q.3.1.2.1.6.p.p.p.s.s.s.p.p.2.=.&.=.3.w.H - . X     X                 ",
"                    o 5 P e.1.=.2.8.s.z.z.v.n.n.N.n.N.n.n.n.d.s.8.2.1.t.o.v $ .                     ",
"                  # z h.1.=.4.y.l.N.F.H.H.F.A.D.N.A.D.F.D.F.G.G.v.z.p.1.4.3.{ 2 .                   ",
"              . & K t.6.1.p.v.D.D.D.H.H.F.F.m.n.n.n.n.F.N.N.D.D.G.A.C.z.4.*.4.] s o                 ",
"            . , { t.1.7.z.n.D.D.F.G.A.v.i.e.,.,.,.,._ r.r.u.x.D.A.A.G.A.z.p.1.2.u.z + . X           ",
"          . = | 3.=.p.n.N.A.D.D.n.u.) ^ ^ ^ / ~ ~ E W W R ~ ) _ k.C.C.C.A.A.l.4.&.t.S +     X       ",
"          $ } 3.=.p.C.x.G.N.C.e.) ~ E E E Q E E E E E Q E E E Y ^ 9.l.N.M.F.D.d.1.1.e.d O .         ",
"        + H <.2.8.n.A.D.C.l.:.Y E E E E Q Q Q E Q E E E E E Q Q Q R ) u.N.D.F.N.n.4.1.u.i .         ",
"      . i u.1.y.v.D.G.D.a.~ E E E E Q E Q Q E E Q Q Q Q E Q Q Q Q E E ~ ,.x.F.F.C.z.1.2.f.5 .       ",
"      7 q.3.8.n.N.A.N.l.^ ~ ~ E E E Q Q Q Q E E E E Q Q Q Q Q Q E E E Q R ,.l.A.D.D.d.1.4.} %       ",
"    o K 4.1.d.F.H.N.l.) ~ Q E E E E E E E E E E E E E E E E E E E E E E Q ~ :.x.D.G.C.p.=.t.b .     ",
"  . r e.&.p.C.D.H.x.^ ~ ^ Q Q E E E E E E E W E E W E W E E E E E E E E E E E :.m.D.G.v.8.=.j.2     ",
"  @ { 4.4.x.F.A.n.:.^ Q Q Q Q E E E E Q E W W E ( +.E W E Q E E E E E E E E Q Q <.C.G.D.z.2.1.J o   ",
". 9 w.=.p.F.F.A.u.^ Q Q Q Q Q Q E E Q E W E W +.=.$.( E E E E E Q Q Q E E Q ~ Q ^ a.C.F.N.8.=.g.* . ",
". G 3.2.x.G.F.n._ ~ E E E Q E E E E E Q E E +.&.$.$.&.! ! E E E E E E E E E Q E E _ v.D.G.d.=.3.d . ",
"& f.1.8.A.D.D.k.E E E E E E E E E E E E E ! =.$.=.*.=.=.! E E Q E E E E E E Q E ~ ~ l.N.H.n.8.1.{ + ",
"8 w.*.s.N.G.A.,.~ E ~ E E E E ~ E E Q Q ! =.=.=.8.8.=.$.+.W E E E E Q E Q Q Q ^ ~ E ,.N.A.A.8.;.] > ",
"c t.6.k.H.G.n.^ E E E E E E W E E W E ! @.=.5.s.n.m.p.=.$.@.! ! W W E Q Q Q Q E Q Q ^ n.H.D.d.*.e.e ",
"V 3.6.v.F.A.k.~ E E E E E Q E ! ! +.#.$.=.=.p.n.N.n.l.p.=.$.$.@.+./ ! W Q E Q E Q Q E k.F.G.z.5.r.k ",
"T *.4.n.F.N.0.Q E E E E Q E ! #.=.$.$.$.4.d.x.D.A.C.n.v.s.4.*.$.$.$.#.! E E E E E E ~ i.F.F.m.1.4.N ",
"E =.p.n.G.N.,.E W E E Q Q E #.=.$.=.8.d.z.D.F.G.G.G.A.A.n.z.s.6.$.$.$.( E E Q E E W E e.F.G.n.8.2.U ",
"$.=.p.D.C.n.>.E ! E E E Q Q ! #.*.6.d.N.A.G.G.H.G.G.G.A.A.C.n.d.2.$.$.W W ~ Q E W E ~ r.A.A.m.p.&.1.",
"$.@.s.A.A.C._ E E E E E E E Q +.=.2.p.C.A.G.G.G.H.F.F.D.A.G.n.p.=.$.+.E W Q Q Q E Q ^ ,.n.N.N.p.&.1.",
"-.$.p.v.C.n.>.~ E E E E E Q E W #.$.2.v.m.m.C.m.D.N.N.N.A.n.s.2.*.+.E W E E Q Q E Q Q >.z.z.n.p.&.4.",
"*.-.=.;.1.4./ Q Q Q E E Q Q Q E ! $.$.$.*.;.5.=.2.=.2.5.8.2.$.-.@.W / E Q E E E E E Q ^ =.=.=.$.$.4.",
"Y =.$.$.$.$.+.W E Q Q E Y Q Q E Q +.$.$.$.$.-.$.$.$.$.$.$.$.$.-.( E W W W E E E Q E Q O.$.$.$.$.=.Y ",
"I =.-.$.$.$.%.W E Q E Q Q E W E E ( $.$.$.-.-.$.$.$.$.$.$.$.$.$.! ! E W W E E E E E E +.-.$.$.$.4.B ",
"V 4.$.-.$.$.@.W Q Q E E E E Q ~ E ! $.$.$.$.$.$.$.$.$.$.$.$.$.$.E E E E E E E W W W E #.-.$.$.$.4.j ",
"c u.$.$.$.$.@.W Q Q E E E Q E E E ! $.$.$.$.$.$.$.$.$.$.$.$.$.=.! E E E E W E W W W ! =.$.$.$.$.u.0 ",
"2 w.@.$.$.$.$.! Q Q E Q E Q Q E W ! $.$.$.-.$.$.$.$.$.$.$.$.$.$.W E E E E E E ! W W ! @.$.$.$.&...: ",
"+  .=.$.$.$.$.#.! Q Q Q Q Q E Q W W $.$.$.$.$.$.$.$.$.$.$.$.=.=.E E E E E E W Q E Q @.$.-.$.$.2.{ O ",
". m 3.$.$.$.$.@.! E E E Q Q E E E ! &.$.$.&.+.! ! W ( +.&.$.=.@.W E E E E E E E Q ! $.$.$.$.$.r.g   ",
"  2 w.*.$.$.$.$.+.W Q E E Q E E E W ! +.! W ! E W E W W ! ! ! ! Q E E E E E E Q Q #.$.$.$.$.=.X.-   ",
"  $ [ 1.$.$.$.$.$.+.Q E Q E E Q ! E W W E E E E W W E E W E E E E Q E E E E / Q O.-.$.@.$.$.3.A .   ",
"    q u.=.$.$.$.$.$.! W Q E Q E E W W E Q Q E E E E Q Q E E E E E E E Q E E W ! @.$.$.$.$.*.M.-     ",
"    + L 2.$.$.$.$.$.@.! E E E E W E E Q E Q Q E E E E Q Q E E E E E E E E E ! $.$.$.$.$.$.t.v       ",
".   X 7 g.*.$.$.-.$.$.@.! W W W W W Q E E E E E E E E E Q Q E E E E Q Q E ! $.$.$.$.$.$.4.{ %       ",
"    . . i 0.-.$.$.$.$.$.@.! E E Q Q E E Q E E E E E E E E E E E W Q E E ! $.$.$.$.$.$.&.f.3 .       ",
"      . @ F 3.-.$.$.$.$.$.$.O.E Q Q Q E Q E E E E E ~ E Q Q Q E E E E +.$.$.$.$.$.$.$.t.f o         ",
"          O K 7.$.$.$.$.$.$.$.+.! Q Q E E E E E W E E E Q Q Q Q Q ! #.$.$.$.$.$.-.$.u.S . X         ",
"            * ' 3.=.$.$.$.$.$.$.$.+.! ! ! E E E E W W W E Q W ( +.$.$.$.$.$.$.$.*.t.F + X           ",
"            . ; } 4.$.$.$.$.$.$.$.$.-.@.+.+.+.( ( ( ( ( +.+.&.$.$.-.$.$.$.$.$.*.u.h o               ",
"            X . & D e.1.$.$.$.$.$.$.$.$.$.$.$.@.$.$.$.$.$.$.$.$.$.$.$.$.$.-.3.q.b o X               ",
"            X .   o t  .3.*.-.$.$.$.$.$.$.$.$.$.$.$.$.$.$.$.$.$.$.$.$.$.5.3.' 3 o   X               ",
"                    . < P u.=.$.$.$.$.$.$.$.$.$.$.$.$.@.$.$.$.$.$.$.-.1.j.n * .                     ",
"                      . + u ` e.2.=.&.$.$.$.$.$.$.$.$.$.$.$.$.$.=.t.q.G < o                         ",
"                          . + 1 l ' g.t.2.$.$.$.$.$.$.$.=.4.u...{ h ; o                             ",
"                            X X . % 4 a M / =.$.$.-.$.$.~ M y 6 @ .                                 "
};
