/* XPM */
static char *_166c04d300a45afb9ba06e16e6da16bow7RIGwByvBr0dzW[] = {
/* columns rows colors chars-per-pixel */
"50 50 186 2 ",
"   c #010000",
".  c #0A0200",
"X  c #0E0900",
"o  c #000008",
"O  c #120500",
"+  c #180500",
"@  c #140901",
"#  c #1A0A01",
"$  c #1D1202",
"%  c #210F03",
"&  c #221403",
"*  c #2C1C05",
"=  c #22170A",
"-  c #331E06",
";  c #352503",
":  c #382706",
">  c #3A2809",
",  c #332910",
"<  c #412C06",
"1  c #482F04",
"2  c #44260C",
"3  c #44330C",
"4  c #4A3609",
"5  c #4E3E0F",
"6  c #4C2C11",
"7  c #433512",
"8  c #4D3F10",
"9  c #47321B",
"0  c #513D10",
"q  c #564012",
"w  c #5A4312",
"e  c #654E0F",
"r  c #6D5615",
"t  c #745E14",
"y  c #7E5A11",
"u  c #7B5F1E",
"i  c #776117",
"p  c #7C681D",
"a  c #594824",
"s  c #625121",
"d  c #6B5421",
"f  c #796229",
"g  c #7C672B",
"h  c #706137",
"j  c #7E6436",
"k  c #786936",
"l  c #81670E",
"z  c #82681E",
"x  c #986B12",
"c  c #967A1E",
"v  c #866D26",
"b  c #8C6F20",
"n  c #8D7220",
"m  c #957A25",
"M  c #826832",
"N  c #8B7539",
"B  c #8E793B",
"V  c #B79306",
"C  c #A78D1C",
"Z  c #B08816",
"A  c #9B832A",
"S  c #A78327",
"D  c #A6872F",
"F  c #A89020",
"G  c #B1972B",
"H  c #BD9F2C",
"J  c #A58B36",
"K  c #B99934",
"L  c #B59A38",
"P  c #D8A709",
"I  c #DDB607",
"U  c #DFB803",
"Y  c #DEB709",
"T  c #DFB90E",
"R  c #CCA113",
"E  c #DBB515",
"W  c #D7B71A",
"Q  c #DCB51B",
"!  c #DEB81A",
"~  c #E5B601",
"^  c #E9B601",
"/  c #E5B801",
"(  c #EBBA01",
")  c #E3B60A",
"_  c #E3B90A",
"`  c #EEBF0B",
"'  c #F0BF02",
"]  c #E2B612",
"[  c #E4BB12",
"{  c #E9BC14",
"}  c #E0B31C",
"|  c #E7BE1C",
" . c #ECBF1A",
".. c #C1A127",
"X. c #C9AD27",
"o. c #C9A62C",
"O. c #CCAC2C",
"+. c #D4AF27",
"@. c #D2AA28",
"#. c #CCB22E",
"$. c #D5B322",
"%. c #DAB424",
"&. c #D3B32C",
"*. c #DBB52C",
"=. c #DFBA2B",
"-. c #C2A532",
";. c #CAAE33",
":. c #D5AE34",
">. c #D2B437",
",. c #D8B132",
"<. c #E1B522",
"1. c #E6BE31",
"2. c #F4C302",
"3. c #FAC603",
"4. c #F5CE07",
"5. c #FECC02",
"6. c #F7C70A",
"7. c #FAC709",
"8. c #F7CE0B",
"9. c #FCCB0B",
"0. c #FCD100",
"q. c #E7C115",
"w. c #EBC215",
"e. c #EBC21B",
"r. c #F3C611",
"t. c #F4CB16",
"y. c #FBCC13",
"u. c #F0C61D",
"i. c #F5CB1C",
"p. c #F8CC1E",
"a. c #F6D41A",
"s. c #EDC521",
"d. c #EDC922",
"f. c #ECC428",
"g. c #F2C622",
"h. c #F2CA24",
"j. c #F2C729",
"k. c #F3CB2B",
"l. c #F9CC28",
"z. c #F6D027",
"x. c #F8D22D",
"c. c #E0C336",
"v. c #EBC633",
"b. c #EFC934",
"n. c #F6CF33",
"m. c #F5D031",
"M. c #FBD334",
"N. c #FFDA36",
"B. c #F7D138",
"V. c #FCD63B",
"C. c #FFDA3C",
"Z. c #9F8745",
"A. c #94844E",
"S. c #AC9841",
"D. c #B79B4A",
"F. c #AD9956",
"G. c #B89E57",
"H. c #AD9C64",
"J. c #BFAB6A",
"K. c #BEAD74",
"L. c #C7AF58",
"P. c #C3B159",
"I. c #CFB45D",
"U. c #D4BD67",
"Y. c #DDC45B",
"T. c #FCD643",
"R. c #FEDA44",
"E. c #FEDB4A",
"W. c #FED94D",
"Q. c #FEDA4E",
"!. c #FDDD4D",
"~. c #F7DB51",
"^. c #FBD953",
"/. c #FFDA51",
"(. c #FCDA53",
"). c #FBD855",
"_. c #F7D959",
"`. c #FADB5B",
"'. c #D8C26B",
"]. c #EED46B",
"[. c #F2D567",
"{. c #F9D763",
"}. c #F4DA63",
"|. c #FADA63",
" X c #F6D96B",
".X c #EAD470",
/* pixels */
"                                  O 9 j L >.c.E.T.T.n.f.R Z u 3 O .           o                     ",
"                      o o o   X a P..X|.).Q.E.E.E.E.E.E.T.v.<.&.G 3 @                               ",
"                        o . * F.].`.^.(.T.R.E.R.E.R.E.R.E.E.B.[ E ;.r O                             ",
"                        O 7 '.}.E.E.E.E.E.Q.E.(.E.E.R.E.(.Q.R.V.s.Q *.m =                           ",
"                      . 5 ].`.Q.!.E.E.!.!.E.!.(.!.R.E.Q.!.E.!.E.T.u.^ } K ;                         ",
"                    . 3 Y.(.Q.!.E.E.!.R.C.C.R.R.E.R.E.R.E.E.C.E.R.V.e.) %.D &     o                 ",
"                    * U.(./.Q.E.E.!.R.M.d.e.e.w.e.i.x.N.C.T.E.E.Q.E.V.| E Q m @                     ",
"                  O Z.}.Q.W.!.R.N.x.q.I U U / _ ~ _ ) { x.T.E.Q.(.Q.Q.M.) ) $.q .                   ",
"              .   s ].(.!.Q.E.C.d.) ~ ~ ~ ^ ^ ~ ~ ~ / _ Y k.R.E.E.E.R.C.h./ E H ;     .             ",
"                & I.(.!.Q.E.T.g._ ~ ~ / ~ ^ ^ ~ / / U U ) ~ s.V.C.E.E.E.C.q.) ! b O                 ",
"          .     g {.Q.E.(.T.g.I _ / ^ ~ ~ ^ ~ ^ ~ / / ~ ~ ~ ) g.C.E.E.E.E.m.~ / ,.3                 ",
"              = '.`.!.E.R.m._ / / ~ ~ ~ ~ ~ ~ ~ / ~ ~ / ~ ~ ~ ) k.R.E.E.E.E.| / E A O               ",
"              s }.(.E.E.V.{ ~ ~ / ~ ~ / ~ ~ / / ~ ~ ~ ~ ~ ~ / / [ N.E.E.E.E.n.~ Y X.-               ",
"            . L._.E.Q.R.h.~ ~ ~ ~ / / ~ ~ ~ ~ ~ ~ ~ ^ ~ ~ / / U Y e.T.E.E.Q.V.[ U ! l .             ",
"            , [.!.E.E.T.[ ~ ~ ~ ~ ~ ~ ~ ~ ) e.i.~ ~ ~ ^ ~ ~ / / / T m.T.E.E.E.s.) ) ..&             ",
"          . h {.E.E.R.k.) ~ / / ~ / / ^ _ ) V.M.{ ~ ~ ~ ~ ~ ~ / / / e.C.T.E.!.B.) ~ $.7             ",
"      .   X L `.Q.E.T.{ ~ / / / ~ ~ / ^ ) f.T.C.z.) ) ~ ~ ~ ~ ~ / / _ M.E.E.!.R.] ^ } i .           ",
"          # U.(.Q.E.B.) ~ / / U / ~ ~ ~  .C.E.E.C.e.~ ~ ~ ~ ~ ~ ~ ~ ~ f.R.!.R.R.e.~ ] F .           ",
"          *  X(.E.E.k.~ ~ ~ ~ ~ / ~ ~ ) k.R.E.Q.E.m._ ~ / / ~ ~ ~ ~ ~ e.C.E.E.R.g._ Y #.O           ",
"          q  X(.E.T. .~ ^ ~ ~ / ~ ~ [ j.V.E.E.Q.E.T.k.[ ) ~ ^ ~ ~ ~ ~ [ C.R.E.R.k./ / &.;           ",
"          k |.(.E.C._ / ~ ~ ^ U _ e.M.T.E.E.!.E.E.R.C.C.h.) _ ^ ^ ^ / _ B.R.!.R.x.) / *.8           ",
"          A.|.!.E.N.~ / ~ ~ ~ e.x.R.T.Q.E.E.E.E.E.R.E.T.T.M.u.~ ^ ~ ~ _ m.C.!.E.V./ ~ %.d .         ",
".       . H.`.!.E.m./ / ~ ) ) d.R.R.!.E.!.Q.E.R.E.E.E.E.E.T.x.) ~ ^ / U z.C.R.!.V.) _ ! f .         ",
"o         K.`.E.E.n.~ _ ~ ~ ~ ` C.E.E.Q.Q.E.E.E.E.R.!.E.E.R.e./ / ~ ~ U z.R.E.E.T.) / E B           ",
".         K.~.Q.E.M.) / ^ ~ / _ k.E.E.E.E.E.E.E.E.E.E.E.E.M._ / / ~ ~ ) j.E.R.R.C.E _ Q N .         ",
".       X J.Q.C.C.x._ ~ ^ ^ ~ ~ q.C.C.C.C.C.C.R.T.C.C.C.N.w.U / ~ ^ ~ ~ g.M.N.C.C.] ~ ! N           ",
"        . G.k.y.p.r./ ~ ^ ~ ~ ~ _ 6.y.y.9.y.9.y.y.y.y.y.r.~ / / / ~ ~ ~ 2.8.y.y.y./ / E N .         ",
"o       . D.p.9.5.2.~ ~ ~ ^ ~ ~ ~ ( 5.5.5.0.5.5.0.5.5.5.2.~ ~ / / ~ ~ / 2.9.0.9.8./ / Q M .         ",
".       . J i.5.0.5.^ ^ ~ / / / ^ ( 5.5.0.5.5.5.5.0.5.5.' ^ ^ ~ / ~ ~ / 3.5.5.5.3./ / ! d .         ",
".       O v p.5.5.5.^ ^ ~ / / ~ ~ ^ 5.5.5.5.5.5.5.5.5.5.( ~ / / / ~ / / 5.5.5.5.2./ I Q 0 .         ",
"        . e d.0.5.5.( ~ ~ / / ~ / ( 3.5.5.5.5.5.5.5.0.5.( ~ / / / / / ^ 7.5.5.5.2.~ ) *.;           ",
"          - k.9.5.5.2./ / U / ^ / ^ 3.5.5.5.5.0.5.5.5.5.( ^ ~ ~ / / / ( 5.5.5.5.' ^ ] ;.#           ",
"          # %.y.5.5.3./ / / / ~ ^ ^ 5.5.5.5.5.3.5.5.5.9.( ^ ~ ~ / / / 2.5.5.5.4.( ^ Q C             ",
"      o   O C y.5.5.5./ _ ~ / ~ ^ ^ 6.9.7.2.( ^ 2.5.7.9.( / ~ ~ / / ~ 5.5.5.5.9.^ ^ Q i             ",
"          . f u.5.5.5.2.~ ~ / ^ ~ ^ ` ( / ^ ^ ^ ^ ^ ( 2.^ ~ ~ ~ ~ / ( 5.5.5.0.2.^ ^ +.7             ",
"      o     > v.y.5.5.5.^ / / ^ ^ ~ / ~ / ^ ~ ~ ^ ^ ~ ~ / ~ / ~ ~ ~ 5.5.5.0.5.( ^ ] K $             ",
"            O -.i.5.5.5.2./ ~ ~ ~ ~ ~ ~ / ~ ~ ~ / ~ / ~ / ~ ~ ~ ^ ' 5.5.5.5.5.^ ^ <.z .             ",
"            . r d.5.5.5.5.( ^ ^ ~ ~ / ~ ~ ~ ~ ~ ~ ~ / ~ / / / ~ ( 3.9.5.5.5.2.^ ~ @.-               ",
"              & >.y.5.5.5.3.^ ^ ^ ~ / / / / / / / ~ / ~ / / / ~ 3.9.5.5.5.3.( _ ] S O               ",
"              . t j.0.3.5.5.2.^ ^ ~ ~ ~ ~ ~ / ~ ~ / ~ ~ / / ~ 2.5.5.5.5.5.3.^ / &.>                 ",
"              . % o.9.5.5.5.5.2.^ ^ / / ~ ~ ~ ~ ~ ~ / ^ ~ / 2.5.5.5.5.5.5.( / E n X                 ",
"                . w b.9.5.5.5.0.2.^ ^ ^ ~ ~ ^ ~ ~ / / / ^ ' 5.5.5.5.5.5.` ~ Y -.*                   ",
"    o             O c i.3.9.5.5.5.9.2.^ ^ ^ ~ ~ ^ ^ ^ ( 7.5.5.0.5.5.5.7./ ) &.q .     o             ",
"            o       * :.y.9.9.5.5.5.5.3.2.' ' ' 2.2.2.5.5.5.5.5.5.5.5.( ) %.p @                     ",
"              .     . 1 1.9.5.8.5.5.0.5.5.5.5.5.3.0.5.0.5.5.5.5.5.9.( / W A @ . o       o           ",
"                      X 1 &.a.4.5.5.5.5.5.5.5.5.5.5.5.5.5.3.5.5.5.^ _ $.J &   o                     ",
"                      o X > o.i.9.5.5.5.5.5.5.5.5.5.5.5.5.5.5.5.' ) %.A &         o                 ",
"                          O & S b.t.5.5.5.5.5.5.0.5.5.5.5.5.9.^ Q O.z O .                           ",
"                            . O 4 -.1.l.7.5.5.5.5.5.5.3.3.` E X.A : X                               ",
"                                . # 6 x P 9.5.5.5.3.3.' / V y 2 + .                                 "
};
