/* XPM */
static char *ef8c53ac64ef41b5eb2128fabe87f099PdAhLk5D0DTprTuw[] = {
/* columns rows colors chars-per-pixel */
"50 50 163 2 ",
"   c #010001",
".  c #0B0301",
"X  c #0F0B04",
"o  c #020009",
"O  c #130400",
"+  c #140C00",
"@  c #1B0D01",
"#  c #1C1102",
"$  c #181906",
"%  c #060111",
"&  c #231404",
"*  c #291703",
"=  c #221900",
"-  c #22160A",
";  c #311B01",
":  c #382301",
">  c #392707",
",  c #302109",
"<  c #3D340D",
"1  c #2F2510",
"2  c #3C3017",
"3  c #402902",
"4  c #412C09",
"5  c #4A3806",
"6  c #45300C",
"7  c #4B3D0E",
"8  c #503A06",
"9  c #56360C",
"0  c #4C3810",
"q  c #49361B",
"w  c #543B15",
"e  c #523C19",
"r  c #533F22",
"t  c #55410C",
"y  c #5C4D0D",
"u  c #5A4615",
"i  c #574318",
"p  c #5B4719",
"a  c #5C491A",
"s  c #604E0F",
"d  c #735805",
"f  c #795E07",
"g  c #675112",
"h  c #7C671A",
"j  c #4F4025",
"k  c #6C5C27",
"l  c #705D23",
"z  c #8E710A",
"x  c #816314",
"c  c #896A16",
"v  c #83681A",
"b  c #89771D",
"n  c #90791B",
"m  c #897729",
"M  c #8E7A42",
"N  c #B2870D",
"B  c #BC930B",
"V  c #A68616",
"C  c #AB8A15",
"Z  c #A78D1C",
"A  c #AB8D1B",
"S  c #B18B1B",
"D  c #B3951D",
"F  c #B79D1A",
"G  c #BEA11B",
"H  c #9F8821",
"J  c #9F802D",
"K  c #908235",
"L  c #9E8A3D",
"P  c #BFA22D",
"I  c #C1961A",
"U  c #D1A606",
"Y  c #DFB703",
"T  c #DFBA02",
"R  c #DFB70E",
"E  c #DDB90E",
"W  c #C7A11E",
"Q  c #CBA51D",
"!  c #C7AB1E",
"~  c #CFAB18",
"^  c #D0A71B",
"/  c #D5AC1D",
"(  c #DDB713",
")  c #DBB812",
"_  c #D5B41B",
"`  c #DCB61A",
"'  c #DCB91A",
"]  c #E5B602",
"[  c #E8B601",
"{  c #E5B802",
"}  c #EBBA01",
"|  c #E4B60A",
" . c #E8B508",
".. c #E5BA0B",
"X. c #F1BE00",
"o. c #E1B612",
"O. c #E6BB12",
"+. c #E8BE12",
"@. c #E7BB1C",
"#. c #E8BF1A",
"$. c #C4A327",
"%. c #CDA621",
"&. c #CFAD24",
"*. c #DDB322",
"=. c #DCB42A",
"-. c #D9B331",
";. c #E9BC2A",
":. c #EEC101",
">. c #EDC10A",
",. c #F3C302",
"<. c #F9C703",
"1. c #F6C902",
"2. c #FDCC02",
"3. c #F2C70D",
"4. c #FACE0C",
"5. c #FDD006",
"6. c #FBD009",
"7. c #EBC217",
"8. c #EFCC16",
"9. c #ECC21B",
"0. c #E8CA19",
"q. c #FACB12",
"w. c #F2C61E",
"e. c #F1C91C",
"r. c #EEC421",
"t. c #EFC923",
"y. c #F1C724",
"u. c #F3CA25",
"i. c #F4CC2C",
"p. c #F8D12F",
"a. c #F5CE34",
"s. c #F6D134",
"d. c #FAD334",
"f. c #FCD63C",
"g. c #FED93E",
"h. c #B29B4D",
"j. c #C2AB51",
"k. c #D2B55C",
"l. c #DCC259",
"z. c #F6D041",
"x. c #FDD642",
"c. c #FEDA45",
"v. c #FED749",
"b. c #FDD949",
"n. c #FFDA49",
"m. c #FFD84B",
"M. c #FDDD48",
"N. c #FFDA4D",
"B. c #FBDC4D",
"V. c #FFDC4E",
"C. c #E6CA5C",
"Z. c #EDD05A",
"A. c #EEDA5C",
"S. c #FCD752",
"D. c #FDD952",
"F. c #FDDA53",
"G. c #FADA57",
"H. c #F7D959",
"J. c #FBDB5B",
"K. c #E9D064",
"L. c #F6D662",
"P. c #F8D564",
"I. c #F7DA62",
/* pixels */
"                        % .         . q m -.x.n.a.r... . .U V 7 O                 o                 ",
"                                % $ K A.J.D.M.N.F.c.s...{ | R _ H * .   o o                         ",
"                                @ h.J.M.M.b.M.n.V.B.M.s...{ ] ] ) A @ . o o o                       ",
"                              X L H.n.M.M.M.D.n.M.V.n.V.u.{ ] | { ) h . .                           ",
"                              k A.M.v.n.c.D.F.N.m.n.N.N.c.t.| ] ] | _ t   X                         ",
"                    o       - l.D.n.N.c.c.c.c.c.n.n.n.c.n.f...{ { { { F #   .                       ",
"                    o     O L D.D.D.n.b.a.0.7.9.i.x.N.M.M.c.t.| ] [ { E g .       .                 ",
"                  o     . , C.B.N.n.g.0.Y | { { | @.x.M.V.N.f.O.] [ { | $.= o                       ",
"            o     o       l D.V.v.f.9.{ ] ] { ] ] ] 7.c.N.N.c.r.{ ] ] ] ( y                         ",
"                        O k.B.N.c.t.] { { ] ]  .] ] ] w.c.N.N.s.Y { ] ] { S .     o                 ",
"                o       0 P.V.N.s. .| ] { { ] ] ] ] ] | s.n.D.c.+.] { ] { / : .                     ",
"                      . M D.M.n.0.| ] { { { ] ] ] { ] ] #.c.N.n.u.] ] { ] ( h                       ",
"                      X j.V.n.x...| ] ] { { { ] ] ] ]  . .f.M.n.f.| ] { { { Z . .                   ",
"                      $ K.n.c.u.{ { ] ] { { { ] { ]  .] { t.c.N.c.O.] [ { { ! -                     ",
"                      t I.n.c.#.{ ] ] ] { | u.{ ] ] ] ] { >.f.D.n.t. .] [ { ' 5 o                   ",
"                    o m J.N.f...] ] [ ] .. .f...] ]  .{ {  .s.v.M.i.| [ [ { ) d .                   ",
"                    . j.S.N.i.{ ] ] { { Y t.c.i.{ ] ] ] ] { t.v.n.f.| { { ] ..V                     ",
"                    $ k.N.c.@.{ ] ] ] { ..f.v.f...] { { ]  .O.c.n.x... .{ ] { I O                   ",
"                    $ C.v.c.O.| { ] ] { +.v.n.c.9.{ { { ]  .| f.n.c.>.] ] ] ] Q =                   ",
"                    1 C.n.f.O.{ ] {  ...a.N.n.M.s.O.| { ] {  .p.n.n.9.] ] ] { ~ >                   ",
"                .   2 Z.V.d.{ | { | 7.s.n.N.N.N.M.f.r.{ ] { | i.n.n.7.] ] ] ] _ 6   o               ",
"                    2 L.D.s.{ { | 7.g.c.v.N.N.D.n.n.f.7.{  .| u.c.M.y.] ] ] ] _ 0 .                 ",
"          o       . j P.S.a.{ { T t.c.n.N.N.N.N.V.M.c.e.| | T t.c.c.t.{ { ] { ` i     o             ",
"                  o j I.B.s.{ ] | 9.c.n.N.V.n.M.M.B.x.8.| { { t.v.c.t.{ { ] ] ` p                   ",
"                    r J.v.s.] [ [ ..d.M.N.D.n.c.n.n.c...{ { { t.n.n.t.{ { ] ] ` a .                 ",
"                    r J.c.i.] ] [ ..u.g.n.n.c.c.c.n.s.{ { { { y.v.c.w.] ] ] ] ' p                   ",
"                    e i.q.3.] ] ] [ ..q.4.4.6.6.4.q.3.] ] { ] >.6.4.>.{ ] [ ] ` a                   ",
"                    w u.2.1.] { {  .[ 2.2.2.2.2.2.2.[ [  .] { ,.2.2.:.[ ] ] ] ' a                   ",
"                    0 r.2.<.{ { { ] [ <.2.2.2.2.2.2.[ { { { ] X.6.2.:.{ ]  .] ` 7 .                 ",
"                    > r.2.<.] { { ] [ <.2.2.2.2.2.<.} { { { [ <.2.2.} { | { ] / <                   ",
"                    , @.2.<.[ { ] { [ <.2.5.2.2.2.<.[ { { { [ <.2.2.} ]  .{ ] / >                   ",
"                o   = o.2.2.} [ { [ ] <.2.2.2.2.2.<.[ { ] [ [ <.2.2.[ { | { { ^ =   o               ",
"                o   X _ 2.6.} ] { [ { <.2.4.<.2.2.1. .] { { } 2.2.<.{ { [ ] ] W .                   ",
"                    . $.2.2.,.] ] [ ] 1.2.,.[ ,.2.2.{ { { [ ,.2.2.<.{ { ] [ ] C .                   ",
"                    . z q.2.<.} [ ] [ } [ ] { [ } } ]  .{ [ <.2.2.,.[ { { { o.f                     ",
"                      8 u.2.<.} [ ] [ ] { [ ] ] { [ { { { [ 2.2.2.} { { { { *.4                     ",
"                      - ;.2.5.,.{ [ ]  .] ] ] { ] [ { | { } 2.2.2.} [ ] { { %.&                     ",
"                      + I 2.2.1.[ { [ ] ] { { { ] [  .] { <.5.2.<.} [ ] T { S O .                   ",
"                .     . c 4.2.2.X.] [ [  .| { ] { ] ] [ X.2.2.2.,.[  .] ] O.x                       ",
"                      . 3 e.2.2.1.] ] [ ] Y { ] ] ] [ [ <.2.2.2.}  .] [ ] *.;                       ",
"                    o . . G 5.2.4.:.{ [ [ { { ] { [ ] ,.2.2.2.1.] { { ] { Z .     o   o             ",
"                  o o     s q.2.2.2.} [ { { ] ] [ [ } 2.2.2.2.,.] { { | ) y       . o o             ",
"                  o       = =.2.2.2.<.X.} { ] ] [ } 2.2.2.2.<.} { ]  ...P +                         ",
"                            c q.2.2.2.2.<.} >.:.,.2.2.2.2.5.,.[ ] ] [ E u .                         ",
"                            & &.4.2.2.2.2.2.2.5.5.2.2.2.2.2.[ [ ] ] { D $   o                       ",
"                        o .   t 0.5.2.2.2.2.2.2.5.2.2.2.2.} { { { { _ 5 X o %       o               ",
"                  . o         O v e.2.2.2.2.2.2.5.2.2.2.<.] ] { { O.h .                             ",
"                    o   o     . @ Z 8.2.2.2.2.2.2.2.5.<.[  .] T ) n +                               ",
"                                . @ n t.q.<.2.2.2.2.1.{ {  .R _ b @                                 ",
"                                  . O 9 B <.<.2.<.X.]  .] Y N 9 O .                                 "
};
