/* XPM */
static char *bce1856538ed41daf9b41e5e08fd01cf7B7y2VpUyTuRkHAW[] = {
/* columns rows colors chars-per-pixel */
"50 50 100 2 ",
"   c black",
".  c #010300",
"X  c #040103",
"o  c #040303",
"O  c #040400",
"+  c #000204",
"@  c #040104",
"#  c #040106",
"$  c #0B0000",
"%  c #0F0500",
"&  c #00010B",
"*  c #1B1000",
"=  c #271D02",
"-  c #231A0A",
";  c #2E210B",
":  c #332200",
">  c #332600",
",  c #342500",
"<  c #392400",
"1  c #352A02",
"2  c #322109",
"3  c #332209",
"4  c #322309",
"5  c #30240A",
"6  c #2A2011",
"7  c #2F2512",
"8  c #322312",
"9  c #322511",
"0  c #312611",
"q  c #302412",
"w  c #302713",
"e  c #7B5C0C",
"r  c #81620A",
"t  c #806228",
"y  c #826629",
"u  c #E6BE1D",
"i  c #D6B730",
"p  c #D7B63F",
"a  c #E6BE23",
"s  c #F6CB07",
"d  c #F8CA03",
"f  c #FECA00",
"g  c #FACF01",
"h  c #FECC01",
"j  c #FCCE01",
"k  c #FFCF00",
"l  c #FBCC04",
"z  c #FFCC04",
"x  c #FFCD04",
"c  c #FDCC08",
"v  c #F9CD0F",
"b  c #F7CF10",
"n  c #FCCB12",
"m  c #F8CE11",
"M  c #E2C12E",
"N  c #F1CB2B",
"B  c #F3CA2C",
"V  c #EECA34",
"C  c #E3C53E",
"Z  c #EECD39",
"A  c #D6B240",
"S  c #FFD747",
"D  c #FFDA42",
"F  c #FBDA44",
"G  c #FED846",
"H  c #FFDB47",
"J  c #FDDD44",
"K  c #F6D749",
"L  c #FFD74E",
"P  c #FBDB49",
"I  c #FED949",
"U  c #FFDB4B",
"Y  c #FFDC49",
"T  c #FCDC4B",
"R  c #FDDB4C",
"E  c #FFDA4D",
"W  c #FCDC4D",
"Q  c #EBCB55",
"!  c #E6CB5A",
"~  c #EACB5A",
"^  c #EACF5A",
"/  c #E8CB5D",
"(  c #EACA5C",
")  c #E8CB5E",
"_  c #E8CC5C",
"`  c #E9CF5F",
"'  c #F3D251",
"]  c #FFD753",
"[  c #FAD953",
"{  c #FFDA54",
"}  c #FCDA56",
"|  c #FADA5D",
" . c #E4C968",
".. c #F7D863",
"X. c #F6DA65",
"o. c #F6D967",
"O. c #F8DA66",
"+. c #F3D86B",
"@. c #F8D869",
"#. c #F4D97A",
/* pixels */
"                              X       + & $ y p K G U ' A e % &                                     ",
"                                X       + = #.[ F U U [ }  .7 &                                     ",
"                              @       .   1 +.P F U E F U ` w                                       ",
"                            + @ X   X .   > X.Y U U E U J ` w o                                     ",
"                                    + @ @ > O.E Y ] { E H ! 7                                       ",
"                              X     @     > @.E E L E Y U ` w                                       ",
"                                X   & + X > @.Y D S Y E Y ! w X                                     ",
"                          +           +   > @.Y G S Y S E ` 9                                       ",
"                          + + X     +     > X.E G E { E U / 7                                       ",
"                            +             > X.E U E E E E ` 9   +                                   ",
"                              X X         1 X.E U U G P E ~ 7                                       ",
"                            + +           > X.E U U U U Y ~ 8 X                                     ",
"                            +             > O.E E Y Y E E ~ 7                                       ",
"                              +           > @.Y Y E P Y E ~ 9                                       ",
"                                    +     > o.R E Y S E Y ~ 7 +                                     ",
"                              + X         > o.E E I E Y E ~ 8 X                                     ",
"                              X           > O.E U E S Y E ~ 7                                       ",
"                            + +     +     > @.E Y Y E Y E ! 9                                       ",
"                                @         > o.Y E Y Y E U ~ 7                                       ",
"                                + +       > o.E P E E Y E ( 8                                       ",
"                              X + +       1 o.E U E P E E ( 7                                       ",
"                                +         > o.Y P U U U E ( 9 @                                     ",
"                              X X       + > @.E U U T T E ~ 9 +                                     ",
"                                        @ > O.Y E E U E Y ~ 8                                       ",
"                              X           > ..U E E Y S Y ! 9                                       ",
"                          @           X X > | H S Y D D D Q 9 +                                     ",
"                          +     X   +   X : Z m b n b m m M 5 O                                     ",
"                          +       + +   $ : N g g f f f c a 5 X                                     ",
"                                  + +   @ > N h h f f f z a 4 X                                     ",
"                        X           @     < B h h h h g h u 4                                       ",
"                                        @ < B h h h h h f u 4 X                                     ",
"                          X     X     + . < B h h h h h f u 4 X                                     ",
"                                        X < B h h h h h h M : X                                     ",
"                          X     X   +     < B h k h h h h u : X                                     ",
"                          X         @   X < B h h h h h h M 3 X                                     ",
"                                          < B h h h h h f u 4 X                                     ",
"                        X X           +   < N z h h h h h M 3                                       ",
"                                X         < B h h h h g h M 3 X                                     ",
"                          X         X   @ < B h k h h h h M : X                                     ",
"                                          < B z h h h h h M :                                       ",
"                        X X             X < B h h h f k f u 4 X                                     ",
"                                X   +   X < B h h h h h h u 2 X                                     ",
"                          X         @     < B h h h h h h M 2                                       ",
"                                        X < B h h h h h h u 4 X                                     ",
"                        X X           +   < N h k h h h h M > X                                     ",
"                                X       @ < B z h h h h h u 4                                       ",
"                          X         +     < N h h h h h h M 4 @                                     ",
"                                    @   O > V h h h h h h M ; @                                     ",
"                                .   @ + O * C c z z f k l i -                                       ",
"                            X   .   @ + X % r g h f h f s e % @                                     "
};
