/* XPM */
static char *_55756b0f21744cd978325d4399991e0mgoqSZLnXBaphHAg[] = {
/* columns rows colors chars-per-pixel */
"50 50 175 2 ",
"   c #000000",
".  c #0B0200",
"X  c #0F0900",
"o  c #020009",
"O  c #120501",
"+  c #1A0401",
"@  c #160801",
"#  c #1F0D04",
"$  c #1E1203",
"%  c #241402",
"&  c #281705",
"*  c #241904",
"=  c #2D1C03",
"-  c #341B00",
";  c #381E05",
":  c #2C2203",
">  c #342206",
",  c #34230B",
"<  c #3B220C",
"1  c #3D2A0A",
"2  c #2F2412",
"3  c #3E2D15",
"4  c #471E0A",
"5  c #4C3904",
"6  c #44330A",
"7  c #4B330D",
"8  c #4A3511",
"9  c #4C3B1C",
"0  c #5F4614",
"q  c #6D5609",
"w  c #664B16",
"e  c #774B10",
"r  c #6F5414",
"t  c #745A17",
"y  c #7F640A",
"u  c #7E6614",
"i  c #7F671B",
"p  c #5C432A",
"a  c #6C5320",
"s  c #615329",
"d  c #685433",
"f  c #78672E",
"g  c #816B1C",
"h  c #88721D",
"j  c #A47510",
"k  c #856C2D",
"l  c #8A6D28",
"z  c #8D7422",
"x  c #8E7922",
"c  c #997C2B",
"v  c #8E7737",
"b  c #9D851D",
"n  c #BA8C11",
"m  c #B3941D",
"M  c #9F8732",
"N  c #A48920",
"B  c #A3832B",
"V  c #AB8A29",
"C  c #AE9424",
"Z  c #A58B33",
"A  c #AC9735",
"S  c #AE943C",
"D  c #B29333",
"F  c #BA9230",
"G  c #B1963F",
"H  c #BEA032",
"J  c #BCA13E",
"K  c #D09E0D",
"L  c #DBAE03",
"P  c #DEB705",
"I  c #DEBA04",
"U  c #DBBA0C",
"Y  c #DDB512",
"T  c #DFBA12",
"R  c #D3B71A",
"E  c #DDB51B",
"W  c #DBB91C",
"Q  c #E5B601",
"!  c #E9B601",
"~  c #E4B801",
"^  c #EBBB01",
"/  c #E3B60A",
"(  c #E9B60A",
")  c #E3BA0B",
"_  c #ECBE0D",
"`  c #F0B503",
"'  c #F1BD02",
"]  c #E2B413",
"[  c #E5BB12",
"{  c #E9BE13",
"}  c #E0B31A",
"|  c #C2A42C",
" . c #C8A62E",
".. c #CAAC2D",
"X. c #D6B025",
"o. c #DBB523",
"O. c #D8B924",
"+. c #D4B32B",
"@. c #DAB228",
"#. c #C7A332",
"$. c #C9AA37",
"%. c #C9A63B",
"&. c #D4AE31",
"*. c #D6B533",
"=. c #D8B434",
"-. c #DBBA34",
";. c #DFBD38",
":. c #EEC101",
">. c #EFC80A",
",. c #F4C402",
"<. c #FAC605",
"1. c #F7C904",
"2. c #FDCC02",
"3. c #F1C50A",
"4. c #F9C608",
"5. c #F6CE0D",
"6. c #FBCB0B",
"7. c #FCD003",
"8. c #F8D10F",
"9. c #E7C014",
"0. c #EAC214",
"q. c #E4C01C",
"w. c #EAC21B",
"e. c #ECC81D",
"r. c #F6CC15",
"t. c #FACC13",
"y. c #F5CA19",
"u. c #DEC434",
"i. c #EEC320",
"p. c #EEC920",
"a. c #E8C22B",
"s. c #F0C723",
"d. c #F3CB24",
"f. c #F1C62C",
"g. c #F5CE2B",
"h. c #F8CF2B",
"j. c #FAD32C",
"k. c #E7C531",
"l. c #ECC435",
"z. c #EEC73B",
"x. c #F4CF33",
"c. c #F6D333",
"v. c #FBD433",
"b. c #FED835",
"n. c #FBD43B",
"m. c #FEDA3C",
"M. c #AB934F",
"N. c #BD9F4F",
"B. c #B59B53",
"V. c #CFB159",
"C. c #CAB566",
"Z. c #D3B560",
"A. c #D5BB63",
"S. c #EBC74B",
"D. c #EEC94E",
"F. c #FED745",
"G. c #FEDB44",
"H. c #FED749",
"J. c #FEDB4B",
"K. c #FFD754",
"L. c #FCDB52",
"P. c #FAD758",
"I. c #F5D85A",
"U. c #FADA5A",
"Y. c #FCE247",
"T. c #DEC667",
"R. c #DECA71",
"E. c #EBD364",
"W. c #EDD36B",
"Q. c #F6D965",
"!. c #FCDC63",
"~. c #F2D36E",
"^. c #F1D175",
"/. c #F9D871",
"(. c #F3D77D",
/* pixels */
"                            .   % t n L ! / ] s.n.F.S.%.k 2 o                                       ",
"                          o . 6 J *.Y Q / s.n.G.G.J.J.I.Q.R.s O   o o                               ",
"                  o     o   > | } [ I P w.n.J.J.J.J.G.J.J.L.E.f X   o     o                         ",
"                          * C [ ! Q ~ ) j.G.J.J.J.J.J.J.G.G.U.W.s .                                 ",
"                        O h } L ` ! / g.m.G.J.J.J.J.J.H.J.J.L.U.T.,                                 ",
"                      . 8 =.) Q Q / i.F.J.J.G.G.m.G.G.J.J.L.L.J.!.M.O                               ",
"                  o   @ B ] ( P I T x.K.K.J.G.v.p.w.w.s.c.G.J.F.L.^.p . o                           ",
"                  o . 7 X.^ ! Q I q.J.K.L.G.h.) / ~ P ~ ) d.m.J.J.U.B.O o                           ",
"                    O Z E ! ! ( ( h.m.J.G.v.[ Q Q Q Q P ! ( d.J.G.Y.E.: o o                         ",
"                    > ../ ! ! / [ m.G.G.m.0.Q Q ! Q ~ ~ Q ( ( x.J.G.I.M .                           ",
"      o           . r W / ( Q Q i.G.L.J.p.~ ~ Q Q ~ ~ Q Q ~ / 0.G.G.L.V.$                           ",
"                o O A U Q ! Q / v.G.J.m.] / Q ~ Q ~ ~ Q Q Q Q P c.G.J.~.3 o                         ",
"                  = *.I ~ ~ Q [ m.G.J.x.P Q Q ! Q Q Q Q Q Q Q Q { H.H.!.f                           ",
"                  0 o.I ! Q ( f.G.G.m.9.I ~ Q Q / Q ~ Q Q Q Q ~ / F.J.P.C.O                         ",
"              o . z } ~ ! Q ) x.G.Y.c.I ~ Q Q ~ Q ) 3.P Q Q Q ! U f.G.L.T.=                         ",
"              o @ N ) ~ ! ~ [ n.F.G.e.~ ~ Q ~ Q ~ s.j./ ~ Q ! ! ( { F.J.E.9                         ",
"                $ H P Q Q ~ ) G.G.m.) ~ ~ ! ~ ~ U c.b.[ ~ Q ! ! ~ U n.G.Q.d .                       ",
"      o o       : +.~ Q Q Q { F.J.v.) I ~ Q Q ~ { G.G.f.U Q ! ! ~ ) h.G.I.v     .                   ",
"              . 5 O.~ Q ! Q e.G.J.v./ ~ Q Q ~ ~ h.m.G.n.) ~ ! ! ~ I e.F.I.Z o                       ",
"              . q R ~ Q Q / h.m.m.s.~ Q ~ / P w.v.G.J.F.f./ / ! ~ P w.G.U.N..                       ",
"              . u W ~ ~ Q / g.G.G.e.Q Q Q / e.m.Y.G.J.J.G.g.[ Q Q ~ [ m.U.Z.O                       ",
"              . z W ~ ~ ~ P c.J.G.{ ~ Q / s.G.G.J.L.J.J.G.G.v.) ~ ~ 9.m.L.A.O                       ",
"              . Z E Q ~ ~ P n.J.G.[ Q / _ v.G.J.L.J.J.Y.J.J.m.{ ~ ~ ) m.U.(.O                       ",
"o             . G } Q ! ~ U F.J.G.{ Q ~ / h.G.J.L.L.J.Y.J.J.n.( ~ ~ ) m.L.(.O                       ",
"        o     . S E ! Q ~ / b.F.G.{ Q Q / p.J.J.L.J.J.J.G.G.f./ ! Q ) m.J.(.O                       ",
"              . S E Q Q ~ / c.b.v.{ Q / / { b.m.G.G.m.G.m.b.9.Q ~ Q ) b.J./.O .                     ",
"              . G T ! Q ~ Q r.t.t.^ Q ~ Q Q >.8.5.5.5.6.r.y./ ~ ~ Q ~ y.d.D.O                       ",
"        o     . Z [ ~ Q Q Q <.2.7.^ Q Q Q Q :.7.2.7.2.2.6.3.^ ~ ~ ~ ~ 5.t.z.@                       ",
"              . x Y ~ Q ~ ~ 2.2.2.^ ~ / Q Q :.6.2.2.2.2.7.,.~ Q Q Q ^ 2.6.-.@                       ",
"  o             g E ! Q ~ ~ ,.2.2.:.~ ~ ~ ! ^ 2.2.2.2.2.2.,.! ! ! ~ ^ 2.6. .O                       ",
"                q E Q Q ~ ~ ,.2.2.^ ~ Q ! ~ ^ 2.2.2.2.2.2.,.Q ! ! ~ ^ 2.t.m .         o             ",
"  o             5 o.Q Q ~ ~ ' 2.2.1.~ ~ ~ ! ^ 2.2.2.2.2.2.,.~ ! ! ! ' 2.t.b .                       ",
"              . = =.Q Q Q ! ^ 2.2.6.! ~ ~ ~ ^ 6.2.2.2.2.2.:.~ ! ! ^ ,.2.y.h .                       ",
"            o   % #./ ~ ~ ! ^ <.2.2.^ ~ ~ ! ^ 6.4.' ^ 1.6.:.~ ! ! ! 1.2.d.a                         ",
"                O V ] Q ~ ! ^ 4.2.2.,.~ ~ ! ! ^ ! ! Q ! ^ ^ ~ ~ ! ^ 2.2.a.7                         ",
"            o   . l E / Q ! ! 4.2.2.,.~ ~ Q ! Q ~ ! Q Q Q ~ Q ~ Q ^ 2.6.;.&   o                     ",
"                  w @./ ! ! ~ :.7.2.2.! ! ~ ! ! ! ~ Q ~ Q Q ~ ~ ! 1.2.t.| .                         ",
"            o     - &.[ ~ ! Q ^ 1.2.6.:.~ ! ~ ! Q ~ ~ ~ ~ Q ~ ~ ^ 2.2.y.y . o                       ",
"                  O D [ ! Q ! ^ 2.2.2.2.^ ! Q ! Q ! ! ! ! ~ ~ ! 3.2.6.l.<                           ",
"                  . w o.Q ~ ! ! ,.2.2.2.1.! ! Q Q Q ~ ! Q ~ Q ^ 2.2.t.#.#                           ",
"                    > ../ ! / ( ^ 2.2.2.2.^ ! ~ ~ Q ! Q Q Q ! <.6.7.p.i .                           ",
"                    . Z U ! / P ! <.2.2.2.4.! Q Q Q ~ Q Q Q 1.<.<.7.u.:                             ",
"                      1 X./ ~ I ! ' 2.2.2.2.4.! ~ ~ ~ ~ ! ,.2.2.<.r.b X   o                         ",
"                      @ B Y :.~ Q ` <.2.2.2.2.2.1.^ :.:.<.2.2.2.6.l.6 .   o                         ",
"                      . 1 +./ ~ ^ ~ ^ <.2.2.2.2.2.2.<.2.2.2.7.2.d.c .   o                           ",
"                      .   g X.) ~ ~ ! 1.7.2.2.2.2.2.2.2.7.2.7.r.$.= .   o                           ",
"                      o o % F } / I ! ! <.2.2.2.2.2.2.2.7.7.6.l.8 X                                 ",
"                        o   ; H R U ~ Q ,.<.2.2.2.2.2.2.1.5.k.t .   o                               ",
"                          o . : A X./ ! ! ^ <.<.2.2.2.6.e.-.w O     o                               ",
"                          o o . & e K ( ! Q ! 1.2.2.2.3.j 4 + .                                     "
};
