/* XPM */
static char *aeeda526ba11424f893240818ba1a385WHBFw0XPHpdcm59Z[] = {
/* columns rows colors chars-per-pixel */
"50 50 160 2 ",
"   c #010101",
".  c #0A0200",
"X  c #020009",
"o  c #130601",
"O  c #180700",
"+  c #150B02",
"@  c #1C0C01",
"#  c #171001",
"$  c #1D1101",
"%  c #231602",
"&  c #261905",
"*  c #2A1B03",
"=  c #201C09",
"-  c #2E2309",
";  c #322403",
":  c #392402",
">  c #352C00",
",  c #352A09",
"<  c #3E2C0A",
"1  c #3F3104",
"2  c #3E3014",
"3  c #422D06",
"4  c #42280A",
"5  c #453204",
"6  c #493506",
"7  c #43330E",
"8  c #4F3009",
"9  c #4F3D09",
"0  c #533E06",
"q  c #483811",
"w  c #4D3919",
"e  c #564106",
"r  c #5F4904",
"t  c #5F4615",
"y  c #5C4915",
"u  c #624A0A",
"i  c #65540E",
"p  c #6F5917",
"a  c #60561C",
"s  c #7C660B",
"d  c #7B6618",
"f  c #4E4527",
"g  c #625424",
"h  c #7B6B3A",
"j  c #84640F",
"k  c #856A17",
"l  c #816B1C",
"z  c #867117",
"x  c #8C7015",
"c  c #8E7118",
"v  c #957812",
"b  c #9C7C14",
"n  c #8B6F25",
"m  c #917924",
"M  c #857131",
"N  c #AD920D",
"B  c #BF9606",
"V  c #B2950F",
"C  c #BB990F",
"Z  c #A08015",
"A  c #A3841A",
"S  c #A08819",
"D  c #AD901E",
"F  c #B69416",
"G  c #B29A1B",
"H  c #BE9E1D",
"J  c #95832F",
"K  c #9E832D",
"L  c #9D8334",
"P  c #AC9024",
"I  c #AB922C",
"U  c #B29320",
"Y  c #B99521",
"T  c #BA9B27",
"R  c #AA9335",
"E  c #C5A307",
"W  c #C9A80E",
"Q  c #DFB40F",
"!  c #DFB909",
"~  c #D3AE1B",
"^  c #CEB11E",
"/  c #D0B213",
"(  c #DCB414",
")  c #DEB913",
"_  c #D4B11C",
"`  c #DCB41C",
"'  c #E5B602",
"]  c #E8B602",
"[  c #E5B801",
"{  c #EBBC01",
"}  c #E3B60B",
"|  c #E8B60A",
" . c #E4B90C",
".. c #EBBE0E",
"X. c #F0BF01",
"o. c #E2B612",
"O. c #E4BA12",
"+. c #E9BC14",
"@. c #EBBF1C",
"#. c #C2A023",
"$. c #D0AF24",
"%. c #DDBB22",
"&. c #D6B633",
"*. c #EDC101",
"=. c #F4C403",
"-. c #FAC603",
";. c #F7CD04",
":. c #FECC02",
">. c #F2C40A",
",. c #F8C70A",
"<. c #F7CD0E",
"1. c #FBCD0B",
"2. c #FDD102",
"3. c #F9D00A",
"4. c #E6C016",
"5. c #E7C11C",
"6. c #ECC21C",
"7. c #EFC81C",
"8. c #F5CB13",
"9. c #FACC14",
"0. c #F2C71E",
"q. c #F3CB1C",
"w. c #F7D017",
"e. c #EDC423",
"r. c #ECCA22",
"t. c #F1C524",
"y. c #F3CA22",
"u. c #F3CC2B",
"i. c #F7D22D",
"p. c #F9D12E",
"a. c #EFCD32",
"s. c #F5CC33",
"d. c #FBD334",
"f. c #F9D734",
"g. c #FCD53B",
"h. c #FEDA3D",
"j. c #A68C42",
"k. c #AD9542",
"l. c #A18C53",
"z. c #A09153",
"x. c #B8A551",
"c. c #BDAE55",
"v. c #C1A645",
"b. c #D2B74E",
"n. c #C4AD56",
"m. c #CAB050",
"M. c #D6C055",
"N. c #FED744",
"B. c #FEDB44",
"V. c #FFD74C",
"C. c #FEDB4B",
"Z. c #E5C759",
"A. c #FDDA52",
"S. c #F5D559",
"D. c #FBDA5A",
"F. c #E4CB67",
"G. c #EACF65",
"H. c #EFD564",
"J. c #F1D866",
"K. c #F9DB64",
/* pixels */
"                          X     . @ q d N W e.s.g.N.A.&.&.I h < .             X   X                 ",
"                              + e H $.%.a.h.C.C.C.C.C.A.A.A.D.H.x.2 + X         X X                 ",
"                        X . + k ~ | +.g.N.A.C.C.C.C.C.C.A.A.V.C.A.G.j.@     X       +               ",
"                          * A )  .e.g.C.C.V.C.C.C.C.C.C.V.C.C.B.C.A.D.m., .           X             ",
"                        ; #.} } r.C.C.C.B.B.B.B.C.C.C.C.B.C.B.C.C.C.C.A.F.7           X             ",
"                .   . & G } | t.B.B.B.B.C.C.C.C.B.B.B.B.B.B.C.B.C.C.C.C.A.M.-     X   X             ",
"                    @ P ! ' 6.N.C.V.C.C.C.A.C.s.r.6.6.e.t.u.g.B.B.N.B.B.B.C.n.+         X           ",
"                  . p ( |  .f.B.C.C.C.C.h.u.+.} | ' ] | ' }  .5.g.B.C.C.C.B.A.M #   X               ",
"                . 3 ^ ! ' u.h.C.B.C.C.N.t.' ' [ ' ' ' [ [ [ [ ! ! u.B.C.A.C.C.H.w . X               ",
"                O Z [ [ 4.C.C.C.C.B.B.@.| ' ' [ [ [ [ [ ! ' ' [ [ ! e.B.C.A.A.C.v.# X               ",
"                e ` ' o.f.C.C.C.B.B.@.| ' ] [ ! [ [ [ ' ' ' ' ' [ } ' q.B.A.A.B.D.a   .             ",
"              + G } ' 6.B.B.C.C.B.r.} ' ] ' [ [ [ [ [ [ ' [ ' ' [ [  . .f.C.C.C.A.c.+               ",
"          X   6 / [ | d.C.B.B.C.g.! } ' ' ' [ [ ' ' ' ' [ ' ' ' ] ' ' } 6.B.B.B.C.J.2               ",
"              Z  .] ..N.C.C.B.B.@.! ' ' ' [ [ [ ' ' } ' ' ' ] ' ' ' ' [ [ i.C.C.C.A.k..             ",
"            * _ } | y.B.C.C.C.u.} ' ' [ [ [ [ ' [ ] y.0.} [ ' ] ] ' ' [ [  .B.C.B.B.Z.=             ",
"        X   y o.' } d.C.C.C.B.4.[ ' [ [ [ [ ] ] [ 4.f.d. .' ] ' ' ] [ [ [  .a.C.C.B.S.f             ",
"      .   . c o.' O.C.C.C.C.d.} [ ' ' [ [ ' ] ' } p.B.B.t.} ' ' ' ' ' ] ' ' 4.C.C.B.D.J .           ",
"          o C } [ 7.B.B.C.C.0.[ ' [ [ [ [ ] ' } e.B.C.C.f. .' ' | ] [ ] ' '  .f.C.C.A.b..           ",
"          @ ( [ } u.B.C.C.V. .[ ' ' [ [ [ [ ' +.d.C.A.C.B.0.' } ' ' ' ' ] [ } i.C.A.C.K.#           ",
"  X       6 o.[ } i.N.A.A.g. .[ ' ' ' [ ' ' O.u.B.C.C.C.B.h.e. .' ' ] ' [ [ [ 6.B.C.C.K.<           ",
"          u o.'  .d.B.C.B.d.} ' ' ' [ } O.u.g.C.C.A.C.C.C.C.C.h.6.' [ ' | ' [ +.B.B.C.S.g           ",
"        . l o.]  .g.C.C.B.u.} [ ' ! [ 0.d.B.C.C.C.C.C.C.C.C.C.B.B.p...[ ] ' '  .B.C.C.K.h           ",
"        . m } ]  .B.C.C.h.r.[ ' ' [ } d.B.C.C.C.B.B.C.C.B.B.C.C.C.B.e.' ] ] '  .f.C.A.D.L           ",
"        . R } ' O.B.C.C.B.7.[ [ ' ' ! 6.B.C.A.C.C.C.C.C.B.C.C.A.C.g.O.[ ' | [  .d.B.C.A.z.X         ",
"        . I  .} O.B.C.C.h.7.} [ ' ' ' o.f.B.C.C.C.C.C.A.C.C.C.C.B.t.[ [ ' }  . .d.C.C.D.l.          ",
"        . R  .[ O.h.B.B.B.e.} [ ' ] | } y.h.B.C.C.C.B.B.B.B.B.B.g.O.] [ ' ' '  .p.B.N.A.l.          ",
"    X X . R } ' [ 3.3.1.1.X.' [ ' ' [ [ ] <.3.3.1.3.<.<.9.3.<.1.>.[ ' [ [ ] ' ] <.9.<.w.L .         ",
"        . K } ' ] ;.:.2.-.=.] ' [ ' [ { ] >.1.:.:.:.:.2.:.:.:.:.{ ' ' [ ] ] [ ] ,.;.2.9.m .         ",
"      X   d O.] ] :.:.:.:.=.| ' [ ! [ [ ] =.1.-.:.:.:.:.:.:.:.,.] ] [ [ [ ] ] ] -.:.:.9.n .         ",
"        . i o.] ] -.:.:.:.-.] ' [ [ [ [ [ { :.:.:.:.:.:.:.:.:.-.] [ [ [ [ ] [ { :.:.;.w.p .         ",
"          5 o.' ] =.:.:.:.-.' ' [ ' ' [ ] =.:.:.:.:.:.:.:.:.:.-.] ] ] ' [ ] [ *.:.:.:.q.9           ",
"          $ `  .' =.:.:.:.1.] [ [ [ ' ' [ { :.:.:.:.2.:.:.:.:.;.] ] ' ' [ ] [ >.:.:.-.y.@           ",
"          + V } [ X.:.:.:.:.X.] [ [ ' ' ' { :.:.:.:.-.:.:.2.:.-.[ [ ' ' ] ' ] ,.2.:.-.~ .           ",
"        X . z ! [ ] :.:.:.:.-.[ ] [ [ ' ] ] 1.;.1.*.] { =.-.:.,.[ ' ' ] ' ' { 1.:.:.9.b .           ",
".     X   . y ) [ [ -.:.:.:.:.{ } ] ' ' [ [ =.{ ] ] [ ' ] ] { { ' ' ' ' ] ' =.2.:.2.8.t             ",
"      X     % $.} [ *.:.:.:.2.-.] ' ' ' [ ] ' ' ] ]  .' ' ] ] ' ' ' ' ' ' { :.:.:.-.%.*             ",
"            . Z O.[ { -.:.:.:.:.{ [ [ [ ' ' ] [ [ [ [ [ ' ' ' ' ' ' ' [ [ =.:.:.:.9.D .             ",
"X     .       8 _ [ ] ,.:.:.:.2.=.[ ' ] ' [ [ [ ' [ ' [ [ ' ' [ ' ' ] [ { :.:.:.:.0.6               ",
"              # G  .' { :.:.:.:.:.=.] ] ' ' ' [ [ ' ' ' ' [ [ [ ' ' ' ] -.:.:.:.;.H +               ",
"              . 0 _ ] ' =.:.:.:.;.:.=.' ] ' [ ' ' [ [ ' [ [ [ } ' ' ] =.2.2.-.-.q.r .               ",
"            X   + S [ ' { :.:.:.:.:.-.X.] ] [ ] [ ' [ [ [ [ ' ' [ [ =.2.2.;.-.;.H o                 ",
"              X   > ^ ' ' *.2.:.:.:.:.1.X.] ] [ [ [ [ [ [ ' ' ' { -.:.:.:.:.1.e.3       X X         ",
"                  . p ( ] [ -.:.:.:.:.:.-.-.{ ' ] [ ] [ [ ' { X.:.:.:.1.:.:.8.s .   . X             ",
"                    + v  .[ { -.:.:.2.:.:.-.:.-.=.X.{ { { =.;.:.:.:.:.-.-.1.#.#       X             ",
"                X     $ P } [ *.1.:.:.:.:.:.:.:.:.:.:.:.:.:.:.:.:.:.:.:.1.~ :       X X             ",
"                X .   . % T ! } *.-.:.:.2.:.:.:.:.:.:.:.:.:.:.:.:.2.;.9.$.:                         ",
"              X .         * U Q [ =.:.:.:.:.:.:.:.:.:.:.:.:.:.2.;.,.9.F ;                           ",
"                            @ x _ } { -.:.:.:.:.2.:.:.:.:.:.:.:.1.r.b @                             ",
"                            . . 1 D ~ } >.1.-.:.:.:.:.:.:.,.9.6.Y 3 .                               ",
"                        X     . . + < j B ] =.-.:.-.-.:.;.E j 4 O . X X                             "
};
