/* XPM */
static char *ZXRvaWxlX3Nm[] = {
/* columns rows colors chars-per-pixel */
"50 50 133 2 ",
"   c #FECE01",
".  c #FCCE0B",
"X  c #FFD200",
"o  c #FFDC01",
"O  c #FFD00B",
"+  c #F7CD16",
"@  c #FACD12",
"#  c #F6CC1E",
"$  c #FED213",
"%  c #FED31C",
"&  c #FFE400",
"*  c #F7EB00",
"=  c #FEEB00",
"-  c #FFEF0B",
";  c #FEF400",
":  c #FDFC00",
">  c #ECEB12",
",  c #FFEA17",
"<  c #F4E31C",
"1  c #FDEA1D",
"2  c #FFF411",
"3  c #FCF31C",
"4  c #F4CD22",
"5  c #F8CE22",
"6  c #F1CD2F",
"7  c #EFD12F",
"8  c #FED424",
"9  c #F4D32B",
"0  c #FFD62C",
"q  c #EFCB35",
"w  c #EFCB39",
"e  c #F1CD33",
"r  c #F0CD3D",
"t  c #ECD33B",
"y  c #F4D034",
"u  c #FED733",
"i  c #F7DB35",
"p  c #FFD834",
"a  c #F3D23C",
"s  c #FCD73A",
"d  c #FED93B",
"f  c #FFEC24",
"g  c #FFE52D",
"h  c #FFF220",
"j  c #FEF42A",
"k  c #FCEB32",
"l  c #FFE73C",
"z  c #FBF333",
"x  c #EECD42",
"c  c #E8CA4E",
"v  c #EDDB4E",
"b  c #FBD743",
"n  c #FEDA43",
"m  c #F8D64E",
"M  c #FEDB4B",
"N  c #E8D15E",
"B  c #F6D752",
"V  c #FBD954",
"C  c #F3DB5E",
"Z  c #FADB5B",
"A  c #EEE843",
"S  c #F2E645",
"D  c #F4EF43",
"F  c #FEEB42",
"G  c #FAE44E",
"H  c #FFEC4A",
"J  c #FDF346",
"K  c #FFF34D",
"L  c #EAE254",
"P  c #EFE35D",
"I  c #F4E551",
"U  c #FFE754",
"Y  c #FFEA56",
"T  c #FFE15D",
"R  c #F4EF5F",
"E  c #FFEC58",
"W  c #FFF75C",
"Q  c #E4CC68",
"!  c #EDDB67",
"~  c #F5D964",
"^  c #F6DC69",
"/  c #ECD574",
"(  c #EBD975",
")  c #F0D973",
"_  c #F3DC7B",
"`  c #FEE360",
"'  c #FDE06A",
"]  c #F4EC6B",
"[  c #FFEB6C",
"{  c #FFFB69",
"}  c #FEE676",
"|  c #FFEE7D",
" . c #FFF77D",
".. c #FFFB7A",
"X. c #EED986",
"o. c #FAE382",
"O. c #FFEE85",
"+. c #F3E18F",
"@. c #FAE58A",
"#. c #FFED89",
"$. c #FFF681",
"%. c #FFF38E",
"&. c #FFFB8E",
"*. c #FBE99F",
"=. c #FBF196",
"-. c #FFF895",
";. c #FFFF96",
":. c #FFF798",
">. c #FFF69D",
",. c #FFF999",
"<. c #FFEFA1",
"1. c #FFF4A3",
"2. c #FFFEA3",
"3. c #FFFFA6",
"4. c #FFF6AD",
"5. c #FFFFAA",
"6. c #FFFFAB",
"7. c #FFF7B2",
"8. c #FFFFB1",
"9. c #FFFAB5",
"0. c #FFFFB4",
"q. c #FFFFB5",
"w. c #FFFEB6",
"e. c #FFFFB7",
"r. c #FFF6B9",
"t. c #FFFBB8",
"y. c #FFFFBA",
"u. c #FFFFBB",
"i. c #FFFFC3",
"p. c #FFFFC5",
"a. c #FFFFC6",
"s. c None",
"d. c black",
/* pixels */
"s.s.s.s.s.s.s.s.s.s.s.s.s.s.s.s.s.s.s.s.s.s.s.s.s.s.s.s.s.s.s.s.s.s.s.s.s.s.s.s.s.s.s.s.s.s.s.s.s.s.",
"s.s.s.s.s.s.s.s.s.s.s.s.s.s.s.s.s.s.s.s.s.s.s.s.s.s.s.s.s.s.s.s.s.s.s.s.s.s.s.s.s.s.s.s.s.s.s.s.s.s.",
"s.s.s.s.s.s.s.s.s.s.s.s.s.s.s.s.s.s.s.s.s.s.s.s.s.s.s.s.s.s.s.s.s.s.s.s.s.s.s.s.s.s.s.s.s.s.s.s.s.s.",
"s.s.s.s.s.s.s.s.s.s.s.s.s.s.s.s.s.s.s.s.s.s.s.s.s.s.s.s.s.s.s.s.s.s.s.s.s.s.s.s.s.s.s.s.s.s.s.s.s.s.",
"s.s.s.s.s.s.s.s.s.s.s.s.s.s.s.s.s.s.s.s.s.s.s.s.s.s.s.s.s.s.s.s.s.s.s.s.s.s.s.s.s.s.s.s.s.s.s.s.s.s.",
"s.s.s.s.s.s.s.s.s.s.s.s.s.s.s.s.s.s.s.s.s.s.s.s.s.s.s.s.s.s.s.s.s.s.s.s.s.s.s.s.s.s.s.s.s.s.s.s.s.s.",
"s.s.s.s.s.s.s.s.s.s.s.s.s.s.s.s.s.s.s.s.s.s.s.s.s.s.s.s.s.s.s.s.s.s.s.s.s.s.s.s.s.s.s.s.s.s.s.s.s.s.",
"s.s.s.s.s.s.s.s.s.s.s.s.s.s.s.s.s.s.s.s.s.s.s.s.s.s.s.s.s.s.s.s.s.s.s.s.s.s.s.s.s.s.s.s.s.s.s.s.s.s.",
"s.s.s.s.s.s.s.s.s.s.s.s.s.s.s.s.s.s.s.s.s.s.s.s.> > s.s.s.s.s.s.s.s.s.s.s.s.s.s.s.s.s.s.s.s.s.s.s.s.",
"s.s.s.s.s.s.s.s.s.s.s.s.s.s.s.s.s.s.s.s.s.s.s.3 1 1 3 s.s.s.s.s.s.s.s.s.s.s.s.s.s.s.s.s.s.s.s.s.s.s.",
"s.s.s.s.s.s.s.s.s.s.s.s.s.s.s.s.s.s.s.s.s.s.s.j k k 1 z s.s.s.s.s.s.s.s.s.s.s.s.s.s.s.s.s.s.s.s.s.s.",
"s.s.s.s.s.s.s.s.s.s.s.s.s.s.s.s.s.s.s.s.s.s.D W { F g < s.s.s.s.s.s.s.s.s.s.s.s.s.s.s.s.s.s.s.s.s.s.",
"s.s.s.s.s.s.s.s.s.s.s.s.s.s.s.s.s.s.s.s.s.] ] ;. .G M i I i.s.s.s.s.s.s.s.s.s.s.s.s.s.s.s.s.s.s.s.s.",
"s.s.s.s.s.s.s.s.s.s.s.s.s.s.s.s.s.s.s.s.$.L =.8.} Z M M t >.s.s.s.s.s.s.s.s.s.s.s.s.s.s.s.s.s.s.s.s.",
"s.s.s.s.s.s.s.s.s.s.s.s.s.s.s.s.s.s.s.p.P C 9.r.^ M n d y ~ p.s.s.s.s.s.s.s.s.s.s.s.s.s.s.s.s.s.s.s.",
"s.s.s.s.s.s.s.s.s.s.s.s.s.s.s.s.s.s.s.4.N } u.<.Z d d p 0 x 4.s.s.s.s.s.s.s.s.s.s.s.s.s.s.s.s.s.s.s.",
"s.s.s.s.s.s.s.s.s.s.s.s.s.s.s.s.s.s.q.( / ,.6._ B s u 0 0 y ^ y.s.s.s.s.s.s.s.s.s.s.s.s.s.s.s.s.s.s.",
"s.s.s.s.s.s.s.s.s.s.s.s.s.s.s.s.7.1._ Q +.8.#.Z b p u 0 8 0 w T #.1.&.s.s.s.s.s.s.s.s.s.s.s.s.s.s.s.",
"s.s.s.s.s.s.s.s.s.s.s.s.s.z A L ! / / X.r.q.~ b s 0 0 8 % % % 4 4 4 4 9 i g - s.s.s.s.s.s.s.s.s.s.s.",
"s.s.s.s.s.s.s.s.s.* ; 3 j F U [ | %.,.6.q.@.m p 0 0 8 % % $ O O         X X X o o = s.s.s.s.s.s.s.s.",
"s.s.s.s.s.s.s.s.* s 2 J  .%.%.3.5.2.:.O.^ B s 0 8 8 % % $ $ .             . . . @ ; s.s.s.s.s.s.s.s.",
"s.s.s.s.s.s.s.s.; d 3 K  .%.o.o._ ( ^ B n p 0 0 8 % % $ O O                   . = ; s.s.s.s.s.s.s.s.",
"s.s.s.s.s.s.s.s.s.* M l U T Z V V m n s u u 8 8 % $ $ O O                     & = ; s.s.s.s.s.s.s.s.",
"s.s.s.s.s.s.s.s.s.s.< M G M M n d d u 0 0 8 % % $ $ O O                   . & & , s.s.s.s.s.s.s.s.s.",
"s.s.s.s.s.s.s.s.s.s.J 9 M d n d d u 0 0 8 % % $ $ O .                     & = f s.s.s.s.s.s.s.s.s.s.",
"s.s.s.s.s.s.s.s.s.s.s.H a n d d u 0 0 8 % % $ $ O O                     & = h s.s.s.s.s.s.s.s.s.s.s.",
"s.s.s.s.s.s.s.s.s.s.s.s.E x s 0 0 8 8 % % $ $ . X                     & = h s.s.s.s.s.s.s.s.s.s.s.s.",
"s.s.s.s.s.s.s.s.s.s.s.s.s.E r u 8 8 % $ $ O . .   X                 o = 3 s.s.s.s.s.s.s.s.s.s.s.s.s.",
"s.s.s.s.s.s.s.s.s.s.s.s.s.s.U e 0 % % $ @ O X                     . = s.s.s.s.s.s.s.s.s.s.s.s.s.s.s.",
"s.s.s.s.s.s.s.s.s.s.s.s.s.s...q 8 $ $ . .                         @ = s.s.s.s.s.s.s.s.s.s.s.s.s.s.s.",
"s.s.s.s.s.s.s.s.s.s.s.s.s.s.{ q 8 $ O                             @ ; s.s.s.s.s.s.s.s.s.s.s.s.s.s.s.",
"s.s.s.s.s.s.s.s.s.s.s.s.s.s.K 6 % O   O                           $ ; s.s.s.s.s.s.s.s.s.s.s.s.s.s.s.",
"s.s.s.s.s.s.s.s.s.s.s.s.s.s.j # @                                 . ; s.s.s.s.s.s.s.s.s.s.s.s.s.s.s.",
"s.s.s.s.s.s.s.s.s.s.s.s.s.s.; $                                   . ; s.s.s.s.s.s.s.s.s.s.s.s.s.s.s.",
"s.s.s.s.s.s.s.s.s.s.s.s.s.s.;                                       ; d.s.s.s.s.s.s.s.s.s.s.s.s.s.s.",
"s.s.s.s.s.s.s.s.s.s.s.s.s.s.=               .   o o o .           X O d.s.s.s.s.s.s.s.s.s.s.s.s.s.s.",
"s.s.s.s.s.s.s.s.s.s.s.s.s.s.&           X X o ; s.s.; ; &             s.s.s.s.s.s.s.s.s.s.s.s.s.s.s.",
"s.s.s.s.s.s.s.s.s.s.s.s.s.s.$       . @ o = s.s.s.s.s.s.; ; = .       s.s.s.s.s.s.s.s.s.s.s.s.s.s.s.",
"s.s.s.s.s.s.s.s.s.s.s.s.s.k 4     . + = s.s.s.s.s.s.s.s.s.s.: : ; X   s.s.s.s.s.s.s.s.s.s.s.s.s.s.s.",
"s.s.s.s.s.s.s.s.s.s.s.s.s.v q + 4 & : s.s.s.s.s.s.s.s.s.s.s.s.s.s.: : s.s.s.s.s.s.s.s.s.s.s.s.s.s.s.",
"s.s.s.s.s.s.s.s.s.s.s.s.s.S c 7 ; s.s.s.s.s.s.s.s.s.s.s.s.s.s.s.s.s.s.s.s.s.s.s.s.s.s.s.s.s.s.s.s.s.",
"s.s.s.s.s.s.s.s.s.s.s.s.s.s.z s.s.s.s.s.s.s.s.s.s.s.s.s.s.s.s.s.s.s.s.s.s.s.s.s.s.s.s.s.s.s.s.s.s.s.",
"s.s.s.s.s.s.s.s.s.s.s.s.s.s.s.s.s.s.s.s.s.s.s.s.s.s.s.s.s.s.s.s.s.s.s.s.s.s.s.s.s.s.s.s.s.s.s.s.s.s.",
"s.s.s.s.s.s.s.s.s.s.s.s.s.s.s.s.s.s.s.s.s.s.s.s.s.s.s.s.s.s.s.s.s.s.s.s.s.s.s.s.s.s.s.s.s.s.s.s.s.s.",
"s.s.s.s.s.s.s.s.s.s.s.s.s.s.s.s.s.s.s.s.s.s.s.s.s.s.s.s.s.s.s.s.s.s.s.s.s.s.s.s.s.s.s.s.s.s.s.s.s.s.",
"s.s.s.s.s.s.s.s.s.s.s.s.s.s.s.s.s.s.s.s.s.s.s.s.s.s.s.s.s.s.s.s.s.s.s.s.s.s.s.s.s.s.s.s.s.s.s.s.s.s.",
"s.s.s.s.s.s.s.s.s.s.s.s.s.s.s.s.s.s.s.s.s.s.s.s.s.s.s.s.s.s.s.s.s.s.s.s.s.s.s.s.s.s.s.s.s.s.s.s.s.s.",
"s.s.s.s.s.s.s.s.s.s.s.s.s.s.s.s.s.s.s.s.s.s.s.s.s.s.s.s.s.s.s.s.s.s.s.s.s.s.s.s.s.s.s.s.s.s.s.s.s.s.",
"s.s.s.s.s.s.s.s.s.s.s.s.s.s.s.s.s.s.s.s.s.s.s.s.s.s.s.s.s.s.s.s.s.s.s.s.s.s.s.s.s.s.s.s.s.s.s.s.s.s.",
"s.s.s.s.s.s.s.s.s.s.s.s.s.s.s.s.s.s.s.s.s.s.s.s.s.s.s.s.s.s.s.s.s.s.s.s.s.s.s.s.s.s.s.s.s.s.s.s.s.s."
};
