/* XPM */
static char *ffa103a16b7448dda3c2cebbafa8d519fKprDL8an2yAJK0c[] = {
/* columns rows colors chars-per-pixel */
"50 50 110 2 ",
"   c #FECE01",
".  c #FCCE0B",
"X  c #FED001",
"o  c #FFD00B",
"O  c #F7CD16",
"+  c #F9CD12",
"@  c #F6CD1C",
"#  c #FFD213",
"$  c #FED31C",
"%  c #F4CC23",
"&  c #F8CE22",
"*  c #F1CC2C",
"=  c #FED424",
"-  c #FFD62C",
";  c #EFCC34",
":  c #EDCB3B",
">  c #F0CC32",
",  c #F0CE3B",
"<  c #F4D034",
"1  c #FED733",
"2  c #FFD834",
"3  c #F6D339",
"4  c #FCD73A",
"5  c #FED93B",
"6  c #EDCD43",
"7  c #EACC4E",
"8  c #F4D445",
"9  c #FBD743",
"0  c #FEDA43",
"q  c #F5D54C",
"w  c #F8D74D",
"e  c #FEDC4B",
"r  c #E6CB54",
"t  c #EACE53",
"y  c #E6CB5C",
"u  c #EDD050",
"i  c #EFD25A",
"p  c #F4D652",
"a  c #F6D957",
"s  c #FCDB52",
"d  c #F4D85D",
"f  c #FADC5C",
"g  c #FFE15F",
"h  c #E6CE60",
"j  c #E9CF61",
"k  c #E3CB69",
"l  c #EDD363",
"z  c #E7D16D",
"x  c #ECD46B",
"c  c #F5DA65",
"v  c #FADE62",
"b  c #F1D769",
"n  c #F4DB6C",
"m  c #F9DE6A",
"M  c #E6CF71",
"N  c #EBD574",
"B  c #E7D37D",
"V  c #EBD679",
"C  c #EDD97C",
"Z  c #F3DB72",
"A  c #F3DC7B",
"S  c #FDE166",
"D  c #FDE16B",
"F  c #FFEA6E",
"G  c #F7E070",
"H  c #FEE472",
"J  c #FCE47E",
"K  c #FFEC7E",
"L  c #FFF27D",
"P  c #E5D482",
"I  c #EAD680",
"U  c #EEDA85",
"Y  c #EBDA8A",
"T  c #F4DE82",
"R  c #EEDF9A",
"E  c #F9E385",
"W  c #FFEC84",
"Q  c #F3E18F",
"!  c #FAE58A",
"~  c #FFEC8A",
"^  c #FFF38C",
"/  c #FFF98A",
"(  c #FBE790",
")  c #FEEC90",
"_  c #F2E09E",
"`  c #FEED9D",
"'  c #FFF495",
"]  c #FFFA95",
"[  c #FFF39C",
"{  c #FFFB9B",
"}  c #F4E5A7",
"|  c #FAEAA4",
" . c #FFF3A6",
".. c #FFFFA5",
"X. c #FFF5AD",
"o. c #FFFFAA",
"O. c #FAEEB2",
"+. c #FFF4B2",
"@. c #FFFEB5",
"#. c #FEF3BC",
"$. c #FFFDBB",
"%. c #FFF6C4",
"&. c #FFFFC5",
"*. c #FFFFCC",
"=. c #FFFFD4",
"-. c #FFFFDC",
";. c #FFFFE3",
":. c #FFFFEB",
">. c #FFFFF4",
",. c #FFFFFF",
/* pixels */
",.,.,.,.,.,.,.,.,.,.,.,.,.,.,.,.,.,.,.,.,.,.,.,.,.,.,.,.,.,.,.,.,.,.,.,.,.,.,.,.,.,.,.,.,.,.,.,.,.,.",
",.,.,.,.,.,.,.,.,.,.,.,.,.,.,.,.,.,.,.,.,.,.,.,.,.,.,.,.,.,.,.,.,.,.,.,.,.,.,.,.,.,.,.,.,.,.,.,.,.,.",
",.,.,.,.,.,.,.,.,.,.,.,.,.,.,.,.,.,.,.,.,.,.,.,.,.,.,.,.,.,.,.,.,.,.,.,.,.,.,.,.,.,.,.,.,.,.,.,.,.,.",
",.,.,.,.,.,.,.,.,.,.,.,.,.,.,.,.,.,.,.,.,.,.,.,.,.,.,.,.,.,.,.,.,.,.,.,.,.,.,.,.,.,.,.,.,.,.,.,.,.,.",
",.,.,.,.,.,.,.,.,.,.,.,.,.,.,.,.,.,.,.,.,.,.,.,.,.,.,.,.,.,.,.,.,.,.,.,.,.,.,.,.,.,.,.,.,.,.,.,.,.,.",
",.,.,.,.,.,.,.,.,.,.,.,.,.,.,.,.,.,.,.,.,.,.,.>.:.>.>.,.,.,.,.,.,.,.,.,.,.,.,.,.,.,.,.,.,.,.,.,.,.,.",
",.,.,.,.,.,.,.,.,.,.,.,.,.,.,.,.,.,.,.,.,.,.,.:.=.=.:.,.,.,.,.,.,.,.,.,.,.,.,.,.,.,.,.,.,.,.,.,.,.,.",
",.,.,.,.,.,.,.,.,.,.,.,.,.,.,.,.,.,.,.,.,.>.;.#.B B %.:.>.,.,.,.,.,.,.,.,.,.,.,.,.,.,.,.,.,.,.,.,.,.",
",.,.,.,.,.,.,.,.,.,.,.,.,.,.,.,.,.,.,.,.,.:.&.N 7 7 C *.:.,.,.,.,.,.,.,.,.,.,.,.,.,.,.,.,.,.,.,.,.,.",
",.,.,.,.,.,.,.,.,.,.,.,.,.,.,.,.,.,.,.,.,.-.` i s s t { ;.,.,.,.,.,.,.,.,.,.,.,.,.,.,.,.,.,.,.,.,.,.",
",.,.,.,.,.,.,.,.,.,.,.,.,.,.,.,.,.,.,.,.>.=.N f v f w n =.,.,.,.,.,.,.,.,.,.,.,.,.,.,.,.,.,.,.,.,.,.",
",.,.,.,.,.,.,.,.,.,.,.,.,.,.,.,.,.,.,.>.;.O.z L / S e 7 +.:.>.,.,.,.,.,.,.,.,.,.,.,.,.,.,.,.,.,.,.,.",
",.,.,.,.,.,.,.,.,.,.,.,.,.,.,.,.,.,.,.:.&.P Y o.^ v e q C *.:.,.,.,.,.,.,.,.,.,.,.,.,.,.,.,.,.,.,.,.",
",.,.,.,.,.,.,.,.,.,.,.,.,.,.,.,.,.,.,.;.[ z | $.J f e e 7 { ;.,.,.,.,.,.,.,.,.,.,.,.,.,.,.,.,.,.,.,.",
",.,.,.,.,.,.,.,.,.,.,.,.,.,.,.,.,.,.>.=.x c +.$.c e 0 5 , c =.,.,.,.,.,.,.,.,.,.,.,.,.,.,.,.,.,.,.,.",
",.,.,.,.,.,.,.,.,.,.,.,.,.,.,.,.>.>.-.+.j H $.| f 5 5 1 - 6 X.;.>.>.,.,.,.,.,.,.,.,.,.,.,.,.,.,.,.,.",
",.,.,.,.,.,.,.,.,.,.,.,.,.,.,.>.:.=.@.V N ] o.A s 4 1 1 = < n $.-.:.>.,.,.,.,.,.,.,.,.,.,.,.,.,.,.,.",
",.,.,.,.,.,.>.>.:.-.;.;.-.-.=.*.#.| A k Q @.~ d 9 1 1 - = = , D ) X.$.*.=.=.-.-.-.;.>.,.,.,.,.,.,.,.",
",.,.,.,.,.,.>.-.@.' ~ J n l y y z N N U #.@.v 9 2 1 - = $ $ $ & % * ; : 8 f H W ' @.-.>.,.,.,.,.,.,.",
",.,.,.,.,.>.;._ y 6 q p a f g F K ^ { o.@.! q 1 - - = $ $ # o o .       . @ % * : r } ;.>.,.,.,.,.,.",
",.,.,.,.,.:.*.k : 3 s v ' ' ) ..o...' W D w 4 1 - = $ $ # # .             . . + + ; M *.>.,.,.,.,.,.",
",.,.,.,.,.:.*.C : 4 s v ~ ~ T E A Z c a 9 2 - - = $ # # o . .                   . ; T =.>.,.,.,.,.,.",
",.,.,.,.,.,.:.*.l 8 e s f S f f a w 9 4 2 1 = = $ # # o o X                   . * n *.>.,.,.,.,.,.,.",
",.,.,.,.,.,.,.;.$.Z 6 e e e 0 0 5 5 1 1 - = $ $ # o o X .             .     + * c $.;.,.,.,.,.,.,.,.",
",.,.,.,.,.,.,.>.;.&.N 6 e 0 0 5 2 1 - - = $ $ # # o .   X                 . > m &.:.>.,.,.,.,.,.,.,.",
",.,.,.,.,.,.,.,.,.:.@.n 6 5 5 2 1 - - = $ $ # # o o     .               . > m $.;.,.,.,.,.,.,.,.,.,.",
",.,.,.,.,.,.,.,.,.>.;.&.G 6 5 1 1 = = = $ # o . X                     + ; G &.:.>.,.,.,.,.,.,.,.,.,.",
",.,.,.,.,.,.,.,.,.,.,.:.&.Z : 1 = = $ # # o o . X X               . . * G &.:.,.,.,.,.,.,.,.,.,.,.,.",
",.,.,.,.,.,.,.,.,.,.,.>.:.&.m > = $ $ # o X .                     . * D &.;.,.,.,.,.,.,.,.,.,.,.,.,.",
",.,.,.,.,.,.,.,.,.,.,.,.,.-.] ; = # # o . .                       + ; { ;.,.,.,.,.,.,.,.,.,.,.,.,.,.",
",.,.,.,.,.,.,.,.,.,.,.,.,.-.^ , = # o X                           + ; { -.,.,.,.,.,.,.,.,.,.,.,.,.,.",
",.,.,.,.,.,.,.,.,.,.,.,.,.-.J * $ o X .                           . ; ~ -.,.,.,.,.,.,.,.,.,.,.,.,.,.",
",.,.,.,.,.,.,.,.,.,.,.,.,.-.S @ +                                 . % H -.,.,.,.,.,.,.,.,.,.,.,.,.,.",
",.,.,.,.,.,.,.,.,.,.,.,.,.*.p +                                   . O f =.,.,.,.,.,.,.,.,.,.,.,.,.,.",
",.,.,.,.,.,.,.,.,.,.,.,.,.*.: X                                     . 8 =.,.,.,.,.,.,.,.,.,.,.,.,.,.",
",.,.,.,.,.,.,.,.,.,.,.,.>.$.* .     X       . O @ @ + .             o ; &.>.,.,.,.,.,.,.,.,.,.,.,.,.",
",.,.,.,.,.,.,.,.,.,.,.,.;. .*             . % : m m : @ .             * +.:.,.,.,.,.,.,.,.,.,.,.,.,.",
",.,.,.,.,.,.,.,.,.,.,.>.-.( %       . + % ; v { &.&.' f ; @ + .       * ` ;.>.,.,.,.,.,.,.,.,.,.,.,.",
",.,.,.,.,.,.,.,.,.,.,.:.=.A %     . @ : Z X.=.-.:.:.-.=. .b ; @ .     % E =.>.,.,.,.,.,.,.,.,.,.,.,.",
",.,.,.,.,.,.,.,.,.,.,.:.=.V ; O @ > a ' *.;.>.,.,.,.,.>.;.&.) p > @ O ; U -.>.,.,.,.,.,.,.,.,.,.,.,.",
",.,.,.,.,.,.,.,.,.,.,.>.;.R 7 6 x [ *.;.:.>.,.,.,.,.,.,.>.:.-.*.` i 6 r } ;.>.,.,.,.,.,.,.,.,.,.,.,.",
",.,.,.,.,.,.,.,.,.,.,.,.:.=.` [ &.-.>.,.,.,.,.,.,.,.,.,.,.,.,.>.-.&.` ` -.>.,.,.,.,.,.,.,.,.,.,.,.,.",
",.,.,.,.,.,.,.,.,.,.,.,.,.>.;.;.:.>.,.,.,.,.,.,.,.,.,.,.,.,.,.,.>.:.-.;.>.,.,.,.,.,.,.,.,.,.,.,.,.,.",
",.,.,.,.,.,.,.,.,.,.,.,.,.,.,.,.,.,.,.,.,.,.,.,.,.,.,.,.,.,.,.,.,.,.,.,.,.,.,.,.,.,.,.,.,.,.,.,.,.,.",
",.,.,.,.,.,.,.,.,.,.,.,.,.,.,.,.,.,.,.,.,.,.,.,.,.,.,.,.,.,.,.,.,.,.,.,.,.,.,.,.,.,.,.,.,.,.,.,.,.,.",
",.,.,.,.,.,.,.,.,.,.,.,.,.,.,.,.,.,.,.,.,.,.,.,.,.,.,.,.,.,.,.,.,.,.,.,.,.,.,.,.,.,.,.,.,.,.,.,.,.,.",
",.,.,.,.,.,.,.,.,.,.,.,.,.,.,.,.,.,.,.,.>.,.,.,.,.,.,.,.,.,.,.,.,.,.,.,.,.,.,.,.,.,.,.,.,.,.,.,.,.,.",
",.,.,.,.,.,.,.,.,.,.,.,.,.,.,.,.,.,.,.,.,.,.,.,.,.,.,.,.,.,.,.,.,.,.,.,.,.,.,.,.,.,.,.,.,.,.,.,.,.,.",
",.,.,.,.,.,.,.,.,.,.,.,.,.,.,.,.,.,.,.,.,.,.,.,.,.,.,.,.,.,.,.,.,.,.,.,.,.,.,.,.,.,.,.,.,.,.,.,.,.,.",
",.,.,.,.,.,.,.,.,.,.,.,.,.,.,.,.,.,.,.,.,.,.,.,.,.,.,.,.,.,.,.,.,.,.,.,.,.,.,.,.,.,.,.,.,.,.,.,.,.,."
};
