/* XPM */
static char *d5eae5c487e245738794b0f75b5577aeTcWQuBe5762jmmWY[] = {
/* columns rows colors chars-per-pixel */
"50 50 151 2 ",
"   c None",
".  c #FDBB14",
"X  c #FCB918",
"o  c #FAC11F",
"O  c #FAC327",
"+  c #FAC72F",
"@  c #FCC92F",
"#  c #FACB39",
"$  c #FAD44D",
"%  c #FCDB55",
"&  c #FEED4E",
"*  c #FEEB52",
"=  c #FBE55C",
"-  c #FCE85A",
";  c #F7DF64",
":  c #F7DB6A",
">  c #EDCD7A",
",  c #F1D373",
"<  c #FAE263",
"1  c #FBE872",
"2  c #FBEE7D",
"3  c #FBF07D",
"4  c #BF7DE9",
"5  c #C47EDE",
"6  c #C27EE5",
"7  c #C27DEA",
"8  c #7CDDE6",
"9  c #DDB19E",
"0  c #E2B795",
"q  c #E4BD92",
"w  c #E1B79A",
"e  c #E1B899",
"r  c #D39FBA",
"t  c #DBADA6",
"y  c #DAABAA",
"u  c #DEB1A3",
"i  c #D7A4B3",
"p  c #D8A6B4",
"a  c #EAC683",
"s  c #E7C088",
"d  c #EAC589",
"f  c #FBEE82",
"g  c #FBEF8B",
"h  c #FCF08B",
"j  c #FBEF93",
"k  c #FBEF99",
"l  c #FAF094",
"z  c #FAF09C",
"x  c #FAEFA2",
"c  c #FAEFAD",
"v  c #F9F0A3",
"b  c #F7F1AF",
"n  c #F9F1AB",
"m  c #F7F2B5",
"M  c #F9F1B3",
"N  c #F7F2BD",
"B  c #F8F1BC",
"V  c #BD8BEB",
"C  c #9DAFE7",
"Z  c #97B7E6",
"A  c #95BBE6",
"S  c #98B8E7",
"D  c #9BB3E8",
"F  c #A1BDE7",
"G  c #A2B1EB",
"H  c #B3B6EE",
"J  c #ACB6F0",
"K  c #B4B6F0",
"L  c #B3BAF1",
"P  c #CB8FCF",
"I  c #CF96C7",
"U  c #CC91CC",
"Y  c #D19AC3",
"T  c #C580D7",
"R  c #CA8DD1",
"E  c #C582DC",
"W  c #C980D9",
"Q  c #C789D9",
"!  c #C382E3",
"~  c #C488E5",
"^  c #C685EB",
"/  c #C28DE8",
"(  c #C693E5",
")  c #D3A9EC",
"_  c #8DC0E6",
"`  c #92C0E7",
"'  c #80DDE3",
"]  c #8BDDE7",
"[  c #A0DFE7",
"{  c #84E2E9",
"}  c #89E6EE",
"|  c #8BE8EF",
" . c #9FE2E6",
".. c #90E9EF",
"X. c #8BE6F0",
"o. c #8CE8F0",
"O. c #9CF5FB",
"+. c #A2E0E6",
"@. c #AFE5E6",
"#. c #ABE7EC",
"$. c #ADE9EC",
"%. c #B1EAEE",
"&. c #BCE8EB",
"*. c #B3EDF1",
"=. c #BBEFF2",
"-. c #A5F7FE",
";. c #A4F8FF",
":. c #B6F0F4",
">. c #BDF1F4",
",. c #F6F2C4",
"<. c #F8F1C2",
"1. c #F6F2CC",
"2. c #F8F2CC",
"3. c #F7F2D4",
"4. c #F8F2D0",
"5. c #F7F3DC",
"6. c #F8F3DA",
"7. c #CBECEE",
"8. c #D1EBEF",
"9. c #D2EEF3",
"0. c #C3F6F8",
"q. c #C5F8FB",
"w. c #CFFBFF",
"e. c #CFFAFF",
"r. c #CDFBFE",
"t. c #CEFCFE",
"y. c #D8F0F5",
"u. c #D2FBFB",
"i. c #D6F9FB",
"p. c #D1FAFE",
"a. c #D6FAFD",
"s. c #D6F9FC",
"d. c #D0FCFF",
"f. c #D9F9FB",
"g. c #DEFAFB",
"h. c #DBF9FD",
"j. c #DAFAFC",
"k. c #DDFBFC",
"l. c #D9FCFE",
"z. c #DFFCFD",
"x. c #F5F3E1",
"c. c #F6F5EB",
"v. c #F8F3EC",
"b. c #F0E5F1",
"n. c #E6F6F6",
"m. c #E0FDFB",
"M. c #E4FDFD",
"N. c #F5F4F5",
"B. c #F8F5F5",
"V. c #F1FFFE",
"C. c #F7FEFE",
/* pixels */
"                                                                                                    ",
"                                                                                                    ",
"                                                                                                    ",
"                                                                                                    ",
"                                                                                                    ",
"                                                                                                    ",
"                                                                                                    ",
"                                                                                                    ",
"                                              j.j.j.h.                                              ",
"                                        &.>.w.e.e.e.e.p.e.a.                                        ",
"                                    9.+.=.e.e.e.e.e.e.e.a.V.z.f.                                    ",
"                                  7. .@.w.w.e.e.p.e.e.e.w.g.C.z.i.                                  ",
"                                  +.+.q.w.e.e.e.e.e.e.e.p.w.M.z.w.f.                                ",
"                                +.+.%.w.w.w.w.w.w.w.w.w.e.e.r.l.u.w.n.                              ",
"                              8.+. .0.w.w.w.e.e.e.w.w.e.e.e.u.V.m.e.a.                              ",
"                              @.+.+.#.$.$.%.$.%.*.*.*.*.*.:.=.=.>.>.>.n.                            ",
"                            ) / V V V V V V V V V V V V V V V V V V V /                             ",
"                            ( 7 4 7 6 6 7 4 6 7 7 7 7 7 7 7 7 7 7 7 7 6 b.                          ",
"                          7.F C G J L L L L L L L L L L K K K K H K K H y.                          ",
"                      &.] 8 8 ..-.-.;.;.;.-.-.-.-.-.;.-.-.-.-.-.-.-.;.;.;.-.0.                      ",
"                    ] 8 8 { O.-.;.-.;.;.;.;.-.-.;.;.;.;.;.;.;.;.;.;.;.;.;.;.;.-.                    ",
"                  ' 8 8 8 { } } } } } X.} } X.X.} X.} X.X.X.| | } } o.o.o.o...o...                  ",
"                C G D D D D D D D D D D D Z D S A Z S S S Z A A A A A A A ` A ` ` _                 ",
"          ^ 7 4 7 7 7 7 4 7 7 7 7 7 7 7 7 ^ 7 7 7 4 7 7 7 7 7 7 7 7 ^ 7 7 7 7 7 7 7 7 7 ^           ",
"          R : a 7 7 ! d , Q 7 7 6 0 , P 7 7 7 t : u 7 7 7 7 U > y 7 7 7 7 Y w E 7 7 ! e u           ",
"          r & < 6 7 E - * Y 6 7 E = & u 7 6 6 < * = 6 7 7 7 q * ; 7 7 7 6 : * t 7 7 I & *           ",
"          6 i U 7 7 4 i t ^ 4 6 7 p q Q 7 7 6 0 < 9 4 4 7 7 U , t 4 7 7 7 y > R 7 7 ~ s w           ",
"                            ^ ^ ^ ^ ~ W 5 5 5 5 5 5 E 5 5 5 V 6 ^ 6 6 7 6 6 7                       ",
"                                  B.v.g @ . . . . . . . X $ g v.N.N.                                ",
"                                    2.3 1 O . . . . . . # 1 2 <.                                    ",
"                                  N.z f f 2 % @ o o + % 2 2 2 j N.                                  ",
"                                  x.f 2 2 2 f 2 f f f 2 2 2 2 2 6.                                  ",
"                                  B f f f 2 2 f f f 2 f 2 f 2 f n                                   ",
"                                c.j g g f f f f f 2 2 f f f g g k x.                                ",
"                                2.l g h f f f f f 2 2 f f f g j v <.                                ",
"                                n l j f f f f f f f 2 f f g g z v M x.                              ",
"                              x.z k g g g f f f f f f g f h g l v b 2.                              ",
"                              N j j j h h g g g g g f h h l j z v b B                               ",
"                              v z j j j g j g j g g g h g j j l v n M 3.                            ",
"                              z v z j j l l l l k l l l l l k z z n M 2.                            ",
"                            B x x x k z k k k z k k l l k k k z z n M B                             ",
"                            v c b v x v v v z z z z z z z z z x v n m B                             ",
"                            b M M c c x v v x v v v v v v v v v n M B <.                            ",
"                          1.<.N m M M M b n b c n n n n n n c c M M <.1.2.                          ",
"                          4.2.,.<.B m M M M c b b b b M M m m B B N ,.2.3.                          ",
"                            3.2.,.,.N N B M M M b m M M m B B B <.,.2.3.6.                          ",
"                            6.3.1.,.,.<.B B B B B B B B N N ,.,.1.1.3.3.x.                          ",
"                            6.3.4.,.,.,.B B B B m m B B N <.,.,.1.1.3.5.x.                          ",
"                            5.6.3.1.,.,.,.<.N N B B <.<.<.,.1.1.1.3.3.5.                            ",
"                            5.3.2.1.,.,.,.<.<.N B B B <.<.,.,.,.4.3.6.                              "
};
